<svg width="55" height="48" viewBox="0 0 55 48" fill="none" xmlns="http://www.w3.org/2000/svg">
<circle cx="23.6709" cy="23.8828" r="23.3706" fill="#00D3EA" fill-opacity="0.1"/>
<path d="M47.5843 16.2551C47.3552 16.2551 47.1694 16.0693 47.1694 15.8402C47.1694 15.6111 47.3552 15.4253 47.5843 15.4253H47.6459C47.8749 15.4253 48.0608 15.6111 48.0608 15.8402C48.0608 16.0693 47.8749 16.2551 47.6459 16.2551H47.5843ZM29.1263 30.6788L38.5105 24.4369L29.1263 18.195V30.6788ZM39.257 24.9348L29.2267 31.6068C29.2894 31.7527 29.3801 31.8856 29.4914 31.9958C29.7172 32.2216 30.0284 32.362 30.3699 32.362H52.2229C52.5644 32.362 52.8755 32.2216 53.1014 31.9958C53.2127 31.8845 53.3034 31.7526 53.3661 31.6068L43.3358 24.9348L41.5259 26.1384C41.3909 26.2281 41.2104 26.2335 41.0678 26.1395L39.257 24.9348ZM44.0835 24.4377L53.4677 30.6796V18.1966L44.0835 24.4386V24.4377ZM29.1575 17.2222L39.4783 24.0875L39.4956 24.0983L41.2978 25.2966L43.1001 24.0983L43.1174 24.0875L53.4382 17.2222C53.3852 16.9899 53.2674 16.7824 53.1054 16.6214C52.8795 16.3956 52.5684 16.2551 52.2258 16.2551H49.1475C48.9184 16.2551 48.7326 16.0693 48.7326 15.8402C48.7326 15.6111 48.9184 15.4253 49.1475 15.4253H52.2258C52.7953 15.4253 53.3128 15.6587 53.6888 16.0347L53.691 16.0368C54.0659 16.4129 54.2993 16.9315 54.2993 17.4988V31.1161C54.2993 31.6877 54.0659 32.2063 53.691 32.5813C53.315 32.9573 52.7963 33.1907 52.2258 33.1907H30.3728C29.8023 33.1907 29.2836 32.9573 28.9076 32.5813C28.5327 32.2063 28.2993 31.6866 28.2993 31.1161V17.4988C28.2993 16.9304 28.5327 16.4118 28.9087 16.0358L28.9109 16.0336C29.2869 15.6587 29.8044 15.4253 30.3728 15.4253H46.0874C46.3165 15.4253 46.5023 15.6111 46.5023 15.8402C46.5023 16.0693 46.3165 16.2551 46.0874 16.2551H30.3728C30.0303 16.2551 29.7191 16.3945 29.4943 16.6192C29.3312 16.7824 29.2123 16.9898 29.1594 17.2222H29.1575Z" fill="#111111"/>
</svg>
