<svg width="142" height="36" viewBox="0 0 142 36" fill="none" xmlns="http://www.w3.org/2000/svg">
<g opacity="0.6">
<path d="M50.5425 25.5687L51.9572 22.2828C53.4861 23.4237 55.5169 24.017 57.525 24.017C59.0082 24.017 59.9437 23.4466 59.9437 22.5795C59.9209 20.1607 51.0673 22.0546 50.9989 15.9849C50.976 12.9044 53.7143 10.5312 57.5934 10.5312C59.8981 10.5312 62.2028 11.1017 63.8457 12.4024L62.5222 15.7567C61.0162 14.7983 59.1451 14.1138 57.3652 14.1138C56.1558 14.1138 55.3572 14.6842 55.3572 15.4144C55.38 17.7876 64.3021 16.4869 64.3934 22.2828C64.3934 25.4318 61.7236 27.6452 57.8901 27.6452C55.0834 27.6452 52.5049 26.9834 50.5425 25.5687Z" fill="white"/>
<path d="M104.828 21.0962C104.121 22.3285 102.797 23.1727 101.269 23.1727C99.0096 23.1727 97.1841 21.3473 97.1841 19.0882C97.1841 16.8292 99.0096 15.0037 101.269 15.0037C102.797 15.0037 104.121 15.848 104.828 17.0802L108.73 14.9124C107.27 12.3111 104.463 10.5312 101.269 10.5312C96.5452 10.5312 92.7117 14.3648 92.7117 19.0882C92.7117 23.8117 96.5452 27.6452 101.269 27.6452C104.486 27.6452 107.27 25.8882 108.73 23.264L104.828 21.0962Z" fill="white"/>
<path d="M71.2407 3.43457H66.3575V27.3256H71.2407V3.43457Z" fill="white"/>
<path d="M110.647 3.43457V27.3256H115.53V20.1606L121.326 27.3256H127.578L120.208 18.8143L127.031 10.8734H121.052L115.53 17.468V3.43457H110.647Z" fill="white"/>
<path d="M85.7524 21.1419C85.045 22.3056 83.5846 23.1727 81.9417 23.1727C79.6826 23.1727 77.8572 21.3473 77.8572 19.0882C77.8572 16.8292 79.6826 15.0037 81.9417 15.0037C83.5846 15.0037 85.045 15.9164 85.7524 17.103V21.1419ZM85.7524 10.8735V12.8131C84.9537 11.4668 82.9685 10.5312 80.892 10.5312C76.6021 10.5312 73.225 14.3191 73.225 19.0654C73.225 23.8117 76.6021 27.6452 80.892 27.6452C82.9685 27.6452 84.9537 26.7096 85.7524 25.3633V27.3029H90.6356V10.8735H85.7524Z" fill="white"/>
<path d="M20.3571 21.119C20.3571 22.7847 19.0108 24.131 17.3451 24.131C15.6793 24.131 14.333 22.7847 14.333 21.119C14.333 19.4532 15.6793 18.1069 17.3451 18.1069H20.3571V21.119Z" fill="white"/>
<path d="M21.8633 21.119C21.8633 19.4532 23.2096 18.1069 24.8753 18.1069C26.5411 18.1069 27.8874 19.4532 27.8874 21.119V28.6491C27.8874 30.3149 26.5411 31.6612 24.8753 31.6612C23.2096 31.6612 21.8633 30.3149 21.8633 28.6491V21.119Z" fill="white"/>
<path d="M24.8753 9.02508C23.2096 9.02508 21.8633 7.67879 21.8633 6.01303C21.8633 4.34727 23.2096 3.00098 24.8753 3.00098C26.5411 3.00098 27.8874 4.34727 27.8874 6.01303V9.02508H24.8753Z" fill="white"/>
<path d="M24.8738 10.5537C26.5396 10.5537 27.8859 11.9 27.8859 13.5658C27.8859 15.2315 26.5396 16.5778 24.8738 16.5778H17.3209C15.6551 16.5778 14.3088 15.2315 14.3088 13.5658C14.3088 11.9 15.6551 10.5537 17.3209 10.5537H24.8738Z" fill="white"/>
<path d="M36.9446 13.5658C36.9446 11.9 38.2909 10.5537 39.9566 10.5537C41.6224 10.5537 42.9687 11.9 42.9687 13.5658C42.9687 15.2315 41.6224 16.5778 39.9566 16.5778H36.9446V13.5658Z" fill="white"/>
<path d="M35.4387 13.566C35.4387 15.2317 34.0924 16.578 32.4266 16.578C30.7608 16.578 29.4146 15.2317 29.4146 13.566V6.01303C29.4146 4.34727 30.7608 3.00098 32.4266 3.00098C34.0924 3.00098 35.4387 4.34727 35.4387 6.01303V13.566Z" fill="white"/>
<path d="M32.4266 25.6372C34.0924 25.6372 35.4387 26.9835 35.4387 28.6493C35.4387 30.315 34.0924 31.6613 32.4266 31.6613C30.7608 31.6613 29.4146 30.315 29.4146 28.6493V25.6372H32.4266Z" fill="white"/>
<path d="M32.4266 24.131C30.7608 24.131 29.4146 22.7847 29.4146 21.119C29.4146 19.4532 30.7608 18.1069 32.4266 18.1069H39.9796C41.6453 18.1069 42.9916 19.4532 42.9916 21.119C42.9916 22.7847 41.6453 24.131 39.9796 24.131H32.4266Z" fill="white"/>
</g>
</svg>
