<svg width="112" height="18" viewBox="0 0 112 18" fill="none" xmlns="http://www.w3.org/2000/svg">
<g opacity="0.6">
<path d="M7.43408 12.1866C7.58818 12.5737 7.53932 13.0698 7.46415 13.3704C7.33261 13.9041 6.9718 14.4491 5.90442 14.4491C4.90469 14.4491 4.29583 13.8703 4.29583 12.9984V11.4462H0V12.6789C0 16.2494 2.80751 17.328 5.81798 17.328C8.71193 17.328 11.0947 16.3433 11.4743 13.6711C11.6698 12.288 11.527 11.3823 11.4593 11.0478C10.7828 7.69529 4.70925 6.69556 4.25449 4.82012C4.19135 4.54351 4.18609 4.25674 4.23946 3.97824C4.35221 3.46335 4.70174 2.90335 5.70147 2.90335C6.64106 2.90335 7.18603 3.48214 7.18603 4.35408V5.3463H11.1812V4.21878C11.1812 0.731001 8.05046 0.186035 5.78791 0.186035C2.93906 0.186035 0.612617 1.12939 0.187919 3.74147C0.0751677 4.45556 0.0563758 5.09448 0.225503 5.89878C0.920804 9.16857 6.60724 10.1157 7.43408 12.1866Z" fill="white"/>
<path d="M17.1383 0.697118L14.1692 16.7041H18.4951L20.6862 2.17792H20.7764L22.9074 16.7041H27.2108L24.2604 0.693359L17.1383 0.697118ZM41.3235 0.697118L39.3504 12.9344H39.2564L37.287 0.697118H30.7587L30.4054 16.7041H34.4118L34.5096 2.31322H34.5998L37.272 16.7041H41.3348L44.0108 2.31698H44.0972L44.1987 16.7041H48.2014L47.8481 0.693359L41.3235 0.697118Z" fill="white"/>
<path d="M59.4762 12.1563C59.6303 12.5434 59.5814 13.0395 59.5063 13.3402C59.3747 13.8739 59.0139 14.4188 57.9465 14.4188C56.9468 14.4188 56.3379 13.84 56.3379 12.9681V11.4159H52.0421V12.6486C52.0421 16.2191 54.8496 17.2978 57.8601 17.2978C60.754 17.2978 63.1369 16.3131 63.5165 13.6408C63.7119 12.2578 63.5691 11.352 63.5014 11.0175C62.8249 7.66501 56.7514 6.66528 56.2966 4.78985C56.2335 4.51323 56.2282 4.22647 56.2816 3.94797C56.3943 3.43307 56.7439 2.87307 57.7436 2.87307C58.6832 2.87307 59.2281 3.45186 59.2281 4.32381V5.31602H63.2233V4.18851C63.2233 0.700727 60.0926 0.155762 57.83 0.155762C54.9812 0.155762 52.6547 1.09912 52.23 3.71119C52.1173 4.42529 52.0985 5.06421 52.2676 5.86851C52.9629 9.1383 58.6494 10.0854 59.4762 12.1563Z" fill="white"/>
<path d="M72.9129 14.3063C74.0254 14.3063 74.3674 13.5396 74.4463 13.1487C74.4801 12.9758 74.4839 12.7428 74.4839 12.5361V0.697203H78.5354V12.1715C78.5362 12.5226 78.5238 12.8736 78.4978 13.2239C78.216 16.2118 75.8557 17.1815 72.9129 17.1815C69.9663 17.1815 67.606 16.2118 67.3242 13.2239C67.3129 13.066 67.2828 12.4647 67.2866 12.1715V0.693444H71.3381V12.5324C71.3344 12.7428 71.3419 12.9758 71.3757 13.1487C71.4509 13.5396 71.7966 14.3063 72.9129 14.3063ZM92.4865 0.697203L92.7045 13.2615H92.6181L88.9349 0.697203H82.9966V16.535H86.9317L86.7137 3.53478H86.8001L90.7502 16.535H96.4516V0.697203H92.4865ZM106.299 14.1409C107.456 14.1409 107.862 13.4081 107.933 12.9758C107.967 12.7992 107.971 12.5737 107.971 12.3745V10.0443H106.329V7.7141H112V12.0062C112 12.3068 111.993 12.5248 111.944 13.0585C111.681 15.975 109.151 17.0161 106.314 17.0161C103.476 17.0161 100.95 15.975 100.684 13.0585C100.638 12.5248 100.627 12.3068 100.627 12.0062V5.27115C100.627 4.98552 100.665 4.48189 100.695 4.21881C101.052 1.22338 103.476 0.26123 106.314 0.26123C109.151 0.26123 111.639 1.21586 111.932 4.21505C111.985 4.72619 111.97 5.2674 111.97 5.2674V5.80485H107.933V4.90659C107.933 4.90659 107.933 4.53075 107.885 4.29773C107.809 3.94445 107.509 3.13264 106.284 3.13264C105.118 3.13264 104.776 3.9031 104.69 4.29773C104.641 4.5082 104.622 4.79384 104.622 5.05317V12.3707C104.622 12.5737 104.63 12.7992 104.66 12.9796C104.735 13.4081 105.141 14.1409 106.299 14.1409Z" fill="white"/>
</g>
</svg>
