<svg width="55" height="48" viewBox="0 0 55 48" fill="none" xmlns="http://www.w3.org/2000/svg">
<circle cx="23.6709" cy="23.8828" r="23.3706" fill="#00D3EA" fill-opacity="0.1"/>
<path d="M53.6138 28.3238L49.7471 24.4572C49.3075 24.018 48.7115 23.7713 48.09 23.7713C47.4686 23.7713 46.8726 24.018 46.4329 24.4572L44.688 26.2021C44.6255 26.2499 44.5741 26.3105 44.5372 26.3799C44.5002 26.4492 44.4786 26.5257 44.4738 26.6042C44.469 26.6826 44.4811 26.7612 44.5093 26.8346C44.5375 26.908 44.5811 26.9744 44.6372 27.0295C44.6933 27.0845 44.7606 27.1269 44.8345 27.1537C44.9084 27.1805 44.9872 27.1911 45.0655 27.1847C45.1439 27.1784 45.2199 27.1554 45.2886 27.1171C45.3573 27.0788 45.4169 27.0263 45.4635 26.963L47.2084 25.218C47.4459 24.9913 47.7617 24.8648 48.09 24.8648C48.4184 24.8648 48.7341 24.9913 48.9716 25.218L52.8492 29.0993C53.0829 29.3332 53.2141 29.6503 53.2141 29.9809C53.2141 30.3115 53.0829 30.6286 52.8492 30.8625L50.0361 33.6756C49.2962 34.4137 48.2938 34.8282 47.2487 34.8282C46.2035 34.8282 45.2011 34.4137 44.4612 33.6756L30.5603 19.7748C29.8222 19.0348 29.4077 18.0324 29.4077 16.9873C29.4077 15.9422 29.8222 14.9397 30.5603 14.1998L33.3734 11.3867C33.6073 11.153 33.9244 11.0218 34.255 11.0218C34.5856 11.0218 34.9027 11.153 35.1366 11.3867L38.9923 15.257C39.1078 15.3725 39.1995 15.5096 39.2621 15.6606C39.3247 15.8115 39.3569 15.9733 39.3569 16.1367C39.3569 16.3002 39.3247 16.462 39.2621 16.6129C39.1995 16.7639 39.1078 16.901 38.9923 17.0165L37.2473 18.7615C37.0463 18.9666 36.9336 19.2424 36.9336 19.5297C36.9336 19.8169 37.0463 20.0927 37.2473 20.2979L42.6614 25.7119C42.7647 25.8147 42.9046 25.8723 43.0504 25.872C43.1962 25.8716 43.3359 25.8134 43.4387 25.7101C43.5416 25.6067 43.5991 25.4668 43.5988 25.321C43.5985 25.1752 43.5402 25.0356 43.4369 24.9327L39.0179 20.5137L38.0229 19.537L39.7678 17.7921C40.207 17.3524 40.4536 16.7564 40.4536 16.1349C40.4536 15.5135 40.207 14.9175 39.7678 14.4778L35.9011 10.6112C35.4615 10.172 34.8655 9.92529 34.244 9.92529C33.6226 9.92529 33.0266 10.172 32.5869 10.6112L29.7738 13.4279C28.8302 14.3736 28.3003 15.655 28.3003 16.9909C28.3003 18.3268 28.8302 19.6082 29.7738 20.5539L43.6747 34.4548C44.6213 35.3966 45.9023 35.9253 47.2377 35.9253C48.573 35.9253 49.854 35.3966 50.8007 34.4548L53.6138 31.6381C54.053 31.1984 54.2996 30.6024 54.2996 29.9809C54.2996 29.3595 54.053 28.7635 53.6138 28.3238Z" fill="#111111"/>
</svg>
