<svg width="91" height="23" viewBox="0 0 91 23" fill="none" xmlns="http://www.w3.org/2000/svg">
<g opacity="0.6">
<path d="M55.269 6.88195C53.822 6.88195 52.6854 7.19236 51.5482 7.812C51.5482 4.50427 51.5482 1.50696 51.6521 0.473633L44.7256 1.71351V2.33375L45.4491 2.43702C46.3786 2.64356 46.6902 3.15993 46.8949 4.401C47.1033 6.88195 46.9988 20.1135 46.8949 22.2846C48.7556 22.6983 50.7202 23.0087 52.6848 23.0087C58.1636 23.0087 61.4714 19.5971 61.4714 14.2215C61.4714 9.98372 58.7839 6.88195 55.269 6.88195ZM52.8913 21.8709C52.4776 21.8709 51.9601 21.8709 51.6509 21.7682C51.547 20.3212 51.4443 14.2215 51.547 8.84653C52.1672 8.63938 52.5803 8.53611 53.0979 8.53611C55.3735 8.53611 56.6139 11.2236 56.6139 14.5307C56.6133 18.667 55.0625 21.8709 52.8913 21.8709ZM18.6745 0.886726H0.480469V1.81678L1.5144 1.92006C2.85754 2.1266 3.3751 2.95338 3.58105 4.91737C3.89207 8.63879 3.7882 15.3587 3.58105 18.562C3.37451 20.5266 2.85814 21.4572 1.5144 21.5593L0.480469 21.767V22.5938H12.1617V21.767L10.9212 21.5593C9.57747 21.4566 9.0605 20.5266 8.85396 18.562C8.75009 17.2176 8.64682 15.0465 8.64682 12.3596L11.1278 12.4629C12.6786 12.4629 13.4016 13.7034 13.712 15.4602H14.6426V8.12302H13.712C13.401 9.88045 12.6786 11.1203 11.1278 11.1203L8.64741 11.2242C8.64741 7.70933 8.75068 4.4016 8.85456 2.43762H12.4721C15.2641 2.43762 16.7111 4.19445 17.7444 7.29623L18.7783 6.98582L18.6745 0.886726Z" fill="white"/>
<path d="M24.5667 6.67526C29.7357 6.67526 32.3199 10.1901 32.3199 14.8416C32.3199 19.2865 29.4253 23.0091 24.2562 23.0091C19.0878 23.0091 16.5036 19.4937 16.5036 14.8416C16.5036 10.3967 19.3976 6.67526 24.5667 6.67526ZM24.2562 7.70919C21.9818 7.70919 21.3616 10.8104 21.3616 14.8416C21.3616 18.7696 22.3955 21.974 24.4634 21.974C26.8393 21.974 27.4607 18.8728 27.4607 14.8416C27.4607 10.9136 26.428 7.70919 24.2562 7.70919ZM62.8142 14.9455C62.8142 10.7071 65.5017 6.67526 70.774 6.67526C75.1144 6.67526 77.1829 9.88031 77.1829 14.1181H67.5689C67.465 17.9428 69.3258 20.7341 73.0478 20.7341C74.7019 20.7341 75.5287 20.3217 76.5632 19.5975L76.9757 20.1139C75.9418 21.5609 73.668 23.0091 70.774 23.0091C66.1219 23.0085 62.8142 19.7008 62.8142 14.9455ZM67.5689 12.9815L72.4275 12.8776C72.4275 10.8104 72.1171 7.70919 70.3603 7.70919C68.6034 7.70919 67.6716 10.6032 67.5689 12.9815ZM89.4861 7.50264C88.2457 6.98508 86.5921 6.67526 84.7314 6.67526C80.9073 6.67526 78.5284 8.94906 78.5284 11.6372C78.5284 14.3252 80.2841 15.4618 82.768 16.2892C85.3516 17.2187 86.0757 17.9428 86.0757 19.1833C86.0757 20.4237 85.1451 21.5603 83.4909 21.5603C81.5275 21.5603 80.0793 20.4237 78.9427 17.322L78.2186 17.5297L78.3225 22.0779C79.5629 22.5943 81.8367 23.0085 83.8013 23.0085C87.8332 23.0085 90.418 20.9401 90.418 17.7362C90.418 15.5651 89.2802 14.3252 86.5927 13.2907C83.6974 12.1541 82.6647 11.4306 82.6647 10.0863C82.6647 8.74252 83.5966 7.81186 84.837 7.81186C86.6966 7.81186 87.937 8.94906 88.8689 11.7404L89.5918 11.5339L89.4861 7.50264ZM45.758 7.08895C44.0011 6.05622 40.8994 6.57199 39.2458 10.294L39.3485 6.67586L32.4232 8.0196V8.63984L33.1467 8.74311C34.0779 8.84698 34.4904 9.36335 34.5943 10.7077C34.8009 13.1886 34.6976 17.5309 34.5943 19.7014C34.4904 20.9407 34.0779 21.5609 33.1467 21.6648L32.4232 21.7687V22.5955H42.0366V21.7687L40.7961 21.6648C39.7628 21.5609 39.4523 20.9407 39.3485 19.7014C39.1419 17.7368 39.1419 13.8089 39.2458 11.3279C39.7622 10.6038 42.0366 9.98418 44.1038 11.3279L45.758 7.08895Z" fill="white"/>
</g>
</svg>
