<svg width="111" height="18" viewBox="0 0 111 18" fill="none" xmlns="http://www.w3.org/2000/svg">
<g opacity="0.6">
<path fill-rule="evenodd" clip-rule="evenodd" d="M88.4537 17.3156V12.7792H88.8002L89.5638 12.6261L90.1049 12.4315L90.6181 12.1408L91.0756 11.808L91.4915 11.3921L91.8516 10.9192L92.1993 10.2677L92.3791 9.72664L92.5042 9.15766L92.5179 8.67234L92.49 8.10336L92.3648 7.53438L92.1572 7.00693L91.8789 6.49371L91.5324 6.03628L90.9077 5.46729L90.4223 5.16174L89.8949 4.91196L89.3395 4.75948L88.7569 4.67582H88.452V0.0972727L88.9794 0.11092L89.8534 0.208223L90.6994 0.388589L91.5188 0.652611L92.2954 0.985454L93.0453 1.38772L93.781 1.90093L94.5019 2.52509L95.1267 3.19137L95.6399 3.8713L96.0837 4.59276L96.4313 5.32787L96.6663 6.02144L96.7357 6.3264V0.41588H100.912L106.462 8.61657L106.448 0.374349L111 0.41588V17.121H106.892L101.245 8.96306V17.121H96.7357V11.1974L96.6242 11.5161L96.3335 12.2381L95.9442 12.9869L95.4868 13.6947L94.9594 14.361L94.3767 14.9715L93.7253 15.5268L93.0311 16.0121L92.2954 16.428L91.5051 16.7745L90.6175 17.0528L89.7424 17.2326L88.9106 17.3162L88.4537 17.3156ZM88.4537 0.0972727V4.67582H88.1755L87.5928 4.75948L87.0387 4.9256L86.5101 5.17538L86.0247 5.48094L85.581 5.86956L85.1929 6.2997L84.8743 6.79927L84.6382 7.31248L84.4715 7.86781L84.3742 8.45044V9.01942L84.4578 9.60205L84.6109 10.1574L84.847 10.6985L84.9574 10.9061L85.041 11.0177L85.2078 11.2538L85.61 11.684L86.0538 12.0441L86.5534 12.3502L87.0945 12.5715L87.6498 12.7246L88.2324 12.794L88.4549 12.7804V17.3168H88.0669L87.2339 17.2474L86.4021 17.0955L85.5691 16.8315L84.7788 16.4986L84.0289 16.1106L83.3347 15.6378L82.7111 15.1103L82.4471 14.889L82.2258 14.6665V17.1222H72.6658V0.41588H77.1471V12.9863H80.9911L80.8244 12.6398L80.6446 12.2796L80.3385 11.5161L80.1035 10.7258L79.9368 9.89277L79.8532 9.06095V8.24219L79.9505 7.38189L80.1314 6.50795L80.3806 5.6613L80.7135 4.88407L81.1306 4.14897L81.6022 3.45539L82.1433 2.80275L82.7538 2.20648L83.4053 1.67903L84.1131 1.221L84.8488 0.846619L85.6255 0.527419L86.4306 0.304929L87.2624 0.166099L88.0942 0.0966797L88.4537 0.0972727ZM41.0984 14.3883V10.5027H42.1111V7.39495L41.0984 8.93517V1.37348L41.681 0.41588H46.5099V17.121H42.1111V14.3889L41.0984 14.3883ZM50.1588 17.121H54.5985V4.48181H57.7893V0.41588H47.092V4.48181H50.1582L50.1588 17.121ZM58.2473 17.121H62.7713V10.8231H67.3498V17.121H71.8447V0.41588L67.3498 0.402232V6.84021H62.7713V0.41588H58.2473V17.121ZM7.46558 4.70371L7.86784 4.84254L8.40894 5.10597L8.9085 5.43941L9.35289 5.82803L9.74151 6.27241L10.0607 6.77197L10.3105 7.29942L10.4766 7.85476L10.5739 8.39585L10.6018 8.89483L10.5603 9.39439L10.463 9.92184L10.2684 10.4629L10.0049 10.9904L9.61632 11.5036L9.13099 11.9753L8.5899 12.3787L8.02092 12.6694L7.46617 12.8641V17.054L7.86844 16.9982L8.81179 16.7621L9.69997 16.4435L10.4487 16.0691L11.1702 15.5962L11.8365 15.0551L12.4191 14.4873L12.9323 13.8489L13.4319 13.099L13.6953 12.6552V17.1222H22.9224V13.099H18.1493V10.7952H22.9224V6.82656H18.1493V4.37027H22.9224V0.41588H13.6953V5.03655L13.598 4.77313L13.2236 4.14897L12.7104 3.46903L12.0441 2.76182L11.3506 2.16495L10.6433 1.67962L9.82457 1.26312L8.81179 0.902391L7.81266 0.63837L7.46617 0.583191L7.46558 4.70371ZM41.0984 1.37348V8.93517L40.085 10.5033L41.0984 10.5027V14.3883L38.4902 14.3889L38.171 14.7075L37.5189 15.3043L36.839 15.8318L36.1176 16.2756L35.3546 16.6499L34.5637 16.9561L33.7449 17.1774L32.8983 17.3305L32.038 17.3862L31.1913 17.3726L30.3589 17.261L29.4986 17.0676L28.6241 16.7757L27.8196 16.4156L27.1123 15.9718L26.4324 15.4722L25.8361 14.9169L25.2808 14.2921L24.7812 13.6259L24.3505 12.8913L23.9625 12.0305L23.6433 11.0871L23.435 10.2132L23.3377 9.35227L23.3104 8.52045L23.3799 7.6738L23.5187 6.84139L23.7406 6.02322L24.0598 5.20446L24.462 4.41358L24.9337 3.70636L25.4612 3.05372L26.0438 2.47109L26.6958 1.94424L27.3894 1.47256L28.1666 1.05665L29.0406 0.695921L29.9288 0.44614L30.7612 0.293658L31.6078 0.210002L32.4539 0.237886L33.2863 0.320949L34.1187 0.515555L34.9511 0.793224L35.742 1.12607L36.4771 1.54257L37.157 2.0279L37.7812 2.56899L38.3086 3.09644L38.5169 3.34622L36.2137 6.92624L35.9224 6.66281L35.631 6.39938L34.979 5.91346L34.2433 5.46967L33.4524 5.10893L32.6615 4.88704L31.9674 4.80398L31.3017 4.84551L30.6218 5.01223L29.9561 5.26201L29.415 5.6085L28.9712 5.98288L28.5962 6.42726L28.277 6.92683L28.0415 7.46793L27.8747 8.03691L27.8059 8.60292V9.1719L27.9032 9.74089L28.0836 10.2962L28.3334 10.8373L28.6668 11.3226L29.0691 11.7528L29.5135 12.0993L30.013 12.39L30.5684 12.6125L31.1925 12.7513L31.8173 12.8207L32.4135 12.7792L32.9689 12.6677L33.5242 12.4588L34.0238 12.196L34.4955 11.8631L34.8698 11.5297L35.0365 11.3642L41.0984 1.37348ZM4.31571 13.0978V4.48181H5.55038L6.1609 4.49546L6.74353 4.55123L7.31191 4.64853L7.46499 4.7043V0.583191L6.7987 0.485888L5.66133 0.416473H0V17.1216H6.49374L7.10426 17.0949L7.46499 17.0534V12.8635L7.40921 12.8771L6.74353 13.0142L5.96629 13.0699L5.53615 13.0978H4.31571Z" fill="white"/>
</g>
</svg>
