<svg width="90" height="40" viewBox="0 0 90 40" fill="none" xmlns="http://www.w3.org/2000/svg">
<g opacity="0.6" clip-path="url(#clip0_2050_3768)">
<path d="M34.3614 31.8251C31.0319 29.6802 26.5132 29.3038 19.2259 31.3256C11.4571 33.1513 8.86687 34.3216 5.46516 31.9723C4.15829 30.8182 3.68975 28.96 4.03962 26.2834C4.8511 21.9201 7.04404 17.7211 10.9393 13.0635C13.1135 10.6406 15.1304 8.56126 17.7934 7.72629C19.8345 7.2025 19.6437 8.80654 19.3967 9.03595C19.1361 9.03595 18.6983 9.077 18.36 9.29779C18.0854 9.51076 17.3316 10.1984 17.2911 11.1234C17.2327 12.5394 18.6981 12.2447 19.3302 11.4672C20.0114 10.5911 21.0183 8.91336 20.2263 7.34969C19.8943 6.79312 19.3208 6.40847 18.6086 6.27749C16.17 6.13812 13.899 7.30059 11.8029 8.58575C7.21909 11.77 3.55229 16.1823 1.47746 21.012C0.28133 23.9261 -0.800489 28.1003 0.821009 31.4978C2.07552 33.8551 4.67974 35.1073 7.78684 34.8455C9.96602 34.6165 12.6011 33.9122 14.3734 33.4869C16.1458 33.0609 25.2177 29.9425 28.1986 35.3701C28.1986 35.3701 29.1898 33.4459 31.6669 33.4048C33.7035 33.2169 36.6416 33.9944 38.7811 35.5658C38.0683 34.4938 36.0473 32.9139 34.3614 31.8251Z" fill="white"/>
<path d="M20.1499 13.6116C18.4531 12.4984 15.0428 14.6267 12.3113 18.2773C9.81347 21.552 8.7349 25.3579 9.90877 27.1179C11.6548 29.1888 14.8963 26.1766 16.2747 24.5642L16.4526 24.3758C17.39 23.3689 18.1141 22.1573 18.8152 20.9948C18.8152 20.9948 19.4595 19.9306 19.4902 19.8814C19.8884 19.808 20.368 19.6934 20.9085 19.5378C20.9008 19.5622 18.8407 23.0248 19.0509 24.7435C19.1163 25.2679 19.0664 27.1833 20.9365 27.7644C23.4289 28.1822 25.4192 26.2501 27.175 24.531C27.175 24.531 27.4742 24.2448 27.6435 24.0814C27.6006 24.2527 27.5448 24.4815 27.5448 24.4815C26.8151 27.0191 27.7987 27.5517 28.414 27.7481C30.2735 28.2888 32.495 25.5872 32.5023 25.5872C32.4445 26.4382 32.2762 27.1421 33.1732 27.707C34.0198 28.0101 34.8767 27.548 35.5281 27.1141C37.8742 25.4607 39.7643 22.8727 41.2908 20.6358H40.317C40.3055 20.6358 37.9143 24.1019 36.3614 24.8552C36.359 24.8552 36.0763 25.0002 35.9136 24.8855C35.7119 24.7136 35.7914 24.356 35.9159 24.1027C35.9238 24.0863 41.9116 13.7011 41.9116 13.7011H39.0844C39.0844 13.7011 38.7756 14.2007 38.7505 14.2335C38.7314 14.2172 38.6861 14.1313 38.6548 14.0901C36.9032 11.6672 32.9367 15.3941 29.9504 19.716C28.8007 21.3778 27.3369 23.249 25.8191 24.5996C25.8191 24.5996 23.5704 26.6608 22.6097 25.1799C22.2585 24.5576 22.3666 23.648 22.5647 23.0506C23.6833 19.8662 25.6108 16.9763 27.8043 15.2327C28.4234 14.75 29.0965 14.6104 29.4304 14.8151C29.7487 15.0037 29.8001 15.4699 29.5987 15.7892C29.0879 15.7729 28.6785 15.9281 28.3459 16.272C27.6904 16.9596 27.4627 17.6228 27.6711 18.245C28.6835 19.6857 30.7025 16.8369 30.6048 15.1016C30.5699 14.4793 30.2381 13.8901 29.7426 13.6033C29.0042 13.1615 27.8779 13.2759 27.149 13.6282C26.1731 13.9964 24.6285 15.2814 23.7269 16.2803C22.5918 17.5329 20.6451 18.9243 20.0364 18.7685C20.2354 18.2363 21.8797 14.8721 20.1499 13.6116ZM33.7801 18.5885C34.3301 17.8274 35.9308 15.789 36.3211 15.4453C37.6335 14.2907 38.1581 14.7987 38.2035 15.1586C36.9786 17.3523 35.533 19.8655 34.1737 22.1249C34.1765 22.1168 33.7484 22.7715 33.7484 22.7715C33.1481 23.688 32.5436 24.474 31.5577 25.0223C31.4171 25.0635 31.1853 25.08 31.0311 24.9649C30.8454 24.8421 30.7721 24.6374 30.7931 24.4245C30.8522 23.7208 31.5687 21.5683 33.7801 18.5885ZM18.4001 19.9063C18.4001 19.9063 18.3754 19.9803 18.3633 20.0044C18.3602 20.0044 17.1306 22.0097 17.1306 22.0097C16.3886 23.0003 15.4622 24.2449 14.3041 24.8422C13.9608 24.9567 13.4862 25.0307 13.2444 24.728C12.7318 24.1139 12.996 23.2625 13.2106 22.5751L13.2867 22.3295C13.9021 20.6598 14.8784 19.186 15.8289 17.819C15.8408 17.8109 15.8674 17.8028 15.877 17.8028C15.8794 17.8109 15.8832 17.8109 15.8847 17.8274C16.4811 18.9732 17.5994 19.505 18.4357 19.751C18.4407 19.751 18.4462 19.7591 18.4462 19.7756C18.4463 19.8 18.4327 19.833 18.4001 19.9063ZM19.5649 17.5409C19.5595 17.5573 19.0173 18.8015 19.0173 18.8015C18.9389 18.8669 18.815 18.8342 18.6729 18.8015L18.4295 18.7603C17.6653 18.5231 17.0888 18.0155 16.9111 17.4098C16.666 16.231 17.673 15.306 18.1166 14.9706C18.5423 14.6756 19.2041 14.5202 19.5884 14.8232C19.8254 15.1016 19.9153 15.4616 19.9153 15.8548C19.9154 16.3866 19.7512 16.9841 19.5649 17.5409ZM55.3057 21.3388C55.033 20.7496 54.3859 20.373 53.6963 20.4138C51.4567 20.6186 49.2661 22.4603 48.1158 25.1041C47.5123 26.4631 47.1829 27.5844 46.9669 29.3689C47.6634 28.5669 49.0839 27.2491 50.6959 26.5287C50.6959 26.5287 50.9152 24.8179 52.0337 23.2953C52.457 22.6648 53.3039 21.6499 54.255 21.9199C55.086 22.1983 54.7939 24.4986 53.6894 26.7246C52.8723 28.362 51.6218 29.9996 50.3565 31.129C49.2379 32.0785 47.5828 33.2245 46.1348 32.3405C45.2228 31.8005 44.7576 30.6705 44.8558 29.2135C45.2916 25.0799 47.1734 21.5599 49.8662 17.549C52.6427 13.8245 55.7034 10.0017 59.8266 7.96316C60.6676 7.53756 61.4464 7.43936 62.1196 7.70131C62.1196 7.70131 58.2491 9.82961 56.4042 13.7671C55.9348 14.7659 55.2821 16.1162 55.9394 17.3114C56.2829 17.9334 56.8927 17.9826 57.3839 17.9498C59.6454 17.4258 61.1065 15.314 62.3003 13.3823C62.9924 11.9171 63.6076 10.46 63.6076 8.83917C63.6076 8.64276 63.5974 8.38092 63.5808 8.18428C64.6612 7.6115 66.8769 8.62632 66.8769 8.62632C68.6082 9.19955 72.2947 12.0238 73.5382 12.5638C74.1448 11.8599 75.1416 10.7959 75.703 10.2637L74.8904 9.76429C73.5896 8.97026 72.2146 8.21706 70.8613 7.47224C67.7878 5.79437 65.2859 6.3836 64.0127 6.84208C63.5123 7.02204 63.055 7.17763 63.055 7.17763C62.1101 6.14625 60.5603 6.24424 59.4184 6.52274C55.3119 7.70143 51.4993 10.5745 47.4117 15.5598C44.4065 19.4645 42.5424 22.8372 41.5488 26.1686C40.783 28.4115 40.5502 31.7103 42.4195 33.6668C44.0088 35.3281 46.1161 34.9681 47.6042 34.3709C50.8285 32.7828 53.7265 29.361 55.1705 25.4235C55.519 24.2531 55.9056 22.5996 55.3057 21.3388ZM62.7199 9.00303C62.2931 13.8982 58.4881 16.7716 57.5465 17.0005C56.976 17.1149 56.0024 16.8613 56.8716 14.807C58.1514 12.0399 60.3366 9.6908 62.681 8.4874C62.7382 8.69209 62.7366 8.82273 62.7199 9.00303ZM85.2911 9.62492C83.2444 10.7875 81.1226 11.5404 78.5543 11.2785C77.8426 12.0809 77.1494 12.9076 76.5107 13.7588C80.1155 14.6756 83.9371 12.6374 86.0685 10.6976C88.3233 8.74108 89.4794 6.27734 89.4794 6.27734C89.4794 6.27734 87.7893 8.209 85.2911 9.62492ZM46.6103 13.7013H43.9254L42.411 16.162H45.0953L46.6103 13.7013Z" fill="white"/>
<path d="M78.5438 32.0527C78.2551 32.2491 77.8495 32.0981 78.0011 31.648C78.3789 30.502 79.8806 28.1665 79.8806 28.1665L84.0634 20.7479H81.1983C81.0621 20.9716 80.7709 21.4853 80.7709 21.4853C80.6384 21.2645 80.242 20.7736 80.0788 20.6674C79.3789 20.225 78.352 20.4342 77.6435 20.8352C74.5632 22.6363 72.3158 26.1948 70.5433 28.97C70.5433 28.97 68.6775 32.0548 67.6419 32.2842C66.8334 32.3498 66.9168 31.2606 66.9518 31.0068C67.2644 29.1729 67.9904 27.4294 68.7218 25.8496C70.2097 24.8182 71.9075 23.4676 73.4504 21.986C76.799 18.7851 79.622 15.1588 80.0346 14.3484C80.0346 14.3484 79.588 14.4386 79.0606 14.4548C76.4845 18.0483 71.2127 23.2711 69.6145 24.0485C70.3225 22.3455 74.897 14.2173 78.7896 10.3292L79.4022 9.73961C80.3495 8.8146 81.3309 7.8651 82.0957 7.70952C82.1765 7.70135 82.2805 7.70952 82.3703 7.8981C82.4044 8.6183 82.1363 9.15049 81.8287 9.75616L81.3976 10.6403C81.3976 10.6403 82.0082 10.5257 82.4093 10.3944C82.8745 9.51892 83.3899 8.53632 83.1999 7.36602C83.1366 6.98942 82.8639 6.70297 82.5076 6.63743C81.3464 6.41641 80.0809 7.27565 79.0625 7.9717L79.0215 7.99608C73.7867 12.0972 69.3664 18.0074 65.5018 26.0786C65.2217 26.2911 64.1395 26.5452 63.9557 26.4222C64.3373 25.6366 64.8178 24.5804 65.0582 23.4344C65.0998 23.1068 65.1385 22.7714 65.1385 22.444C65.1385 21.7395 64.9694 21.0767 64.3383 20.6185C63.5983 20.2501 62.6837 20.4221 62.067 20.7002C59.3046 21.8462 57.2399 24.6787 55.75 27.0114C54.9487 28.4934 54.1497 30.0806 53.9285 31.8982C53.7727 33.3223 54.0899 34.2392 54.8997 34.6977C55.7323 35.1231 56.7803 34.6809 57.1921 34.4683C59.9907 32.9948 61.9462 30.0399 63.4875 27.3385C63.5487 27.3305 64.3903 27.3061 65.027 27.1421C65.0354 27.1421 65.0389 27.1421 65.053 27.1506C65.0166 27.273 64.6876 28.2556 64.6876 28.2556C63.7107 31.1203 63.2589 33.0687 64.1817 34.2228C65.5003 35.8518 67.6834 34.1658 69.4593 31.9388C69.0781 34.6072 70.461 35.025 71.5153 34.8205C72.7263 34.4933 74.0758 33.1996 74.702 32.5368C74.5009 33.3142 74.5555 34.7061 75.6572 34.845C76.4122 34.9846 76.9774 34.5739 77.6312 34.2218C79.9766 32.9447 82.7841 28.6891 83.5131 27.4588H82.5573C81.521 29.025 80.2024 31.0781 78.5438 32.0527ZM57.4915 31.7677C57.3427 31.5466 57.2934 31.305 57.2885 31.0437C57.26 29.4385 58.9869 26.5642 60.2058 24.9983H60.2083C60.719 26.1168 61.8758 26.8357 62.5741 27.1388C61.7069 29.0707 58.7325 33.2083 57.4915 31.7677ZM63.0637 26.275C62.9811 26.3328 61.5225 25.8413 61.2405 24.4907C61.0014 23.3279 61.8021 22.4193 62.5768 21.9614C62.9093 21.6992 63.4102 21.6095 63.7776 21.7399C64.1186 21.9696 64.211 22.3792 64.211 22.8204C64.211 23.0911 64.1751 23.3692 64.1435 23.6228L64.1365 23.6803C63.8922 24.5879 63.5316 25.46 63.0637 26.275ZM74.7629 31.2521C74.7617 31.2521 74.4861 31.4976 74.4861 31.4976C74.0926 31.8494 73.6877 32.2259 73.1989 32.0376C73.0639 31.9886 72.9689 31.8086 72.9461 31.669C72.9238 30.6622 73.3772 29.7292 73.817 28.8206L73.9297 28.5832C75.1945 26.4713 76.6647 23.9829 78.8238 22.2559C79.1877 21.9934 79.5825 21.7728 79.9993 21.9449C80.0951 22.0348 80.2068 22.1904 80.2068 22.3457C80.2068 22.3951 80.1629 22.5259 80.1378 22.5667C79.5347 23.5413 78.9604 24.5643 78.4019 25.5466C77.3105 27.4866 76.1782 29.4918 74.7629 31.2521Z" fill="white"/>
</g>
<defs>
<clipPath id="clip0_2050_3768">
<rect width="89.4805" height="39.4833" fill="white"/>
</clipPath>
</defs>
</svg>
