<svg width="134" height="27" viewBox="0 0 134 27" fill="none" xmlns="http://www.w3.org/2000/svg">
<path opacity="0.6" d="M133.18 7.08662V20.5045H128.704V18.0632C128.325 18.9827 127.751 19.683 126.978 20.161C126.206 20.6373 125.25 20.8779 124.118 20.8779C123.106 20.8779 122.223 20.6273 121.468 20.1245C120.714 19.6216 120.132 18.9312 119.722 18.055C119.315 17.1787 119.11 16.1896 119.11 15.0809C119.096 13.9391 119.314 12.9135 119.758 12.0057C120.203 11.0979 120.832 10.3909 121.64 9.8814C122.45 9.37356 123.375 9.11798 124.41 9.11798C126.543 9.11798 127.973 10.0623 128.704 11.9509V7.08662H133.18ZM128.035 16.714C128.493 16.2609 128.719 15.6718 128.719 14.9531C128.719 14.2594 128.498 13.6918 128.053 13.257C127.61 12.8239 127.001 12.6048 126.238 12.6048C125.482 12.6048 124.88 12.8255 124.429 13.2687C123.977 13.7101 123.753 14.2827 123.753 14.9913C123.753 15.7 123.977 16.2775 124.429 16.7239C124.88 17.172 125.476 17.3944 126.219 17.3944C126.973 17.3928 127.578 17.1654 128.035 16.714ZM118.308 9.80671V13.8329C117.843 13.5209 117.242 13.3666 116.499 13.3666C115.525 13.3666 114.775 13.667 114.252 14.2694C113.727 14.8718 113.467 15.8078 113.467 17.0758V20.5045H108.991V9.60258H113.376V13.0678C113.618 11.8016 114.013 10.8672 114.556 10.2631C115.095 9.66067 115.794 9.36028 116.645 9.36028C117.291 9.36028 117.843 9.50964 118.308 9.80671ZM96.6318 20.0946C95.578 19.5735 94.7747 18.8599 94.2204 17.9521C93.6678 17.0443 93.389 16.0319 93.389 14.9133C93.389 13.7947 93.6645 12.7973 94.2204 11.9211C94.7764 11.0448 95.5747 10.3577 96.6252 9.85982C97.6707 9.36194 98.9204 9.11466 100.369 9.11466C101.818 9.11466 103.068 9.36194 104.115 9.85982C105.162 10.3577 105.96 11.0398 106.508 11.9111C107.057 12.7807 107.331 13.7798 107.331 14.9117C107.331 16.0286 107.057 17.0409 106.508 17.9487C105.96 18.8565 105.159 19.5702 104.105 20.0929C103.05 20.6141 101.805 20.8746 100.368 20.8746C98.9287 20.8746 97.684 20.6174 96.6318 20.0946ZM102.183 16.7887C102.628 16.3356 102.852 15.7365 102.852 14.9913C102.852 14.2462 102.63 13.652 102.183 13.2122C101.74 12.7708 101.134 12.55 100.368 12.55C99.5859 12.55 98.9752 12.7708 98.5304 13.2122C98.0856 13.6537 97.8649 14.2462 97.8649 14.9913C97.8649 15.7365 98.0856 16.3356 98.5304 16.7887C98.9735 17.2401 99.5859 17.4691 100.368 17.4691C101.134 17.4675 101.74 17.2401 102.183 16.7887ZM83.6504 20.0946C82.6032 19.5735 81.8132 18.8648 81.2855 17.9703C80.7577 17.0758 80.4922 16.0684 80.4922 14.9515C80.4922 13.8329 80.766 12.8322 81.3137 11.9509C81.863 11.0697 82.6663 10.376 83.7267 9.8731C84.7856 9.37024 86.0518 9.11964 87.5256 9.11964C89.3528 9.11964 90.8697 9.5113 92.0746 10.2946V13.7051C91.6497 13.4064 91.1535 13.1641 90.5875 12.9782C90.0216 12.7923 89.4159 12.6977 88.7686 12.6977C87.6351 12.6977 86.7505 12.9085 86.1116 13.3317C85.4726 13.7549 85.1507 14.3059 85.1507 14.9913C85.1507 15.6618 85.461 16.2095 86.0834 16.641C86.7041 17.0708 87.6036 17.2866 88.7869 17.2866C89.3943 17.2866 89.9951 17.1953 90.5875 17.0177C91.1767 16.8351 91.6862 16.6144 92.1111 16.3539V19.6532C90.7734 20.473 89.22 20.8829 87.4526 20.8829C85.9655 20.8779 84.6976 20.6174 83.6504 20.0946ZM70.7154 20.4863C69.728 20.2257 68.8384 19.8473 68.0468 19.3494V16.2559C68.6459 16.7273 69.4458 17.1156 70.4516 17.421C71.4556 17.7247 72.4265 17.8774 73.3658 17.8774C73.8056 17.8774 74.1359 17.8176 74.3599 17.7015C74.5856 17.5836 74.6985 17.4426 74.6985 17.2799C74.6985 17.094 74.6371 16.9397 74.5143 16.8152C74.3915 16.6891 74.1541 16.5862 73.8023 16.4982L71.61 15.9954C70.3553 15.6967 69.4641 15.2834 68.9347 14.754C68.4053 14.2262 68.1414 13.5342 68.1414 12.6778C68.1414 11.9559 68.3704 11.3302 68.8351 10.7942C69.2981 10.2598 69.9553 9.84654 70.8084 9.55611C71.6631 9.26402 72.6588 9.11798 73.8056 9.11798C74.8279 9.11798 75.7656 9.22917 76.6187 9.45322C77.4717 9.67727 78.177 9.96106 78.738 10.3096V13.2371C78.1637 12.8869 77.5049 12.6131 76.7547 12.4057C76.0046 12.1999 75.2362 12.1003 74.4413 12.1003C73.2961 12.1003 72.7252 12.2994 72.7252 12.6961C72.7252 12.882 72.8132 13.0214 72.9908 13.1143C73.1683 13.2072 73.4936 13.3035 73.9666 13.4047L75.7938 13.74C76.9871 13.9491 77.8766 14.3192 78.4608 14.8469C79.0467 15.3747 79.3387 16.1547 79.3387 17.187C79.3387 18.3188 78.8558 19.2167 77.8866 19.8822C76.919 20.5477 75.5449 20.8796 73.7658 20.8796C72.7186 20.8779 71.7012 20.7468 70.7154 20.4863ZM61.586 12.1717C62.9535 12.7724 64.6496 12.799 66.0486 12.1717V20.5626H61.586V12.1717ZM63.8198 10.7626C65.0512 10.7626 66.0503 9.84654 66.0503 8.71801C66.0503 7.58948 65.0512 6.67338 63.8198 6.67338C62.5867 6.67338 61.5876 7.58948 61.5876 8.71801C61.5876 9.84654 62.5867 10.7626 63.8198 10.7626ZM45.0098 7.45837H52.1345C53.8522 7.45837 55.3027 7.73221 56.4926 8.27822C57.6809 8.82423 58.5704 9.58599 59.1613 10.5602C59.7504 11.5344 60.0475 12.6513 60.0475 13.9076C60.0475 15.1374 59.7388 16.2526 59.1231 17.2517C58.5074 18.2524 57.5714 19.0424 56.3101 19.6266C55.0504 20.2091 53.4887 20.5029 51.6233 20.5029H45.0098V7.45837ZM51.5503 17.187C52.7054 17.187 53.5966 16.8916 54.2173 16.3041C54.838 15.7116 55.1483 14.9083 55.1483 13.8893C55.1483 12.9434 54.8712 12.1899 54.3185 11.6256C53.7659 11.0614 52.9278 10.7759 51.8076 10.7759H49.5787V17.187H51.5503ZM33.4606 22.2687C30.5862 24.4162 27.7997 25.7173 25.058 26.5687C24.3793 25.641 23.7801 24.6502 23.2607 23.6113C24.2456 23.2376 25.1948 22.776 26.097 22.2322C25.863 22.0563 25.6306 21.872 25.4032 21.6845C20.0079 24.2337 14.0764 24.2337 8.61634 21.6845C8.38964 21.8734 8.15776 22.0561 7.92096 22.2322C8.81715 22.7699 9.76478 23.2329 10.7539 23.608C10.2345 24.6502 9.63036 25.6377 8.9549 26.5671C6.21655 25.714 3.43173 24.4129 0.558955 22.2687C-0.0285453 15.9838 1.14645 9.60756 5.47802 3.06706C7.62721 2.06134 9.92577 1.32945 12.3305 0.914551C12.6276 1.44562 12.9794 2.16257 13.2168 2.73182C15.7228 2.34845 18.252 2.34845 20.8045 2.73182C21.0418 2.16257 21.387 1.44562 21.6807 0.914551C24.0822 1.32945 26.3791 2.05802 28.5266 3.06208C32.2823 8.66491 34.1494 14.983 33.4606 22.2687ZM14.4797 15.0146C14.5096 13.1508 13.1653 11.6223 11.4974 11.6223C9.82951 11.6223 8.51344 13.1525 8.51344 15.0146C8.51344 16.875 9.85772 18.4035 11.4974 18.4035C13.1653 18.4035 14.483 16.875 14.4797 15.0146ZM25.5045 15.0146C25.5344 13.1508 24.1901 11.6223 22.5222 11.6223C20.8543 11.6223 19.5382 13.1525 19.5382 15.0146C19.5382 16.875 20.8825 18.4035 22.5222 18.4035C24.1901 18.4035 25.5045 16.875 25.5045 15.0146Z" fill="white"/>
</svg>
