<svg width="55" height="48" viewBox="0 0 55 48" fill="none" xmlns="http://www.w3.org/2000/svg">
<circle cx="23.6709" cy="23.8828" r="23.3706" fill="#00D3EA" fill-opacity="0.1"/>
<path d="M29.5763 22.467C29.6088 22.792 29.3689 23.083 29.0454 23.1155C28.7203 23.148 28.4293 22.9081 28.3968 22.5846C28.3659 22.275 28.3411 21.9546 28.3256 21.6295C28.3071 21.2813 28.2993 20.9438 28.2993 20.6203C28.2993 17.0307 29.7544 13.78 32.1072 11.429C34.4585 9.07614 37.7107 7.62109 41.2985 7.62109C44.8881 7.62109 48.1388 9.07614 50.4915 11.429C52.8427 13.7802 54.2993 17.0325 54.2993 20.6203C54.2993 27.394 51.2267 30.307 47.795 33.5575C45.7162 35.528 43.4979 37.6299 41.8233 40.8326C41.6716 41.122 41.3141 41.235 41.0246 41.0833C40.9132 41.0245 40.828 40.9363 40.7739 40.8326C40.0959 39.5339 39.3266 38.4163 38.5155 37.4163C37.6502 37.6918 36.9242 38.0912 36.4072 38.5695C35.8918 39.0478 35.5899 39.6035 35.5899 40.1871C35.5899 41.009 36.1843 41.7752 37.1456 42.3526C38.1966 42.9826 39.6641 43.3742 41.2973 43.3742C42.9305 43.3742 44.3977 42.9826 45.4489 42.3526C46.4102 41.7768 47.0046 41.0075 47.0046 40.1871C47.0046 39.8589 46.9101 39.5401 46.7383 39.2413C46.5448 38.9085 46.2538 38.5943 45.8808 38.3141C45.6192 38.1175 45.5681 37.743 45.7647 37.4829C45.9613 37.2213 46.3358 37.1702 46.5959 37.3668C47.0912 37.7414 47.4906 38.1733 47.7646 38.6469C48.0432 39.1268 48.1933 39.6438 48.1933 40.1871C48.1933 41.4548 47.376 42.577 46.0572 43.368C44.8297 44.1048 43.1441 44.5614 41.2973 44.5614C39.4506 44.5614 37.765 44.1048 36.5374 43.368C35.2186 42.577 34.4013 41.4533 34.4013 40.1871C34.4013 39.2568 34.844 38.4039 35.6024 37.7012C36.1473 37.1966 36.8594 36.7693 37.6875 36.4489C36.7402 35.3947 35.7557 34.4614 34.8006 33.5558C32.5763 31.4476 30.5019 29.4819 29.3104 26.4647C29.1896 26.1598 29.3398 25.8146 29.6447 25.6938C29.9496 25.5731 30.2948 25.7233 30.4156 26.0282C31.5146 28.8051 33.4943 30.6843 35.6197 32.6981C36.793 33.8111 38.0096 34.9658 39.1613 36.3357L39.1969 36.379C39.9353 37.2629 40.6442 38.2334 41.299 39.3433C42.9816 36.489 45.0372 34.5386 46.9782 32.7011C50.2134 29.6347 53.1112 26.8871 53.1112 20.6214C53.1112 17.3599 51.7878 14.4064 49.6516 12.2705C47.514 10.1329 44.5604 8.81094 41.2992 8.81094C38.0379 8.81094 35.0842 10.1328 32.9483 12.2705C30.8107 14.4082 29.4887 17.3601 29.4887 20.6214C29.4887 20.9697 29.4965 21.2885 29.5104 21.5749C29.5259 21.8845 29.5475 22.1816 29.5769 22.4711L29.5763 22.467ZM48.3355 20.5584C48.3355 20.2303 48.6017 19.964 48.9299 19.964C49.258 19.964 49.5243 20.2303 49.5243 20.5584V20.676C49.5243 21.0042 49.258 21.2704 48.9299 21.2704C48.6017 21.2704 48.3355 21.0042 48.3355 20.676V20.5584ZM48.1265 22.3339C48.2054 22.0165 48.5289 21.823 48.8463 21.902C49.1636 21.981 49.3571 22.3045 49.2781 22.6218C48.8261 24.4267 47.7766 25.9962 46.3526 27.1059C44.9564 28.1941 43.2026 28.8427 41.3002 28.8427C39.0294 28.8427 36.9722 27.9217 35.4846 26.4341C33.9956 24.9451 33.0761 22.8894 33.0761 20.6186C33.0761 18.3478 33.9956 16.2906 35.4846 14.803C36.9737 13.3139 39.0293 12.3945 41.3002 12.3945C43.2026 12.3945 44.9564 13.043 46.3526 14.1312C47.7767 15.2411 48.8261 16.8106 49.2781 18.6153C49.3571 18.9326 49.1636 19.2562 48.8463 19.3351C48.529 19.414 48.2054 19.2206 48.1265 18.9032C47.7395 17.3585 46.8417 16.0148 45.6235 15.066C44.4332 14.1372 42.9333 13.5846 41.3019 13.5846C39.3593 13.5846 37.5993 14.3725 36.3268 15.6449C35.0543 16.9173 34.2665 18.6772 34.2665 20.62C34.2665 22.5626 35.0544 24.3226 36.3268 25.5951C37.5991 26.8676 39.3576 27.6553 41.3019 27.6553C42.9334 27.6553 44.4348 27.1027 45.6235 26.174C46.8402 25.2236 47.7395 23.88 48.1265 22.3352V22.3339ZM29.8813 24.3106C29.9541 24.631 29.7559 24.9483 29.4355 25.0211C29.1151 25.0938 28.7978 24.8957 28.725 24.5753L28.6971 24.4576C28.6244 24.1372 28.8225 23.8199 29.1429 23.7471C29.4634 23.6744 29.7807 23.8725 29.8534 24.1929L29.8813 24.3106Z" fill="#111111"/>
</svg>
