<svg width="139" height="28" viewBox="0 0 139 28" fill="none" xmlns="http://www.w3.org/2000/svg">
<g opacity="0.6" clip-path="url(#clip0_2050_3759)">
<path d="M16.1309 5.2043L8.06543 10.3524L16.1309 15.5006L8.06543 20.6487L0 15.4577L8.06543 10.3095L0 5.2043L8.06543 0.0561523L16.1309 5.2043ZM8.02253 22.279L16.088 17.1308L24.1534 22.279L16.088 27.4271L8.02253 22.279ZM16.1309 15.4577L24.1963 10.3095L16.1309 5.2043L24.1534 0.0561523L32.2188 5.2043L24.1534 10.3524L32.2188 15.5006L24.1534 20.6487L16.1309 15.4577Z" fill="white"/>
<path d="M38.5259 5.20438H45.0469C49.2083 5.20438 52.6404 7.60685 52.6404 13.0982V14.2565C52.6404 19.7908 49.4228 22.2791 45.1756 22.2791H38.5259V5.20438ZM42.1725 8.29327V19.1473H44.9611C47.3206 19.1473 48.908 17.6028 48.908 14.1707V13.2698C48.908 9.83772 47.2348 8.29327 44.8324 8.29327H42.1725ZM54.5709 8.46488H57.4882L57.9601 11.6825C58.5179 9.49451 59.9336 8.33617 62.5077 8.33617H63.4086V12.0257H61.9071C58.9469 12.0257 58.2175 13.0553 58.2175 15.9726V22.322H54.6138V8.46488H54.5709ZM64.1379 15.6723V15.2862C64.1379 10.6528 67.0981 8.12167 71.1308 8.12167C75.2493 8.12167 78.1237 10.6528 78.1237 15.2862V15.6723C78.1237 20.2198 75.3351 22.6652 71.1308 22.6652C66.6691 22.6223 64.1379 20.2198 64.1379 15.6723ZM74.4342 15.6294V15.2862C74.4342 12.7121 73.1472 11.1677 71.0879 11.1677C69.0716 11.1677 67.7416 12.5834 67.7416 15.2862V15.6294C67.7416 18.1177 69.0287 19.5334 71.0879 19.5334C73.1472 19.4905 74.4342 18.1177 74.4342 15.6294ZM80.0114 8.46488H83.0145L83.3577 11.0819C84.087 9.3229 85.6314 8.12167 87.9052 8.12167C91.4231 8.12167 93.7398 10.6528 93.7398 15.3291V15.7152C93.7398 20.2627 91.1657 22.6652 87.9052 22.6652C85.7172 22.6652 84.2157 21.6785 83.4864 20.0911V27.084H79.9685L80.0114 8.46488ZM90.0932 15.6294V15.3291C90.0932 12.5834 88.6774 11.2106 86.7898 11.2106C84.7734 11.2106 83.4435 12.755 83.4435 15.3291V15.5865C83.4435 18.0319 84.7305 19.5763 86.7469 19.5763C88.8061 19.5334 90.0932 18.2035 90.0932 15.6294ZM99.0595 19.7479L98.7592 22.2791H95.6703V3.83154H99.1882V10.9102C99.9604 9.1084 101.505 8.12167 103.693 8.12167C106.996 8.16457 109.442 10.4383 109.442 15.0288V15.4578C109.442 20.0482 107.125 22.6652 103.607 22.6652C101.29 22.6223 99.7888 21.5498 99.0595 19.7479ZM105.752 15.4578V15.1146C105.752 12.5834 104.379 11.1677 102.449 11.1677C100.475 11.1677 99.1024 12.755 99.1024 15.1575V15.4578C99.1024 18.0319 100.432 19.5334 102.406 19.5334C104.508 19.5334 105.752 18.2035 105.752 15.4578ZM110.986 15.6723V15.2862C110.986 10.6528 113.946 8.12167 117.979 8.12167C122.097 8.12167 124.972 10.6528 124.972 15.2862V15.6723C124.972 20.2198 122.14 22.6652 117.979 22.6652C113.517 22.6223 110.986 20.2198 110.986 15.6723ZM121.325 15.6294V15.2862C121.325 12.7121 120.038 11.1677 117.979 11.1677C115.963 11.1677 114.633 12.5834 114.633 15.2862V15.6294C114.633 18.1177 115.92 19.5334 117.979 19.5334C120.038 19.4905 121.325 18.1177 121.325 15.6294ZM129.691 15.1146L124.843 8.46488H129.005L131.793 12.6263L134.625 8.46488H138.743L133.81 15.0717L139.001 22.2791H134.925L131.75 17.6886L128.661 22.2791H124.414L129.691 15.1146Z" fill="white"/>
</g>
<defs>
<clipPath id="clip0_2050_3759">
<rect width="139" height="27.371" fill="white" transform="translate(0 0.0561523)"/>
</clipPath>
</defs>
</svg>
