<svg width="122" height="17" viewBox="0 0 122 17" fill="none" xmlns="http://www.w3.org/2000/svg">
<g opacity="0.6" clip-path="url(#clip0_2050_3754)">
<path d="M104.227 7.09994V16.6866H107.291V10.2955H118.498V16.6866H121.562V7.09994H104.227ZM106.941 3.99194H118.76C120.424 3.68551 121.606 2.19718 121.956 0.796387H103.746C104.096 2.19718 105.322 3.64174 106.941 3.99194ZM94.9031 16.6866C96.4353 16.03 97.267 14.8918 97.6172 13.5786H83.8282V0.840161H80.7201V16.6866H94.9031ZM57.7385 3.94816H68.6821C70.3456 3.46664 71.7026 2.19718 72.0528 0.840161H54.718V10.2079H68.901V13.491H57.7822C56.0312 13.9726 54.5429 15.1545 53.7987 16.6866H71.9652V7.09994H57.7822L57.7385 3.94816ZM30.7733 3.99194H42.5924C44.2559 3.68551 45.4815 2.19718 45.788 0.796387H27.5339C27.8841 2.19718 29.1098 3.64174 30.7733 3.99194ZM30.7733 10.2517H42.5924C44.2559 9.94529 45.4815 8.45695 45.788 7.05616H27.5339C27.8841 8.45695 29.1098 9.90152 30.7733 10.2517ZM30.7733 16.6866H42.5924C44.2559 16.3802 45.4815 14.8918 45.788 13.491H27.5339C27.8841 14.8918 29.1098 16.3802 30.7733 16.6866Z" fill="white"/>
<path d="M0 0.840161C0.350197 2.24095 1.57589 3.64174 3.19555 3.99194H8.18586L8.44851 4.07949V16.6428H11.5565V4.07949L11.8192 3.99194H16.8095C18.4729 3.55419 19.6548 2.24095 20.005 0.840161V0.796387L0 0.840161Z" fill="white"/>
</g>
<defs>
<clipPath id="clip0_2050_3754">
<rect width="122" height="15.9088" fill="white" transform="translate(0 0.787109)"/>
</clipPath>
</defs>
</svg>
