<svg width="72" height="72" viewBox="0 0 72 72" fill="none" xmlns="http://www.w3.org/2000/svg">
<mask id="path-1-outside-1_2050_6735" maskUnits="userSpaceOnUse" x="0" y="0" width="72" height="72" fill="black">
<rect fill="white" width="72" height="72"/>
<path d="M63.0068 1H8.99324C4.57978 1 1 4.57978 1 8.99324V63.0068C1 65.1242 1.84365 67.1588 3.34237 68.6576C4.84107 70.1563 6.87582 71 8.99324 71H63.0068C65.1242 71 67.1588 70.1563 68.6576 68.6576C70.1563 67.1589 71 65.1242 71 63.0068V8.99324C71 4.57978 67.4202 1 63.0068 1ZM8.99324 2.32338H57.8691L47.9469 10.8921C46.908 11.7887 45.5846 12.285 44.215 12.285H2.32321V8.99307C2.32983 5.31402 5.31419 2.32999 8.99324 2.32338ZM69.6766 63.0068C69.67 66.6858 66.6858 69.67 63.0068 69.6766H8.99324C5.31419 69.67 2.32999 66.6858 2.32338 63.0068V13.6016L44.2151 13.5983C45.9025 13.5983 47.5336 12.9895 48.8106 11.8878L59.9008 2.32304H63.0074C66.6865 2.32966 69.6707 5.31384 69.6773 8.99289L69.6766 63.0068ZM10.1773 10.4153H38.7692C40.2182 10.3326 41.3498 9.13493 41.3498 7.68247C41.3498 6.2334 40.2183 5.03571 38.7692 4.95296H10.1773C9.42627 4.90995 8.6885 5.17793 8.14263 5.69405C7.59673 6.21348 7.28575 6.93138 7.28575 7.68247C7.28575 8.4368 7.59675 9.15475 8.14263 9.67089C8.68852 10.187 9.42629 10.4583 10.1773 10.4153ZM10.1773 6.27642H38.7692C39.5036 6.33598 40.0694 6.94804 40.0694 7.68256C40.0694 8.42034 39.5037 9.03245 38.7692 9.09199H10.1773C9.78359 9.12177 9.39649 8.98612 9.10538 8.72145C8.81754 8.45346 8.65211 8.07629 8.65211 7.68256C8.65211 7.28882 8.81753 6.91499 9.10538 6.64697C9.39652 6.37898 9.78361 6.24665 10.1773 6.27642ZM21.8061 60.9752H21.8028C21.7995 61.3391 21.5051 61.6335 21.1411 61.6368C16.5986 61.6269 12.9196 57.9479 12.9096 53.4054V49.2863C12.9063 47.4237 12.152 45.6371 10.8187 44.3368L7.92372 41.5213H7.92703C7.79801 41.3989 7.72191 41.2269 7.72191 41.0449C7.72191 40.8662 7.798 40.6942 7.92703 40.5685L10.8187 37.7629C12.152 36.4627 12.9063 34.6795 12.9096 32.8134V28.7109C12.9163 24.1684 16.5986 20.4861 21.1411 20.4794C21.5084 20.4794 21.8028 20.7772 21.8028 21.1411C21.8028 21.5083 21.5084 21.8028 21.1411 21.8028C17.3298 21.8094 14.2397 24.8995 14.2331 28.7108V32.8066C14.2298 35.0233 13.3332 37.1473 11.7452 38.699L9.33655 41.0447L11.7452 43.3837C13.3299 44.9387 14.2265 47.0661 14.2331 49.286V53.3786C14.2397 57.1932 17.3298 60.2833 21.1411 60.2866C21.5051 60.2932 21.7995 60.5844 21.8028 60.9483L21.8061 60.9752ZM63.7834 40.5955H63.7801C63.9092 40.7212 63.9853 40.8932 63.9853 41.0719C63.9853 41.2538 63.9092 41.4259 63.7801 41.5483L60.8852 44.3638H60.8885C59.5552 45.664 58.8009 47.4506 58.7975 49.3133V53.3794C58.771 57.912 55.0954 61.5745 50.566 61.5844C50.1988 61.5844 49.9043 61.2899 49.9043 60.9227C49.9043 60.5587 50.1988 60.261 50.566 60.261C54.3774 60.2577 57.4674 57.1676 57.474 53.353V49.2869C57.4774 47.0669 58.374 44.9462 59.962 43.3945L62.3706 41.0488L59.962 38.7032V38.6999C58.374 37.1482 57.4774 35.0242 57.474 32.8075V28.7117C57.4674 24.9003 54.3774 21.8103 50.566 21.8037C50.1988 21.8037 49.9043 21.5092 49.9043 21.142C49.9043 20.778 50.1988 20.4803 50.566 20.4803C55.1086 20.4869 58.7908 24.1692 58.7975 28.7118V32.8076C58.7975 34.6736 59.5518 36.4602 60.8885 37.7637L63.7834 40.5955ZM19.9496 26.6832H39.9261C40.29 26.6832 40.5878 26.981 40.5878 27.3449C40.5878 27.7088 40.29 28.0066 39.9261 28.0066H19.9496C19.5856 28.0066 19.2879 27.7088 19.2879 27.3449C19.2879 26.981 19.5856 26.6832 19.9496 26.6832ZM34.6588 30.7063H52.0479C52.4118 30.7063 52.7096 31.0041 52.7096 31.368C52.7096 31.7319 52.4118 32.0297 52.0479 32.0297H34.6588C34.2916 32.0297 33.9971 31.7319 33.9971 31.368C33.9971 31.0041 34.2916 30.7063 34.6588 30.7063ZM19.2873 31.368C19.294 31.0041 19.5851 30.7096 19.949 30.7063H30.9858C31.3531 30.7063 31.6475 31.0041 31.6475 31.368C31.6475 31.7319 31.3531 32.0297 30.9858 32.0297H19.949C19.5851 32.0297 19.2873 31.7319 19.2873 31.368ZM19.2873 35.401C19.294 35.0371 19.5851 34.7426 19.949 34.7393H39.9256C40.2895 34.7393 40.5872 35.0337 40.5872 35.401C40.5872 35.7649 40.2895 36.0627 39.9256 36.0627H19.949C19.5851 36.0627 19.2873 35.7649 19.2873 35.401ZM52.7094 39.4307C52.7027 39.7946 52.4116 40.0891 52.0477 40.0924H47.0188C46.6516 40.0924 46.3571 39.7979 46.3571 39.4307C46.3571 39.0667 46.6516 38.769 47.0188 38.769H52.0477C52.4116 38.769 52.7094 39.0667 52.7094 39.4307ZM19.2873 39.4307C19.2873 39.0667 19.5851 38.769 19.949 38.769H43.3464C43.7137 38.769 44.0081 39.0667 44.0081 39.4307C44.0081 39.7979 43.7137 40.0924 43.3464 40.0924H19.949C19.5851 40.0891 19.2939 39.7946 19.2873 39.4307ZM19.2873 43.4538C19.294 43.0898 19.5851 42.7987 19.949 42.7921H39.9256C40.2895 42.7921 40.5872 43.0898 40.5872 43.4538C40.5872 43.821 40.2895 44.1154 39.9256 44.1154H19.949C19.5851 44.1154 19.2873 43.821 19.2873 43.4538ZM52.7094 47.4702C52.7027 47.8342 52.4116 48.1253 52.0477 48.1319H19.9494C19.5854 48.1319 19.2877 47.8342 19.2877 47.4702C19.2877 47.103 19.5854 46.8086 19.9494 46.8086H52.0477C52.4116 46.8086 52.7094 47.103 52.7094 47.4702ZM26.8142 52.1716C26.4503 52.1716 26.1525 51.8738 26.1525 51.5099C26.1525 51.146 26.4503 50.8482 26.8142 50.8482H39.9253C40.2892 50.8482 40.587 51.146 40.587 51.5099C40.587 51.8738 40.2892 52.1716 39.9253 52.1716H26.8142ZM19.2875 51.5099C19.2941 51.146 19.5853 50.8515 19.9492 50.8482H23.1451C23.5091 50.8482 23.8068 51.146 23.8068 51.5099C23.8068 51.8738 23.5091 52.1716 23.1451 52.1716H19.9492C19.5853 52.1716 19.2875 51.8738 19.2875 51.5099ZM19.2875 55.5429C19.2941 55.1789 19.5853 54.8845 19.9492 54.8812H52.0475C52.4114 54.8812 52.7092 55.1756 52.7092 55.5429C52.7092 55.9068 52.4114 56.2046 52.0475 56.2046H19.9492C19.5853 56.198 19.2941 55.9068 19.2875 55.5429Z"/>
</mask>
<path d="M63.0068 1H8.99324C4.57978 1 1 4.57978 1 8.99324V63.0068C1 65.1242 1.84365 67.1588 3.34237 68.6576C4.84107 70.1563 6.87582 71 8.99324 71H63.0068C65.1242 71 67.1588 70.1563 68.6576 68.6576C70.1563 67.1589 71 65.1242 71 63.0068V8.99324C71 4.57978 67.4202 1 63.0068 1ZM8.99324 2.32338H57.8691L47.9469 10.8921C46.908 11.7887 45.5846 12.285 44.215 12.285H2.32321V8.99307C2.32983 5.31402 5.31419 2.32999 8.99324 2.32338ZM69.6766 63.0068C69.67 66.6858 66.6858 69.67 63.0068 69.6766H8.99324C5.31419 69.67 2.32999 66.6858 2.32338 63.0068V13.6016L44.2151 13.5983C45.9025 13.5983 47.5336 12.9895 48.8106 11.8878L59.9008 2.32304H63.0074C66.6865 2.32966 69.6707 5.31384 69.6773 8.99289L69.6766 63.0068ZM10.1773 10.4153H38.7692C40.2182 10.3326 41.3498 9.13493 41.3498 7.68247C41.3498 6.2334 40.2183 5.03571 38.7692 4.95296H10.1773C9.42627 4.90995 8.6885 5.17793 8.14263 5.69405C7.59673 6.21348 7.28575 6.93138 7.28575 7.68247C7.28575 8.4368 7.59675 9.15475 8.14263 9.67089C8.68852 10.187 9.42629 10.4583 10.1773 10.4153ZM10.1773 6.27642H38.7692C39.5036 6.33598 40.0694 6.94804 40.0694 7.68256C40.0694 8.42034 39.5037 9.03245 38.7692 9.09199H10.1773C9.78359 9.12177 9.39649 8.98612 9.10538 8.72145C8.81754 8.45346 8.65211 8.07629 8.65211 7.68256C8.65211 7.28882 8.81753 6.91499 9.10538 6.64697C9.39652 6.37898 9.78361 6.24665 10.1773 6.27642ZM21.8061 60.9752H21.8028C21.7995 61.3391 21.5051 61.6335 21.1411 61.6368C16.5986 61.6269 12.9196 57.9479 12.9096 53.4054V49.2863C12.9063 47.4237 12.152 45.6371 10.8187 44.3368L7.92372 41.5213H7.92703C7.79801 41.3989 7.72191 41.2269 7.72191 41.0449C7.72191 40.8662 7.798 40.6942 7.92703 40.5685L10.8187 37.7629C12.152 36.4627 12.9063 34.6795 12.9096 32.8134V28.7109C12.9163 24.1684 16.5986 20.4861 21.1411 20.4794C21.5084 20.4794 21.8028 20.7772 21.8028 21.1411C21.8028 21.5083 21.5084 21.8028 21.1411 21.8028C17.3298 21.8094 14.2397 24.8995 14.2331 28.7108V32.8066C14.2298 35.0233 13.3332 37.1473 11.7452 38.699L9.33655 41.0447L11.7452 43.3837C13.3299 44.9387 14.2265 47.0661 14.2331 49.286V53.3786C14.2397 57.1932 17.3298 60.2833 21.1411 60.2866C21.5051 60.2932 21.7995 60.5844 21.8028 60.9483L21.8061 60.9752ZM63.7834 40.5955H63.7801C63.9092 40.7212 63.9853 40.8932 63.9853 41.0719C63.9853 41.2538 63.9092 41.4259 63.7801 41.5483L60.8852 44.3638H60.8885C59.5552 45.664 58.8009 47.4506 58.7975 49.3133V53.3794C58.771 57.912 55.0954 61.5745 50.566 61.5844C50.1988 61.5844 49.9043 61.2899 49.9043 60.9227C49.9043 60.5587 50.1988 60.261 50.566 60.261C54.3774 60.2577 57.4674 57.1676 57.474 53.353V49.2869C57.4774 47.0669 58.374 44.9462 59.962 43.3945L62.3706 41.0488L59.962 38.7032V38.6999C58.374 37.1482 57.4774 35.0242 57.474 32.8075V28.7117C57.4674 24.9003 54.3774 21.8103 50.566 21.8037C50.1988 21.8037 49.9043 21.5092 49.9043 21.142C49.9043 20.778 50.1988 20.4803 50.566 20.4803C55.1086 20.4869 58.7908 24.1692 58.7975 28.7118V32.8076C58.7975 34.6736 59.5518 36.4602 60.8885 37.7637L63.7834 40.5955ZM19.9496 26.6832H39.9261C40.29 26.6832 40.5878 26.981 40.5878 27.3449C40.5878 27.7088 40.29 28.0066 39.9261 28.0066H19.9496C19.5856 28.0066 19.2879 27.7088 19.2879 27.3449C19.2879 26.981 19.5856 26.6832 19.9496 26.6832ZM34.6588 30.7063H52.0479C52.4118 30.7063 52.7096 31.0041 52.7096 31.368C52.7096 31.7319 52.4118 32.0297 52.0479 32.0297H34.6588C34.2916 32.0297 33.9971 31.7319 33.9971 31.368C33.9971 31.0041 34.2916 30.7063 34.6588 30.7063ZM19.2873 31.368C19.294 31.0041 19.5851 30.7096 19.949 30.7063H30.9858C31.3531 30.7063 31.6475 31.0041 31.6475 31.368C31.6475 31.7319 31.3531 32.0297 30.9858 32.0297H19.949C19.5851 32.0297 19.2873 31.7319 19.2873 31.368ZM19.2873 35.401C19.294 35.0371 19.5851 34.7426 19.949 34.7393H39.9256C40.2895 34.7393 40.5872 35.0337 40.5872 35.401C40.5872 35.7649 40.2895 36.0627 39.9256 36.0627H19.949C19.5851 36.0627 19.2873 35.7649 19.2873 35.401ZM52.7094 39.4307C52.7027 39.7946 52.4116 40.0891 52.0477 40.0924H47.0188C46.6516 40.0924 46.3571 39.7979 46.3571 39.4307C46.3571 39.0667 46.6516 38.769 47.0188 38.769H52.0477C52.4116 38.769 52.7094 39.0667 52.7094 39.4307ZM19.2873 39.4307C19.2873 39.0667 19.5851 38.769 19.949 38.769H43.3464C43.7137 38.769 44.0081 39.0667 44.0081 39.4307C44.0081 39.7979 43.7137 40.0924 43.3464 40.0924H19.949C19.5851 40.0891 19.2939 39.7946 19.2873 39.4307ZM19.2873 43.4538C19.294 43.0898 19.5851 42.7987 19.949 42.7921H39.9256C40.2895 42.7921 40.5872 43.0898 40.5872 43.4538C40.5872 43.821 40.2895 44.1154 39.9256 44.1154H19.949C19.5851 44.1154 19.2873 43.821 19.2873 43.4538ZM52.7094 47.4702C52.7027 47.8342 52.4116 48.1253 52.0477 48.1319H19.9494C19.5854 48.1319 19.2877 47.8342 19.2877 47.4702C19.2877 47.103 19.5854 46.8086 19.9494 46.8086H52.0477C52.4116 46.8086 52.7094 47.103 52.7094 47.4702ZM26.8142 52.1716C26.4503 52.1716 26.1525 51.8738 26.1525 51.5099C26.1525 51.146 26.4503 50.8482 26.8142 50.8482H39.9253C40.2892 50.8482 40.587 51.146 40.587 51.5099C40.587 51.8738 40.2892 52.1716 39.9253 52.1716H26.8142ZM19.2875 51.5099C19.2941 51.146 19.5853 50.8515 19.9492 50.8482H23.1451C23.5091 50.8482 23.8068 51.146 23.8068 51.5099C23.8068 51.8738 23.5091 52.1716 23.1451 52.1716H19.9492C19.5853 52.1716 19.2875 51.8738 19.2875 51.5099ZM19.2875 55.5429C19.2941 55.1789 19.5853 54.8845 19.9492 54.8812H52.0475C52.4114 54.8812 52.7092 55.1756 52.7092 55.5429C52.7092 55.9068 52.4114 56.2046 52.0475 56.2046H19.9492C19.5853 56.198 19.2941 55.9068 19.2875 55.5429Z" fill="url(#paint0_linear_2050_6735)"/>
<path d="M19.2906 31.243H19.2873V31.493H19.2906V31.243ZM19.2906 35.276H19.2873V35.526H19.2906V35.276ZM52.8344 39.434V39.4307H52.5844V39.434H52.8344ZM19.379 39.3456L19.3757 39.3423L19.1989 39.5191L19.2023 39.5224L19.379 39.3456ZM19.379 43.3687L19.3757 43.3654L19.1989 43.5421L19.2023 43.5455L19.379 43.3687ZM3.34237 68.6576L3.16559 68.8344H3.16559L3.34237 68.6576ZM68.6576 68.6576L68.8344 68.8344V68.8344L68.6576 68.6576ZM8.99324 2.32338V2.07338L8.99279 2.07338L8.99324 2.32338ZM57.8691 2.32338L58.0325 2.51259L58.5411 2.07338H57.8691V2.32338ZM47.9469 10.8921L48.1102 11.0814L48.1103 11.0813L47.9469 10.8921ZM2.32321 12.285H2.07321V12.535H2.32321V12.285ZM2.32321 8.99307L2.07321 8.99262V8.99307H2.32321ZM69.6766 63.0068L69.9266 63.0072V63.0068L69.6766 63.0068ZM63.0068 69.6766V69.9266H63.0072L63.0068 69.6766ZM8.99324 69.6766L8.99279 69.9266H8.99324V69.6766ZM2.32338 63.0068H2.07338L2.07338 63.0072L2.32338 63.0068ZM2.32338 13.6016L2.32336 13.3516L2.07338 13.3516V13.6016H2.32338ZM44.2151 13.5983V13.3483H44.2151L44.2151 13.5983ZM48.8106 11.8878L48.6473 11.6985L48.6473 11.6985L48.8106 11.8878ZM59.9008 2.32304V2.07304H59.8079L59.7375 2.13372L59.9008 2.32304ZM63.0074 2.32304L63.0079 2.07304H63.0074V2.32304ZM69.6773 8.99289L69.9273 8.99289V8.99244L69.6773 8.99289ZM10.1773 10.4153V10.1653H10.1701L10.163 10.1657L10.1773 10.4153ZM38.7692 10.4153V10.6653H38.7763L38.7834 10.6649L38.7692 10.4153ZM38.7692 4.95296L38.7834 4.70336L38.7763 4.70296H38.7692V4.95296ZM10.1773 4.95296L10.163 5.20255L10.1701 5.20296H10.1773V4.95296ZM8.14263 5.69405L7.97087 5.51239L7.9703 5.51294L8.14263 5.69405ZM8.14263 9.67089L7.97087 9.85255L7.97087 9.85256L8.14263 9.67089ZM10.1773 6.27642L10.1584 6.52571L10.1679 6.52642H10.1773V6.27642ZM38.7692 6.27642L38.7894 6.02724L38.7793 6.02642H38.7692V6.27642ZM38.7692 9.09199V9.34199H38.7793L38.7894 9.34118L38.7692 9.09199ZM10.1773 9.09199V8.84199H10.1679L10.1584 8.8427L10.1773 9.09199ZM9.10538 8.72145L8.93501 8.90443L8.9372 8.90642L9.10538 8.72145ZM9.10538 6.64697L8.93606 6.46303L8.93501 6.46401L9.10538 6.64697ZM21.8061 60.9752V61.2252H22.0888L22.0543 60.9446L21.8061 60.9752ZM21.8028 60.9752V60.7252H21.5551L21.5528 60.9729L21.8028 60.9752ZM21.1411 61.6368L21.1406 61.8869L21.1434 61.8868L21.1411 61.6368ZM12.9096 53.4054H12.6596L12.6596 53.4059L12.9096 53.4054ZM12.9096 49.2863H13.1596V49.2859L12.9096 49.2863ZM10.8187 44.3368L10.9932 44.1578L10.993 44.1576L10.8187 44.3368ZM7.92372 41.5213V41.2713H7.30809L7.74942 41.7005L7.92372 41.5213ZM7.92703 41.5213V41.7713H8.55378L8.0991 41.34L7.92703 41.5213ZM7.92703 40.5685L7.75295 40.3891L7.75257 40.3894L7.92703 40.5685ZM10.8187 37.7629L10.9927 37.9423L10.9932 37.9419L10.8187 37.7629ZM12.9096 32.8134L13.1596 32.8139V32.8134H12.9096ZM12.9096 28.7109L12.6596 28.7105V28.7109H12.9096ZM21.1411 20.4794V20.2294L21.1408 20.2294L21.1411 20.4794ZM21.1411 21.8028V21.5528H21.1407L21.1411 21.8028ZM14.2331 28.7108L13.9831 28.7104V28.7108H14.2331ZM14.2331 32.8066L14.4831 32.807V32.8066H14.2331ZM11.7452 38.699L11.9196 38.8781L11.9199 38.8778L11.7452 38.699ZM9.33655 41.0447L9.16213 40.8656L8.97797 41.0449L9.16238 41.224L9.33655 41.0447ZM11.7452 43.3837L11.9202 43.2053L11.9193 43.2044L11.7452 43.3837ZM14.2331 49.286H14.4831L14.4831 49.2853L14.2331 49.286ZM14.2331 53.3786H13.9831L13.9831 53.379L14.2331 53.3786ZM21.1411 60.2866L21.1457 60.0366L21.1413 60.0366L21.1411 60.2866ZM21.8028 60.9483L21.5528 60.9506L21.553 60.9648L21.5547 60.9789L21.8028 60.9483ZM63.7834 40.5955V40.8455H64.3965L63.9583 40.4167L63.7834 40.5955ZM63.7801 40.5955V40.3455H63.1653L63.6057 40.7745L63.7801 40.5955ZM63.7801 41.5483L63.6081 41.3669L63.6058 41.3691L63.7801 41.5483ZM60.8852 44.3638L60.7109 44.1846L60.2696 44.6138H60.8852V44.3638ZM60.8885 44.3638L61.0631 44.5428L61.5029 44.1138H60.8885V44.3638ZM58.7975 49.3133L58.5475 49.3128V49.3133H58.7975ZM58.7975 53.3794L59.0475 53.3809V53.3794H58.7975ZM50.566 61.5844V61.8344L50.5666 61.8344L50.566 61.5844ZM50.566 60.261V60.511H50.5662L50.566 60.261ZM57.474 53.353L57.724 53.3534V53.353H57.474ZM57.474 49.2869L57.224 49.2865V49.2869H57.474ZM59.962 43.3945L59.7876 43.2154L59.7873 43.2157L59.962 43.3945ZM62.3706 41.0488L62.545 41.2279L62.7289 41.0488L62.545 40.8697L62.3706 41.0488ZM59.962 38.7032H59.712V38.8087L59.7876 38.8823L59.962 38.7032ZM59.962 38.6999H60.212V38.5946L60.1367 38.5211L59.962 38.6999ZM57.474 32.8075H57.224L57.2241 32.8079L57.474 32.8075ZM57.474 28.7117H57.7241L57.724 28.7113L57.474 28.7117ZM50.566 21.8037L50.5665 21.5537H50.566V21.8037ZM50.566 20.4803L50.5664 20.2303H50.566V20.4803ZM58.7975 28.7118H59.0475L59.0475 28.7114L58.7975 28.7118ZM60.8885 37.7637L61.0633 37.585L61.0631 37.5847L60.8885 37.7637ZM19.2873 31.368L19.0373 31.3634V31.368H19.2873ZM19.949 30.7063V30.4563L19.9468 30.4563L19.949 30.7063ZM19.2873 35.401L19.0373 35.3964V35.401H19.2873ZM19.949 34.7393V34.4893L19.9468 34.4893L19.949 34.7393ZM52.7094 39.4307L52.9594 39.4352V39.4307H52.7094ZM52.0477 40.0924V40.3424L52.0499 40.3424L52.0477 40.0924ZM19.2873 39.4307H19.0373L19.0374 39.4352L19.2873 39.4307ZM19.949 40.0924L19.9468 40.3424H19.949V40.0924ZM19.2873 43.4538L19.0373 43.4492V43.4538H19.2873ZM19.949 42.7921V42.542L19.9445 42.5421L19.949 42.7921ZM52.7094 47.4702L52.9594 47.4748V47.4702H52.7094ZM52.0477 48.1319V48.382L52.0522 48.3819L52.0477 48.1319ZM19.2875 51.5099L19.0375 51.5053V51.5099H19.2875ZM19.9492 50.8482V50.5982L19.9469 50.5982L19.9492 50.8482ZM19.2875 55.5429L19.0374 55.5383L19.0375 55.5474L19.2875 55.5429ZM19.9492 54.8812V54.6312L19.9469 54.6312L19.9492 54.8812ZM19.9492 56.2046L19.9447 56.4546H19.9492V56.2046ZM63.0068 0.75H8.99324V1.25H63.0068V0.75ZM8.99324 0.75C4.44171 0.75 0.75 4.44171 0.75 8.99324H1.25C1.25 4.71786 4.71786 1.25 8.99324 1.25V0.75ZM0.75 8.99324V63.0068H1.25V8.99324H0.75ZM0.75 63.0068C0.75 65.1906 1.62007 67.2888 3.16559 68.8344L3.51915 68.4809C2.06724 67.0289 1.25 65.0578 1.25 63.0068H0.75ZM3.16559 68.8344C4.71111 70.3799 6.80942 71.25 8.99324 71.25V70.75C6.94223 70.75 4.97104 69.9328 3.51914 68.4809L3.16559 68.8344ZM8.99324 71.25H63.0068V70.75H8.99324V71.25ZM63.0068 71.25C65.1906 71.25 67.2888 70.3799 68.8344 68.8344L68.4809 68.4809C67.0289 69.9328 65.0578 70.75 63.0068 70.75V71.25ZM68.8344 68.8344C70.3799 67.2889 71.25 65.1906 71.25 63.0068H70.75C70.75 65.0578 69.9328 67.029 68.4809 68.4809L68.8344 68.8344ZM71.25 63.0068V8.99324H70.75V63.0068H71.25ZM71.25 8.99324C71.25 4.44171 67.5583 0.75 63.0068 0.75V1.25C67.2822 1.25 70.75 4.71786 70.75 8.99324H71.25ZM8.99324 2.57338H57.8691V2.07338H8.99324V2.57338ZM57.7057 2.13417L47.7835 10.7029L48.1103 11.0813L58.0325 2.51259L57.7057 2.13417ZM47.7835 10.7029C46.7896 11.5607 45.5241 12.035 44.215 12.035V12.535C45.6451 12.535 47.0264 12.0168 48.1102 11.0814L47.7835 10.7029ZM44.215 12.035H2.32321V12.535H44.215V12.035ZM2.57321 12.285V8.99307H2.07321V12.285H2.57321ZM2.57321 8.99352C2.57958 5.4522 5.45234 2.57974 8.99369 2.57338L8.99279 2.07338C5.17603 2.08024 2.08008 5.17583 2.07321 8.99262L2.57321 8.99352ZM69.4266 63.0063C69.4202 66.5476 66.5476 69.4203 63.0063 69.4266L63.0072 69.9266C66.824 69.9198 69.9198 66.824 69.9266 63.0072L69.4266 63.0063ZM63.0068 69.4266H8.99324V69.9266H63.0068V69.4266ZM8.99369 69.4266C5.45236 69.4202 2.57974 66.5476 2.57338 63.0063L2.07338 63.0072C2.08024 66.824 5.17602 69.9198 8.99279 69.9266L8.99369 69.4266ZM2.57338 63.0068V13.6016H2.07338V63.0068H2.57338ZM2.3234 13.8516L44.2152 13.8483L44.2151 13.3483L2.32336 13.3516L2.3234 13.8516ZM44.2151 13.8483C45.9626 13.8483 47.6516 13.2178 48.9739 12.0771L48.6473 11.6985C47.4155 12.7612 45.8423 13.3483 44.2151 13.3483V13.8483ZM48.9739 12.0771L60.0641 2.51235L59.7375 2.13372L48.6473 11.6985L48.9739 12.0771ZM59.9008 2.57304H63.0074V2.07304H59.9008V2.57304ZM63.007 2.57304C66.5483 2.57941 69.4209 5.45201 69.4273 8.99334L69.9273 8.99244C69.9204 5.17567 66.8247 2.0799 63.0079 2.07304L63.007 2.57304ZM69.4273 8.99289L69.4266 63.0068L69.9266 63.0068L69.9273 8.99289L69.4273 8.99289ZM10.1773 10.6653H38.7692V10.1653H10.1773V10.6653ZM38.7834 10.6649C40.3648 10.5746 41.5998 9.26745 41.5998 7.68247H41.0998C41.0998 9.00242 40.0716 10.0905 38.7549 10.1657L38.7834 10.6649ZM41.5998 7.68247C41.5998 6.1007 40.3647 4.79366 38.7834 4.70336L38.7549 5.20255C40.0719 5.27775 41.0998 6.3661 41.0998 7.68247H41.5998ZM38.7692 4.70296H10.1773V5.20296H38.7692V4.70296ZM10.1916 4.70337C9.37222 4.65644 8.56703 4.94872 7.97087 5.5124L8.31439 5.87571C8.80996 5.40714 9.48033 5.16345 10.163 5.20255L10.1916 4.70337ZM7.9703 5.51294C7.3754 6.07899 7.03575 6.86211 7.03575 7.68247H7.53575C7.53575 7.00066 7.81806 6.34797 8.31496 5.87516L7.9703 5.51294ZM7.03575 7.68247C7.03575 8.50578 7.37523 9.28936 7.97087 9.85255L8.31439 9.48924C7.81827 9.02015 7.53575 8.36782 7.53575 7.68247H7.03575ZM7.97087 9.85256C8.5665 10.4157 9.37147 10.7118 10.1916 10.6649L10.163 10.1657C9.48111 10.2048 8.81054 9.95834 8.31438 9.48923L7.97087 9.85256ZM10.1773 6.52642H38.7692V6.02642H10.1773V6.52642ZM38.749 6.52561C39.3542 6.57468 39.8194 7.07887 39.8194 7.68256H40.3194C40.3194 6.81722 39.6531 6.09727 38.7894 6.02724L38.749 6.52561ZM39.8194 7.68256C39.8194 8.2899 39.3539 8.79378 38.749 8.84281L38.7894 9.34118C39.6535 9.27113 40.3194 8.55079 40.3194 7.68256H39.8194ZM38.7692 8.84199H10.1773V9.34199H38.7692V8.84199ZM10.1584 8.8427C9.83427 8.86722 9.51456 8.75559 9.27355 8.53647L8.9372 8.90642C9.27843 9.21666 9.73291 9.37632 10.1961 9.34128L10.1584 8.8427ZM9.27573 8.53847C9.03833 8.31744 8.90211 8.00639 8.90211 7.68256H8.40211C8.40211 8.14619 8.59676 8.58948 8.93502 8.90442L9.27573 8.53847ZM8.90211 7.68256C8.90211 7.35935 9.03786 7.05144 9.27574 6.82994L8.93501 6.46401C8.59721 6.77855 8.40211 7.21829 8.40211 7.68256H8.90211ZM9.27469 6.83091C9.51425 6.6104 9.83297 6.50109 10.1584 6.52571L10.1961 6.02714C9.73424 5.9922 9.27879 6.14756 8.93607 6.46303L9.27469 6.83091ZM21.8061 60.7252H21.8028V61.2252H21.8061V60.7252ZM21.5528 60.9729C21.5508 61.2005 21.3665 61.3848 21.1389 61.3869L21.1434 61.8868C21.6436 61.8823 22.0483 61.4776 22.0528 60.9774L21.5528 60.9729ZM21.1417 61.3868C16.7368 61.3772 13.1693 57.8097 13.1596 53.4048L12.6596 53.4059C12.6699 58.0861 16.4604 61.8766 21.1406 61.8868L21.1417 61.3868ZM13.1596 53.4054V49.2863H12.6596V53.4054H13.1596ZM13.1596 49.2859C13.1562 47.3561 12.3747 45.5051 10.9932 44.1578L10.6441 44.5158C11.9293 45.7691 12.6565 47.4913 12.6596 49.2868L13.1596 49.2859ZM10.993 44.1576L8.09802 41.3421L7.74942 41.7005L10.6444 44.516L10.993 44.1576ZM7.92372 41.7713H7.92703V41.2713H7.92372V41.7713ZM8.0991 41.34C8.01894 41.2639 7.97191 41.1571 7.97191 41.0449H7.47191C7.47191 41.2967 7.57707 41.5339 7.75497 41.7027L8.0991 41.34ZM7.97191 41.0449C7.97191 40.9373 8.01814 40.8288 8.1015 40.7475L7.75257 40.3894C7.57786 40.5597 7.47191 40.7952 7.47191 41.0449H7.97191ZM8.10112 40.7479L10.9927 37.9423L10.6446 37.5835L7.75295 40.3891L8.10112 40.7479ZM10.9932 37.9419C12.3746 36.5947 13.1561 34.7471 13.1596 32.8139L12.6596 32.813C12.6564 34.6118 11.9293 36.3306 10.6441 37.5839L10.9932 37.9419ZM13.1596 32.8134V28.7109H12.6596V32.8134H13.1596ZM13.1596 28.7113C13.1661 24.3065 16.7368 20.7359 21.1415 20.7294L21.1408 20.2294C16.4605 20.2363 12.6665 24.0302 12.6596 28.7105L13.1596 28.7113ZM21.1411 20.7294C21.3695 20.7294 21.5528 20.9144 21.5528 21.1411H22.0528C22.0528 20.6399 21.6473 20.2294 21.1411 20.2294V20.7294ZM21.5528 21.1411C21.5528 21.3703 21.3703 21.5528 21.1411 21.5528V22.0528C21.6464 22.0528 22.0528 21.6464 22.0528 21.1411H21.5528ZM21.1407 21.5528C17.1916 21.5596 13.99 24.7613 13.9831 28.7104L14.4831 28.7112C14.4895 25.0376 17.468 22.0592 21.1416 22.0528L21.1407 21.5528ZM13.9831 28.7108V32.8066H14.4831V28.7108H13.9831ZM13.9831 32.8063C13.9799 34.9557 13.1105 37.0154 11.5704 38.5202L11.9199 38.8778C13.5559 37.2793 14.4797 35.091 14.4831 32.807L13.9831 32.8063ZM11.5707 38.5199L9.16213 40.8656L9.51098 41.2238L11.9196 38.8781L11.5707 38.5199ZM9.16238 41.224L11.571 43.5631L11.9193 43.2044L9.51072 40.8653L9.16238 41.224ZM11.5701 43.5622C13.1071 45.0703 13.9767 47.1337 13.9831 49.2868L14.4831 49.2853C14.4763 46.9985 13.5527 44.8071 11.9202 43.2053L11.5701 43.5622ZM13.9831 49.286V53.3786H14.4831V49.286H13.9831ZM13.9831 53.379C13.99 57.3313 17.1916 60.5332 21.1409 60.5366L21.1413 60.0366C17.468 60.0334 14.4895 57.0552 14.4831 53.3782L13.9831 53.379ZM21.1366 60.5366C21.3681 60.5408 21.5508 60.725 21.5528 60.9506L22.0528 60.946C22.0482 60.4438 21.6421 60.0457 21.1457 60.0367L21.1366 60.5366ZM21.5547 60.9789L21.558 61.0057L22.0543 60.9446L22.051 60.9178L21.5547 60.9789ZM63.7834 40.3455H63.7801V40.8455H63.7834V40.3455ZM63.6057 40.7745C63.689 40.8557 63.7353 40.9642 63.7353 41.0719H64.2353C64.2353 40.8222 64.1293 40.5866 63.9546 40.4164L63.6057 40.7745ZM63.7353 41.0719C63.7353 41.1841 63.6882 41.2909 63.6081 41.3669L63.9522 41.7297C64.1301 41.5609 64.2353 41.3236 64.2353 41.0719H63.7353ZM63.6058 41.3691L60.7109 44.1846L61.0595 44.543L63.9544 41.7275L63.6058 41.3691ZM60.8852 44.6138H60.8885V44.1138H60.8852V44.6138ZM60.714 44.1848C59.3325 45.5321 58.551 47.3829 58.5475 49.3128L59.0475 49.3137C59.0508 47.5182 59.778 45.796 61.0631 44.5428L60.714 44.1848ZM58.5475 49.3133V53.3794H59.0475V49.3133H58.5475ZM58.5475 53.3779C58.5219 57.7733 54.9574 61.3248 50.5655 61.3344L50.5666 61.8344C55.2333 61.8242 59.0202 58.0507 59.0475 53.3809L58.5475 53.3779ZM50.566 61.3344C50.3369 61.3344 50.1543 61.1518 50.1543 60.9227H49.6543C49.6543 61.428 50.0607 61.8344 50.566 61.8344V61.3344ZM50.1543 60.9227C50.1543 60.696 50.3377 60.511 50.566 60.511V60.011C50.0599 60.011 49.6543 60.4215 49.6543 60.9227H50.1543ZM50.5662 60.511C54.5156 60.5076 57.7172 57.3057 57.724 53.3534L57.2241 53.3525C57.2177 57.0296 54.2391 60.0078 50.5658 60.011L50.5662 60.511ZM57.724 53.353V49.2869H57.224V53.353H57.724ZM57.724 49.2872C57.7273 47.1346 58.5966 45.0781 60.1367 43.5733L59.7873 43.2157C58.1513 44.8142 57.2275 46.9992 57.2241 49.2865L57.724 49.2872ZM60.1364 43.5736L62.545 41.2279L62.1962 40.8697L59.7876 43.2154L60.1364 43.5736ZM62.545 40.8697L60.1364 38.5241L59.7876 38.8823L62.1962 41.2279L62.545 40.8697ZM60.212 38.7032V38.6999H59.712V38.7032H60.212ZM60.1367 38.5211C58.5966 37.0163 57.7273 34.9566 57.724 32.8072L57.2241 32.8079C57.2275 35.0919 58.1513 37.2802 59.7873 38.8787L60.1367 38.5211ZM57.724 32.8075V28.7117H57.224V32.8075H57.724ZM57.724 28.7113C57.7172 24.7622 54.5155 21.5605 50.5665 21.5537L50.5656 22.0537C54.2392 22.06 57.2177 25.0385 57.2241 28.7121L57.724 28.7113ZM50.566 21.5537C50.3369 21.5537 50.1543 21.3711 50.1543 21.142H49.6543C49.6543 21.6473 50.0607 22.0537 50.566 22.0537V21.5537ZM50.1543 21.142C50.1543 20.9153 50.3377 20.7303 50.566 20.7303V20.2303C50.0599 20.2303 49.6543 20.6408 49.6543 21.142H50.1543ZM50.5657 20.7303C54.9704 20.7367 58.541 24.3074 58.5475 28.7121L59.0475 28.7114C59.0406 24.0311 55.2467 20.2371 50.5664 20.2303L50.5657 20.7303ZM58.5475 28.7118V32.8076H59.0475V28.7118H58.5475ZM58.5475 32.8076C58.5475 34.7411 59.3291 36.5922 60.714 37.9427L61.0631 37.5847C59.7745 36.3281 59.0475 34.606 59.0475 32.8076H58.5475ZM60.7137 37.9424L63.6086 40.7742L63.9583 40.4167L61.0633 37.585L60.7137 37.9424ZM19.9496 26.9332H39.9261V26.4332H19.9496V26.9332ZM39.9261 26.9332C40.152 26.9332 40.3378 27.119 40.3378 27.3449H40.8378C40.8378 26.8429 40.4281 26.4332 39.9261 26.4332V26.9332ZM40.3378 27.3449C40.3378 27.5708 40.152 27.7566 39.9261 27.7566V28.2566C40.4281 28.2566 40.8378 27.8469 40.8378 27.3449H40.3378ZM39.9261 27.7566H19.9496V28.2566H39.9261V27.7566ZM19.9496 27.7566C19.7237 27.7566 19.5379 27.5708 19.5379 27.3449H19.0379C19.0379 27.8469 19.4476 28.2566 19.9496 28.2566V27.7566ZM19.5379 27.3449C19.5379 27.119 19.7237 26.9332 19.9496 26.9332V26.4332C19.4476 26.4332 19.0379 26.8429 19.0379 27.3449H19.5379ZM34.6588 30.9563H52.0479V30.4563H34.6588V30.9563ZM52.0479 30.9563C52.2737 30.9563 52.4596 31.1421 52.4596 31.368H52.9596C52.9596 30.866 52.5499 30.4563 52.0479 30.4563V30.9563ZM52.4596 31.368C52.4596 31.5939 52.2737 31.7797 52.0479 31.7797V32.2797C52.5499 32.2797 52.9596 31.87 52.9596 31.368H52.4596ZM52.0479 31.7797H34.6588V32.2797H52.0479V31.7797ZM34.6588 31.7797C34.4305 31.7797 34.2471 31.5947 34.2471 31.368H33.7471C33.7471 31.8692 34.1527 32.2797 34.6588 32.2797V31.7797ZM34.2471 31.368C34.2471 31.1413 34.4305 30.9563 34.6588 30.9563V30.4563C34.1527 30.4563 33.7471 30.8668 33.7471 31.368H34.2471ZM19.5373 31.3725C19.5415 31.1411 19.7257 30.9583 19.9513 30.9563L19.9468 30.4563C19.4445 30.4609 19.0464 30.867 19.0374 31.3634L19.5373 31.3725ZM19.949 30.9563H30.9858V30.4563H19.949V30.9563ZM30.9858 30.9563C31.2142 30.9563 31.3975 31.1413 31.3975 31.368H31.8975C31.8975 30.8668 31.4919 30.4563 30.9858 30.4563V30.9563ZM31.3975 31.368C31.3975 31.5947 31.2142 31.7797 30.9858 31.7797V32.2797C31.4919 32.2797 31.8975 31.8692 31.8975 31.368H31.3975ZM30.9858 31.7797H19.949V32.2797H30.9858V31.7797ZM19.949 31.7797C19.7232 31.7797 19.5373 31.5939 19.5373 31.368H19.0373C19.0373 31.87 19.447 32.2797 19.949 32.2797V31.7797ZM19.5373 35.4055C19.5415 35.1741 19.7257 34.9913 19.9513 34.9893L19.9468 34.4893C19.4445 34.4939 19.0464 34.9 19.0374 35.3964L19.5373 35.4055ZM19.949 34.9893H39.9256V34.4893H19.949V34.9893ZM39.9256 34.9893C40.1522 34.9893 40.3372 35.1726 40.3372 35.401H40.8372C40.8372 34.8949 40.4267 34.4893 39.9256 34.4893V34.9893ZM40.3372 35.401C40.3372 35.6268 40.1514 35.8127 39.9256 35.8127V36.3127C40.4276 36.3127 40.8372 35.903 40.8372 35.401H40.3372ZM39.9256 35.8127H19.949V36.3127H39.9256V35.8127ZM19.949 35.8127C19.7232 35.8127 19.5373 35.6268 19.5373 35.401H19.0373C19.0373 35.903 19.447 36.3127 19.949 36.3127V35.8127ZM52.4594 39.4261C52.4552 39.6576 52.271 39.8403 52.0454 39.8424L52.0499 40.3424C52.5522 40.3378 52.9503 39.9316 52.9593 39.4352L52.4594 39.4261ZM52.0477 39.8424H47.0188V40.3424H52.0477V39.8424ZM47.0188 39.8424C46.7896 39.8424 46.6071 39.6598 46.6071 39.4307H46.1071C46.1071 39.936 46.5135 40.3424 47.0188 40.3424V39.8424ZM46.6071 39.4307C46.6071 39.204 46.7905 39.019 47.0188 39.019V38.519C46.5127 38.519 46.1071 38.9295 46.1071 39.4307H46.6071ZM47.0188 39.019H52.0477V38.519H47.0188V39.019ZM52.0477 39.019C52.2735 39.019 52.4594 39.2048 52.4594 39.4307H52.9594C52.9594 38.9287 52.5497 38.519 52.0477 38.519V39.019ZM19.5373 39.4307C19.5373 39.2048 19.7232 39.019 19.949 39.019V38.519C19.447 38.519 19.0373 38.9287 19.0373 39.4307H19.5373ZM19.949 39.019H43.3464V38.519H19.949V39.019ZM43.3464 39.019C43.5748 39.019 43.7581 39.204 43.7581 39.4307H44.2581C44.2581 38.9295 43.8526 38.519 43.3464 38.519V39.019ZM43.7581 39.4307C43.7581 39.6598 43.5756 39.8424 43.3464 39.8424V40.3424C43.8518 40.3424 44.2581 39.936 44.2581 39.4307H43.7581ZM43.3464 39.8424H19.949V40.3424H43.3464V39.8424ZM19.9513 39.8424C19.7257 39.8403 19.5415 39.6576 19.5373 39.4261L19.0374 39.4352C19.0464 39.9316 19.4445 40.3378 19.9468 40.3424L19.9513 39.8424ZM19.5373 43.4583C19.5415 43.2289 19.7242 43.0462 19.9536 43.042L19.9445 42.5421C19.446 42.5512 19.0464 42.9508 19.0374 43.4492L19.5373 43.4583ZM19.949 43.0421H39.9256V42.5421H19.949V43.0421ZM39.9256 43.0421C40.1514 43.0421 40.3372 43.2279 40.3372 43.4538H40.8372C40.8372 42.9518 40.4276 42.5421 39.9256 42.5421V43.0421ZM40.3372 43.4538C40.3372 43.6821 40.1522 43.8654 39.9256 43.8654V44.3654C40.4267 44.3654 40.8372 43.9599 40.8372 43.4538H40.3372ZM39.9256 43.8654H19.949V44.3654H39.9256V43.8654ZM19.949 43.8654C19.7224 43.8654 19.5373 43.6821 19.5373 43.4538H19.0373C19.0373 43.9599 19.4478 44.3654 19.949 44.3654V43.8654ZM52.4594 47.4657C52.4552 47.6951 52.2725 47.8778 52.0431 47.882L52.0522 48.3819C52.5507 48.3728 52.9503 47.9732 52.9593 47.4748L52.4594 47.4657ZM52.0477 47.8819H19.9494V48.3819H52.0477V47.8819ZM19.9494 47.8819C19.7235 47.8819 19.5377 47.6961 19.5377 47.4702H19.0377C19.0377 47.9722 19.4474 48.3819 19.9494 48.3819V47.8819ZM19.5377 47.4702C19.5377 47.2419 19.7227 47.0586 19.9494 47.0586V46.5586C19.4482 46.5586 19.0377 46.9641 19.0377 47.4702H19.5377ZM19.9494 47.0586H52.0477V46.5586H19.9494V47.0586ZM52.0477 47.0586C52.2743 47.0586 52.4594 47.2419 52.4594 47.4702H52.9594C52.9594 46.9641 52.5489 46.5586 52.0477 46.5586V47.0586ZM26.8142 51.9216C26.5884 51.9216 26.4025 51.7358 26.4025 51.5099H25.9025C25.9025 52.0119 26.3122 52.4216 26.8142 52.4216V51.9216ZM26.4025 51.5099C26.4025 51.284 26.5884 51.0982 26.8142 51.0982V50.5982C26.3122 50.5982 25.9025 51.0079 25.9025 51.5099H26.4025ZM26.8142 51.0982H39.9253V50.5982H26.8142V51.0982ZM39.9253 51.0982C40.1511 51.0982 40.337 51.284 40.337 51.5099H40.837C40.837 51.0079 40.4273 50.5982 39.9253 50.5982V51.0982ZM40.337 51.5099C40.337 51.7358 40.1511 51.9216 39.9253 51.9216V52.4216C40.4273 52.4216 40.837 52.0119 40.837 51.5099H40.337ZM39.9253 51.9216H26.8142V52.4216H39.9253V51.9216ZM19.5375 51.5144C19.5417 51.283 19.7259 51.1002 19.9515 51.0982L19.9469 50.5982C19.4447 50.6028 19.0466 51.0089 19.0375 51.5053L19.5375 51.5144ZM19.9492 51.0982H23.1451V50.5982H19.9492V51.0982ZM23.1451 51.0982C23.371 51.0982 23.5568 51.284 23.5568 51.5099H24.0568C24.0568 51.0079 23.6471 50.5982 23.1451 50.5982V51.0982ZM23.5568 51.5099C23.5568 51.7358 23.371 51.9216 23.1451 51.9216V52.4216C23.6471 52.4216 24.0568 52.0119 24.0568 51.5099H23.5568ZM23.1451 51.9216H19.9492V52.4216H23.1451V51.9216ZM19.9492 51.9216C19.7233 51.9216 19.5375 51.7358 19.5375 51.5099H19.0375C19.0375 52.0119 19.4472 52.4216 19.9492 52.4216V51.9216ZM19.5375 55.5474C19.5417 55.316 19.7259 55.1332 19.9515 55.1312L19.9469 54.6312C19.4447 54.6358 19.0466 55.0419 19.0375 55.5383L19.5375 55.5474ZM19.9492 55.1312H52.0475V54.6312H19.9492V55.1312ZM52.0475 55.1312C52.2742 55.1312 52.4592 55.3145 52.4592 55.5429H52.9592C52.9592 55.0368 52.5487 54.6312 52.0475 54.6312V55.1312ZM52.4592 55.5429C52.4592 55.7687 52.2734 55.9546 52.0475 55.9546V56.4546C52.5495 56.4546 52.9592 56.0449 52.9592 55.5429H52.4592ZM52.0475 55.9546H19.9492V56.4546H52.0475V55.9546ZM19.9537 55.9546C19.7243 55.9504 19.5416 55.7678 19.5375 55.5383L19.0375 55.5474C19.0466 56.0459 19.4462 56.4455 19.9447 56.4545L19.9537 55.9546Z" fill="url(#paint1_linear_2050_6735)" mask="url(#path-1-outside-1_2050_6735)"/>
<defs>
<linearGradient id="paint0_linear_2050_6735" x1="1" y1="1" x2="71" y2="71" gradientUnits="userSpaceOnUse">
<stop stop-color="#00D3EA"/>
<stop offset="1" stop-color="#4078BC"/>
</linearGradient>
<linearGradient id="paint1_linear_2050_6735" x1="1" y1="1" x2="71" y2="71" gradientUnits="userSpaceOnUse">
<stop stop-color="#00D3EA"/>
<stop offset="1" stop-color="#4078BC"/>
</linearGradient>
</defs>
</svg>
