<svg width="63" height="70" viewBox="0 0 63 70" fill="none" xmlns="http://www.w3.org/2000/svg">
<path d="M48.0373 42.1947C48.1455 41.9783 48.3619 41.6537 48.5783 41.3291C50.4175 38.0834 51.2831 34.2967 51.1749 30.51C50.6339 20.4481 42.7359 12.442 32.6741 11.7928C21.0976 10.9273 11.3604 20.1236 11.3604 31.5919C11.3604 33.8639 11.7931 36.1359 12.5505 38.4079L14.1733 41.6537C14.3897 42.0865 14.7143 42.5192 14.9307 43.0602L15.0389 43.1684C17.3109 47.2797 19.1501 51.7155 20.4484 56.476H16.7699V58.0988H20.8812C21.0976 58.748 21.2058 59.5053 21.314 60.1545H17.96V61.7773H21.5304C21.6386 62.3183 21.6386 62.8593 21.7467 63.4002C21.9631 64.8067 23.1532 65.8886 24.5597 65.9968C24.9925 68.2688 27.5891 69.9999 30.943 69.9999C34.1888 69.9999 36.8936 68.2688 37.3263 65.9968H37.6509C39.1656 65.9968 40.3557 64.9149 40.5721 63.4002C40.5721 63.1838 40.6803 62.9675 40.6803 62.7511C40.6803 62.4265 40.7885 62.1019 40.8967 61.7773H44.467V60.1545H41.2212C41.3294 59.5053 41.5458 58.748 41.654 58.0988H45.7653V56.476H42.0868C43.4933 51.2828 45.4407 46.5223 48.0373 42.1947ZM16.4454 42.1947C16.1208 41.6537 15.9044 41.2209 15.688 40.8964L14.0651 37.7588C13.3078 35.8113 12.9832 33.6475 12.9832 31.5919C12.9832 21.0973 21.8549 12.6583 32.4577 13.4157C41.654 13.9566 49.011 21.4219 49.4438 30.6182C49.6602 34.0803 48.7947 37.5424 47.1718 40.4636L47.0636 40.5718C46.8472 40.7882 46.739 41.1127 46.6308 41.3291C43.926 45.8732 41.8704 50.9582 40.4639 56.3678H22.1795C20.773 51.3909 18.9338 46.6305 16.4454 42.1947ZM31.0512 68.2688C28.7792 68.2688 26.8318 67.2951 26.399 65.8886H35.7035C35.2707 67.2951 33.3233 68.2688 31.0512 68.2688ZM39.1656 62.4265C39.1656 62.6429 39.0574 62.8593 39.0574 63.1838C38.9492 63.833 38.4083 64.3739 37.7591 64.3739H24.7761C24.127 64.3739 23.4778 63.833 23.4778 63.1838C23.3696 62.6429 23.3696 62.2101 23.2614 61.7773H39.2738C39.2738 61.9937 39.1656 62.2101 39.1656 62.4265ZM39.5984 60.1545H23.045C22.9369 59.5053 22.7205 58.748 22.6123 58.0988H40.1393C39.9229 58.748 39.7066 59.3971 39.5984 60.1545Z" fill="url(#paint0_linear_2050_6716)"/>
<path d="M23.6587 10.014L22.0029 6.01562L20.5036 6.63654L22.1593 10.6349L23.6587 10.014Z" fill="url(#paint1_linear_2050_6716)"/>
<path d="M10.7411 21.7592L6.74316 20.1025L6.12193 21.6018L10.1198 23.2584L10.7411 21.7592Z" fill="url(#paint2_linear_2050_6716)"/>
<path d="M10.0247 39.1485L6.02637 40.8047L6.64744 42.3041L10.6458 40.6479L10.0247 39.1485Z" fill="url(#paint3_linear_2050_6716)"/>
<path d="M51.9441 41.0317L55.9424 42.6875L56.5633 41.1881L52.565 39.5324L51.9441 41.0317Z" fill="url(#paint4_linear_2050_6716)"/>
<path d="M52.7878 23.6333L56.7861 21.9775L56.1652 20.4782L52.1669 22.1339L52.7878 23.6333Z" fill="url(#paint5_linear_2050_6716)"/>
<path d="M42.6459 6.74396L41.1465 6.12305L39.4907 10.1214L40.9901 10.7423L42.6459 6.74396Z" fill="url(#paint6_linear_2050_6716)"/>
<path d="M32.3494 0H30.7266V8.76352H32.3494V0Z" fill="url(#paint7_linear_2050_6716)"/>
<path d="M16.0834 14.602L9.88672 8.40527L8.73918 9.55281L14.9359 15.7495L16.0834 14.602Z" fill="url(#paint8_linear_2050_6716)"/>
<path d="M8.76352 30.4023H0V32.0252H8.76352V30.4023Z" fill="url(#paint9_linear_2050_6716)"/>
<path d="M8.43938 52.9267L9.58691 54.0742L15.7836 47.8775L14.6361 46.73L8.43938 52.9267Z" fill="url(#paint10_linear_2050_6716)"/>
<path d="M46.7224 48.1139L52.9199 54.3105L54.0675 53.1628L47.8699 46.9662L46.7224 48.1139Z" fill="url(#paint11_linear_2050_6716)"/>
<path d="M62.8592 30.7266H54.0957V32.3494H62.8592V30.7266Z" fill="url(#paint12_linear_2050_6716)"/>
<path d="M54.3477 9.88386L53.2002 8.73633L47.0035 14.933L48.151 16.0806L54.3477 9.88386Z" fill="url(#paint13_linear_2050_6716)"/>
<path d="M43.7099 32.674H47.172V31.1593H43.7099C43.2771 24.8842 38.3003 19.7992 31.917 19.3664V15.9043H30.2941V19.3664C23.9108 19.7992 18.8258 24.776 18.5012 31.1593H15.0391V32.7822H18.5012C18.934 39.0573 24.019 44.1423 30.4023 44.5751V48.0372H32.0252V44.5751C38.3003 44.1423 43.2771 39.0573 43.7099 32.674ZM20.1241 32.7822H22.3961V31.1593H20.1241C20.5568 25.7497 24.8845 21.3139 30.2941 20.9893V23.2613H31.917V20.9893C37.3265 21.4221 41.6542 25.7497 42.087 31.1593H39.815V32.7822H42.087C41.6542 38.1918 37.3265 42.5194 31.917 42.9522V40.6802H30.2941V42.9522C24.8845 42.5194 20.5568 38.1918 20.1241 32.7822Z" fill="url(#paint14_linear_2050_6716)"/>
<defs>
<linearGradient id="paint0_linear_2050_6716" x1="11.3604" y1="11.7363" x2="65.6461" y2="48.841" gradientUnits="userSpaceOnUse">
<stop stop-color="#00D3EA"/>
<stop offset="1" stop-color="#4078BC"/>
</linearGradient>
<linearGradient id="paint1_linear_2050_6716" x1="22.0029" y1="6.01563" x2="19.7822" y2="8.09024" gradientUnits="userSpaceOnUse">
<stop stop-color="#00D3EA"/>
<stop offset="1" stop-color="#4078BC"/>
</linearGradient>
<linearGradient id="paint2_linear_2050_6716" x1="6.74316" y1="20.1025" x2="6.63966" y2="23.1398" gradientUnits="userSpaceOnUse">
<stop stop-color="#00D3EA"/>
<stop offset="1" stop-color="#4078BC"/>
</linearGradient>
<linearGradient id="paint3_linear_2050_6716" x1="6.02637" y1="40.8047" x2="8.10126" y2="43.0253" gradientUnits="userSpaceOnUse">
<stop stop-color="#00D3EA"/>
<stop offset="1" stop-color="#4078BC"/>
</linearGradient>
<linearGradient id="paint4_linear_2050_6716" x1="55.9424" y1="42.6875" x2="56.0452" y2="39.6502" gradientUnits="userSpaceOnUse">
<stop stop-color="#00D3EA"/>
<stop offset="1" stop-color="#4078BC"/>
</linearGradient>
<linearGradient id="paint5_linear_2050_6716" x1="56.7861" y1="21.9775" x2="54.7115" y2="19.7568" gradientUnits="userSpaceOnUse">
<stop stop-color="#00D3EA"/>
<stop offset="1" stop-color="#4078BC"/>
</linearGradient>
<linearGradient id="paint6_linear_2050_6716" x1="41.1465" y1="6.12305" x2="43.3673" y2="8.19766" gradientUnits="userSpaceOnUse">
<stop stop-color="#00D3EA"/>
<stop offset="1" stop-color="#4078BC"/>
</linearGradient>
<linearGradient id="paint7_linear_2050_6716" x1="30.7266" y1="0" x2="33.8647" y2="0.581137" gradientUnits="userSpaceOnUse">
<stop stop-color="#00D3EA"/>
<stop offset="1" stop-color="#4078BC"/>
</linearGradient>
<linearGradient id="paint8_linear_2050_6716" x1="9.88672" y1="8.40527" x2="8.07867" y2="11.0352" gradientUnits="userSpaceOnUse">
<stop stop-color="#00D3EA"/>
<stop offset="1" stop-color="#4078BC"/>
</linearGradient>
<linearGradient id="paint9_linear_2050_6716" x1="0" y1="30.4023" x2="0.581135" y2="33.5405" gradientUnits="userSpaceOnUse">
<stop stop-color="#00D3EA"/>
<stop offset="1" stop-color="#4078BC"/>
</linearGradient>
<linearGradient id="paint10_linear_2050_6716" x1="9.58691" y1="54.0742" x2="7.77886" y2="51.4443" gradientUnits="userSpaceOnUse">
<stop stop-color="#00D3EA"/>
<stop offset="1" stop-color="#4078BC"/>
</linearGradient>
<linearGradient id="paint11_linear_2050_6716" x1="52.9199" y1="54.3105" x2="54.7279" y2="51.6803" gradientUnits="userSpaceOnUse">
<stop stop-color="#00D3EA"/>
<stop offset="1" stop-color="#4078BC"/>
</linearGradient>
<linearGradient id="paint12_linear_2050_6716" x1="54.0957" y1="30.7266" x2="54.6768" y2="33.8647" gradientUnits="userSpaceOnUse">
<stop stop-color="#00D3EA"/>
<stop offset="1" stop-color="#4078BC"/>
</linearGradient>
<linearGradient id="paint13_linear_2050_6716" x1="53.2002" y1="8.73633" x2="55.0082" y2="11.3662" gradientUnits="userSpaceOnUse">
<stop stop-color="#00D3EA"/>
<stop offset="1" stop-color="#4078BC"/>
</linearGradient>
<linearGradient id="paint14_linear_2050_6716" x1="15.0391" y1="15.9043" x2="47.172" y2="48.0372" gradientUnits="userSpaceOnUse">
<stop stop-color="#00D3EA"/>
<stop offset="1" stop-color="#4078BC"/>
</linearGradient>
</defs>
</svg>
