<svg width="240" height="48" viewBox="0 0 240 48" fill="none" xmlns="http://www.w3.org/2000/svg">
<path d="M236.731 27.944V8.56906H239.123V27.944H236.731ZM237.927 5.2203C237.342 5.2203 236.851 5.02097 236.452 4.62231C236.053 4.22365 235.854 3.73196 235.854 3.14726C235.854 2.53598 236.053 2.0443 236.452 1.67221C236.851 1.27355 237.342 1.07422 237.927 1.07422C238.538 1.07422 239.03 1.27355 239.402 1.67221C239.801 2.0443 240 2.53598 240 3.14726C240 3.73196 239.801 4.22365 239.402 4.62231C239.03 5.02097 238.538 5.2203 237.927 5.2203Z" fill="white"/>
<path d="M219.779 28.5017C218.424 28.5017 217.188 28.2758 216.072 27.824C214.982 27.3456 214.118 26.6546 213.48 25.7509C212.842 24.8473 212.524 23.7576 212.524 22.4819C212.524 21.1796 212.842 20.1032 213.48 19.2528C214.118 18.4023 214.982 17.7644 216.072 17.3392C217.161 16.9139 218.371 16.7013 219.699 16.7013H226.796V15.1465C226.796 13.5785 226.344 12.3559 225.44 11.4789C224.537 10.6018 223.221 10.1633 221.493 10.1633C219.792 10.1633 218.437 10.5885 217.427 11.439C216.444 12.2629 215.779 13.3791 215.434 14.7877L213.122 14.11C213.44 12.9672 213.945 11.944 214.636 11.0403C215.327 10.1101 216.244 9.37924 217.387 8.84769C218.53 8.28956 219.899 8.0105 221.493 8.0105C223.939 8.0105 225.826 8.64836 227.154 9.92407C228.51 11.1998 229.188 12.9805 229.188 15.2661V24.6746C229.188 25.4719 229.56 25.8705 230.304 25.8705H232.178V27.9436H229.626C228.802 27.9436 228.151 27.7044 227.673 27.226C227.194 26.721 226.955 26.0433 226.955 25.1928V24.9138H226.556C226.211 25.4985 225.759 26.0699 225.201 26.628C224.669 27.1861 223.965 27.6379 223.088 27.9835C222.211 28.329 221.108 28.5017 219.779 28.5017ZM219.939 26.3489C221.985 26.3489 223.633 25.7377 224.882 24.5151C226.158 23.266 226.796 21.5118 226.796 19.2528V18.7744H219.739C218.357 18.7744 217.201 19.08 216.271 19.6913C215.367 20.276 214.916 21.1929 214.916 22.4421C214.916 23.6912 215.381 24.6613 216.311 25.3523C217.268 26.0167 218.477 26.3489 219.939 26.3489Z" fill="white"/>
<path d="M200.842 27.9439V2.34984H191.514V0.0375977H212.723V2.34984H203.394V27.9439H200.842Z" fill="white"/>
<path d="M173.204 27.9434C172.167 27.9434 171.383 27.6776 170.852 27.146C170.347 26.6145 170.094 25.8703 170.094 24.9135V10.7212H163.875V8.56839H170.094V1.31274H172.486V8.56839H179.264V10.7212H172.486V24.5946C172.486 25.3919 172.885 25.7906 173.682 25.7906H178.227V27.9434H173.204Z" fill="white"/>
<path d="M153.287 28.5017C150.948 28.5017 148.941 27.9436 147.267 26.8273C145.619 25.7111 144.609 23.8639 144.237 21.2859L146.589 20.8474C146.802 22.256 147.227 23.3723 147.865 24.1962C148.529 24.9935 149.327 25.5649 150.257 25.9104C151.214 26.2559 152.223 26.4287 153.287 26.4287C154.881 26.4287 156.157 26.1097 157.114 25.4719C158.097 24.8074 158.589 23.9038 158.589 22.761C158.589 21.5916 158.124 20.781 157.193 20.3291C156.29 19.8773 155.081 19.5185 153.566 19.2528L151.732 18.9338C150.509 18.7212 149.406 18.4023 148.423 17.977C147.44 17.5252 146.655 16.9272 146.071 16.1831C145.513 15.4389 145.234 14.5087 145.234 13.3924C145.234 11.7181 145.885 10.4025 147.187 9.44568C148.516 8.48889 150.27 8.0105 152.449 8.0105C154.655 8.0105 156.423 8.51547 157.752 9.52541C159.107 10.5088 159.958 11.944 160.303 13.831L158.071 14.3094C157.805 12.7679 157.167 11.6782 156.157 11.0403C155.174 10.4025 153.938 10.0835 152.449 10.0835C150.988 10.0835 149.818 10.3626 148.941 10.9207C148.064 11.4789 147.626 12.3028 147.626 13.3924C147.626 14.4555 148.024 15.2396 148.822 15.7445C149.619 16.2229 150.709 16.5817 152.091 16.8209L153.924 17.1399C155.253 17.3525 156.449 17.6714 157.512 18.0966C158.575 18.4953 159.413 19.0667 160.024 19.8109C160.662 20.5551 160.981 21.5384 160.981 22.761C160.981 24.5948 160.29 26.0167 158.908 27.0267C157.526 28.01 155.652 28.5017 153.287 28.5017Z" fill="white"/>
<path d="M128.676 28.3422C127.294 28.3422 126.005 28.0499 124.809 27.4652C123.64 26.8805 122.696 26.0034 121.979 24.834C121.288 23.638 120.942 22.1497 120.942 20.369V8.5686H123.334V20.2095C123.334 22.3091 123.866 23.8373 124.929 24.7941C125.992 25.7243 127.414 26.1895 129.195 26.1895C131.188 26.1895 132.849 25.5383 134.178 24.236C135.507 22.9071 136.171 20.9138 136.171 18.2561V8.5686H138.563V27.9436H136.251V24.3556H135.772C135.294 25.3921 134.51 26.3223 133.42 27.1462C132.331 27.9436 130.749 28.3422 128.676 28.3422Z" fill="white"/>
<path d="M106.503 27.9437V8.56875H108.815V11.0006H109.293C109.665 10.1235 110.21 9.48567 110.928 9.08701C111.672 8.68834 112.695 8.48901 113.997 8.48901H116.27V10.7215H113.718C112.257 10.7215 111.087 11.1335 110.21 11.9574C109.333 12.7813 108.895 14.0703 108.895 15.8244V27.9437H106.503Z" fill="white"/>
<path d="M93.1574 27.9425V2.34837H83.8287V0.0361328H105.038V2.34837H95.7089V27.9425H93.1574Z" fill="white"/>
<path d="M171.534 39.4734L168.704 44.3535V47.3871H167.421V44.3535L164.603 39.4734H166.03L167.445 42.0273L168.069 43.2024L168.692 42.0273L170.095 39.4734H171.534Z" fill="white"/>
<path d="M164.137 45.2888C163.977 45.7684 163.737 46.1761 163.417 46.5118C163.098 46.8395 162.722 47.0873 162.29 47.2552C161.859 47.4231 161.383 47.507 160.863 47.507C160.104 47.507 159.444 47.3431 158.885 47.0154C158.325 46.6877 157.894 46.22 157.59 45.6125C157.286 45.005 157.134 44.2776 157.134 43.4303C157.134 42.5829 157.286 41.8555 157.59 41.248C157.894 40.6405 158.325 40.1729 158.885 39.8451C159.444 39.5174 160.1 39.3535 160.851 39.3535C161.371 39.3535 161.839 39.4255 162.254 39.5693C162.678 39.7132 163.038 39.9291 163.333 40.2168C163.629 40.5046 163.857 40.8643 164.017 41.296L162.806 41.8355C162.646 41.3639 162.414 41.0202 162.11 40.8044C161.807 40.5805 161.411 40.4686 160.923 40.4686C160.436 40.4686 160.008 40.5845 159.64 40.8163C159.273 41.0482 158.985 41.3839 158.777 41.8235C158.577 42.2632 158.477 42.7988 158.477 43.4303C158.477 44.0538 158.573 44.5893 158.765 45.037C158.957 45.4766 159.233 45.8124 159.592 46.0442C159.952 46.276 160.384 46.3919 160.887 46.3919C161.375 46.3919 161.795 46.268 162.146 46.0202C162.506 45.7644 162.762 45.3847 162.914 44.8811L164.137 45.2888Z" fill="white"/>
<path d="M155.238 39.4734V47.3871H153.715L150.658 42.3991L149.89 40.9962H149.878L149.926 42.2791V47.3871H148.751V39.4734H150.262L153.308 44.4494L154.087 45.8763H154.099L154.051 44.5813V39.4734H155.238Z" fill="white"/>
<path d="M141.129 47.3871V39.4734H146.861V40.5765H142.412V42.8547H145.889V43.9338H142.412V46.284H147.029V47.3871H141.129Z" fill="white"/>
<path d="M135.662 47.507C134.919 47.507 134.276 47.3431 133.732 47.0154C133.188 46.6877 132.765 46.224 132.461 45.6245C132.157 45.017 132.005 44.2856 132.005 43.4303C132.005 42.5909 132.161 41.8675 132.473 41.26C132.793 40.6525 133.24 40.1849 133.816 39.8571C134.399 39.5214 135.067 39.3535 135.818 39.3535C136.642 39.3535 137.305 39.5054 137.809 39.8092C138.32 40.1129 138.728 40.5845 139.032 41.224L137.845 41.7876C137.693 41.3479 137.441 41.0202 137.089 40.8044C136.746 40.5805 136.326 40.4686 135.83 40.4686C135.335 40.4686 134.899 40.5845 134.523 40.8163C134.156 41.0482 133.868 41.3879 133.66 41.8355C133.452 42.2752 133.348 42.8068 133.348 43.4303C133.348 44.0618 133.44 44.6013 133.624 45.049C133.808 45.4886 134.084 45.8243 134.451 46.0562C134.827 46.288 135.287 46.4039 135.83 46.4039C136.126 46.4039 136.402 46.3679 136.658 46.296C136.913 46.216 137.137 46.1041 137.329 45.9602C137.521 45.8084 137.669 45.6205 137.773 45.3967C137.885 45.1649 137.941 44.8931 137.941 44.5813V44.3535H135.638V43.3104H139.08V47.3871H138.12L138.049 45.7924L138.288 45.9123C138.097 46.4159 137.777 46.8076 137.329 47.0873C136.889 47.3671 136.334 47.507 135.662 47.507Z" fill="white"/>
<path d="M131.327 47.3871H129.972L129.216 45.3127H125.895L125.14 47.3871H123.821L126.806 39.4734H128.341L131.327 47.3871ZM126.255 44.2696H128.857L127.562 40.5765L126.255 44.2696Z" fill="white"/>
<path d="M113.343 47.3871V39.4734H116.461C117.412 39.4734 118.107 39.6652 118.547 40.0489C118.987 40.4326 119.206 40.9642 119.206 41.6437C119.206 42.0593 119.087 42.431 118.847 42.7588C118.607 43.0785 118.255 43.2823 117.792 43.3703V43.3823C118.303 43.4622 118.699 43.674 118.979 44.0178C119.266 44.3535 119.41 44.7452 119.41 45.1928C119.41 45.8723 119.162 46.4079 118.667 46.7995C118.171 47.1912 117.452 47.3871 116.509 47.3871H113.343ZM114.602 46.3199H116.569C117.072 46.3199 117.448 46.216 117.696 46.0082C117.951 45.8003 118.079 45.5086 118.079 45.1329C118.079 44.7572 117.951 44.4654 117.696 44.2576C117.448 44.0497 117.072 43.9458 116.569 43.9458H114.602V46.3199ZM114.602 42.8787H116.365C117.372 42.8787 117.876 42.491 117.876 41.7156C117.876 40.9402 117.372 40.5525 116.365 40.5525H114.602V42.8787Z" fill="white"/>
<path d="M105.721 47.3871V39.4734H111.452V40.5765H107.004V42.8547H110.481V43.9338H107.004V46.284H111.62V47.3871H105.721Z" fill="white"/>
<path d="M95.5542 47.3871L93.228 39.4734H94.5829L96.3575 46.272L98.0842 39.4734H99.4031L101.142 46.284L102.904 39.4734H104.211L101.897 47.3871H100.386L99.1273 42.6389L98.7316 40.8163H98.7196L98.324 42.6389L97.077 47.3871H95.5542Z" fill="white"/>
<path d="M31.9706 14.7954L4.77363 15.6311C2.16018 15.7161 0 13.6197 0 10.9991C0 8.27943 2.33724 6.1405 5.04985 6.38131L55.088 10.8504L55.0455 10.8646C47.5735 13.2301 39.811 14.5546 31.9706 14.7954Z" fill="#34C4EB"/>
<mask id="mask0_2050_3643" style="mask-type:luminance" maskUnits="userSpaceOnUse" x="17" y="18" width="21" height="25">
<path d="M17.2957 18.5845L18.2164 37.1195V37.1478C18.2093 37.9269 20.2278 44.9032 27.4662 41.6169L28.3586 41.1353L29.8034 40.3562L31.9707 39.1805L37.2259 36.3404C29.1943 40.6891 27.3175 33.1179 27.1546 32.3529C27.1475 32.3175 27.1404 32.2963 27.1404 32.2963L25.8726 24.8879C25.3556 23.2377 24.3853 21.807 23.1175 20.7305C21.5381 19.3848 19.4983 18.5845 17.2957 18.5845Z" fill="white"/>
</mask>
<g mask="url(#mask0_2050_3643)">
<path d="M37.2259 18.5845H17.2957V44.9103H37.2259V18.5845Z" fill="white"/>
</g>
<mask id="mask1_2050_3643" style="mask-type:luminance" maskUnits="userSpaceOnUse" x="25" y="13" width="55" height="25">
<path d="M75.7901 14.2004C66.3278 15.624 57.0922 18.287 48.3311 22.1328L28.422 30.8656L27.7421 31.1631C27.3809 31.3189 26.9701 31.0993 26.9064 30.7098L26.1556 26.1274C26.0848 25.7024 25.9856 25.2916 25.8652 24.8879L27.133 32.2963C27.133 32.2963 27.133 32.3175 27.1472 32.3529C27.3172 33.1178 29.194 40.6891 37.2256 36.3404L79.0835 13.7046L75.7901 14.2004Z" fill="white"/>
</mask>
<g mask="url(#mask1_2050_3643)">
<path d="M17.5076 16.6081L73.3463 -2.79102L87.4406 37.7778L31.6018 57.1769L17.5076 16.6081Z" fill="white"/>
</g>
</svg>
