<svg width="168" height="34" viewBox="0 0 168 34" fill="none" xmlns="http://www.w3.org/2000/svg">
<path d="M165.712 19.5354V5.97295H167.386V19.5354H165.712ZM166.549 3.62882C166.139 3.62882 165.795 3.48929 165.516 3.21022C165.237 2.93116 165.098 2.58698 165.098 2.17769C165.098 1.74979 165.237 1.40562 165.516 1.14516C165.795 0.866094 166.139 0.726562 166.549 0.726562C166.977 0.726562 167.321 0.866094 167.581 1.14516C167.86 1.40562 168 1.74979 168 2.17769C168 2.58698 167.86 2.93116 167.581 3.21022C167.321 3.48929 166.977 3.62882 166.549 3.62882Z" fill="white"/>
<path d="M153.845 19.9259C152.896 19.9259 152.031 19.7677 151.25 19.4515C150.487 19.1166 149.883 18.6329 149.436 18.0003C148.99 17.3678 148.766 16.605 148.766 15.712C148.766 14.8004 148.99 14.0469 149.436 13.4516C149.883 12.8563 150.487 12.4098 151.25 12.1121C152.013 11.8144 152.859 11.6656 153.789 11.6656H158.757V10.5773C158.757 9.47961 158.441 8.62382 157.808 8.00988C157.175 7.39594 156.255 7.08897 155.045 7.08897C153.855 7.08897 152.906 7.38664 152.199 7.98197C151.51 8.5587 151.045 9.34008 150.804 10.3261L149.185 9.8517C149.408 9.05172 149.762 8.33545 150.245 7.70291C150.729 7.05176 151.371 6.54015 152.171 6.16806C152.971 5.77738 153.929 5.58203 155.045 5.58203C156.757 5.58203 158.078 6.02853 159.008 6.92153C159.957 7.81454 160.431 9.06102 160.431 10.661V17.2469C160.431 17.805 160.692 18.0841 161.213 18.0841H162.524V19.5352H160.738C160.161 19.5352 159.706 19.3678 159.371 19.0329C159.036 18.6794 158.868 18.205 158.868 17.6097V17.4143H158.589C158.348 17.8236 158.031 18.2236 157.641 18.6143C157.268 19.005 156.775 19.3212 156.162 19.5631C155.548 19.805 154.776 19.9259 153.845 19.9259ZM153.957 18.4189C155.389 18.4189 156.543 17.991 157.417 17.1352C158.31 16.2609 158.757 15.033 158.757 13.4516V13.1167H153.817C152.85 13.1167 152.041 13.3307 151.39 13.7586C150.757 14.1679 150.441 14.8097 150.441 15.6841C150.441 16.5585 150.766 17.2376 151.417 17.7213C152.087 18.1864 152.934 18.4189 153.957 18.4189Z" fill="white"/>
<path d="M140.59 19.5354V1.61954H134.06V0.000976562H148.906V1.61954H142.376V19.5354H140.59Z" fill="white"/>
<path d="M121.243 19.535C120.517 19.535 119.968 19.3489 119.596 18.9769C119.243 18.6048 119.066 18.0839 119.066 17.4141V7.47945H114.713V5.97251H119.066V0.893555H120.74V5.97251H125.484V7.47945H120.74V17.1909C120.74 17.749 121.019 18.028 121.578 18.028H124.759V19.535H121.243Z" fill="white"/>
<path d="M107.301 19.9259C105.663 19.9259 104.259 19.5352 103.087 18.7538C101.933 17.9724 101.226 16.6794 100.966 14.8748L102.612 14.5679C102.761 15.5539 103.059 16.3353 103.505 16.912C103.97 17.4701 104.529 17.8701 105.18 18.112C105.849 18.3538 106.556 18.4748 107.301 18.4748C108.417 18.4748 109.31 18.2515 109.98 17.805C110.668 17.3399 111.012 16.7074 111.012 15.9074C111.012 15.0888 110.687 14.5214 110.035 14.2051C109.403 13.8888 108.556 13.6377 107.496 13.4516L106.212 13.2284C105.356 13.0795 104.584 12.8563 103.896 12.5586C103.208 12.2423 102.659 11.8237 102.25 11.3028C101.859 10.7819 101.663 10.1308 101.663 9.34938C101.663 8.17732 102.119 7.25641 103.031 6.58666C103.961 5.91691 105.189 5.58203 106.715 5.58203C108.259 5.58203 109.496 5.93551 110.426 6.64247C111.375 7.33083 111.97 8.33545 112.212 9.65635L110.649 9.99123C110.463 8.91219 110.017 8.14941 109.31 7.70291C108.621 7.25641 107.756 7.03316 106.715 7.03316C105.691 7.03316 104.873 7.2285 104.259 7.61919C103.645 8.00988 103.338 8.58661 103.338 9.34938C103.338 10.0936 103.617 10.6424 104.175 10.9959C104.733 11.3307 105.496 11.5819 106.463 11.7493L107.747 11.9726C108.677 12.1214 109.514 12.3447 110.259 12.6423C111.003 12.9214 111.589 13.3214 112.017 13.8423C112.463 14.3632 112.686 15.0516 112.686 15.9074C112.686 17.1911 112.203 18.1864 111.235 18.8933C110.268 19.5817 108.956 19.9259 107.301 19.9259Z" fill="white"/>
<path d="M90.0734 19.8142C89.106 19.8142 88.2036 19.6095 87.3665 19.2003C86.5479 18.791 85.8874 18.177 85.3851 17.3584C84.9014 16.5212 84.6595 15.4794 84.6595 14.2329V5.97266H86.3339V14.1213C86.3339 15.591 86.706 16.6608 87.4502 17.3305C88.1943 17.9817 89.1897 18.3073 90.4362 18.3073C91.8315 18.3073 92.9942 17.8514 93.9244 16.9398C94.8547 16.0096 95.3198 14.6143 95.3198 12.7539V5.97266H96.9941V19.5351H95.3756V17.0236H95.0407C94.7058 17.7491 94.157 18.4003 93.3942 18.977C92.6315 19.5351 91.5245 19.8142 90.0734 19.8142Z" fill="white"/>
<path d="M74.5518 19.5353V5.9728H76.1703V7.67509H76.5052C76.7657 7.06115 77.147 6.61465 77.6494 6.33559C78.1703 6.05652 78.8865 5.91699 79.7981 5.91699H81.3888V7.47975H79.6028C78.5796 7.47975 77.761 7.76811 77.147 8.34484C76.5331 8.92157 76.2261 9.82388 76.2261 11.0518V19.5353H74.5518Z" fill="white"/>
<path d="M65.2101 19.5344V1.61857H58.6801V0H73.5262V1.61857H66.9961V19.5344H65.2101Z" fill="white"/>
<path d="M120.074 27.606L118.093 31.022V33.1455H117.195V31.022L115.222 27.606H116.221L117.212 29.3937L117.648 30.2163L118.084 29.3937L119.066 27.606H120.074Z" fill="white"/>
<path d="M114.896 31.6767C114.784 32.0124 114.616 32.2978 114.392 32.5328C114.168 32.7622 113.905 32.9357 113.603 33.0532C113.301 33.1707 112.968 33.2294 112.604 33.2294C112.073 33.2294 111.611 33.1147 111.219 32.8853C110.828 32.6559 110.525 32.3285 110.313 31.9033C110.1 31.478 109.994 30.9688 109.994 30.3757C109.994 29.7826 110.1 29.2734 110.313 28.8481C110.525 28.4229 110.828 28.0955 111.219 27.8661C111.611 27.6367 112.07 27.522 112.596 27.522C112.96 27.522 113.287 27.5723 113.578 27.6731C113.874 27.7738 114.126 27.9249 114.333 28.1263C114.54 28.3277 114.7 28.5795 114.812 28.8817L113.964 29.2594C113.852 28.9292 113.69 28.6886 113.477 28.5376C113.264 28.3809 112.988 28.3025 112.646 28.3025C112.305 28.3025 112.005 28.3837 111.748 28.546C111.491 28.7082 111.289 28.9432 111.144 29.251C111.004 29.5587 110.934 29.9336 110.934 30.3757C110.934 30.8121 111.001 31.187 111.135 31.5004C111.27 31.8082 111.463 32.0432 111.715 32.2054C111.966 32.3677 112.268 32.4488 112.621 32.4488C112.962 32.4488 113.256 32.3621 113.502 32.1886C113.754 32.0096 113.933 31.7438 114.039 31.3913L114.896 31.6767Z" fill="white"/>
<path d="M108.667 27.606V33.1455H107.601L105.46 29.6539L104.923 28.6719H104.915L104.948 29.57V33.1455H104.126V27.606H105.183L107.315 31.0892L107.861 32.088H107.869L107.836 31.1815V27.606H108.667Z" fill="white"/>
<path d="M98.7904 33.1455V27.606H102.802V28.3781H99.6885V29.9729H102.123V30.7283H99.6885V32.3734H102.92V33.1455H98.7904Z" fill="white"/>
<path d="M94.9636 33.2294C94.4433 33.2294 93.9928 33.1147 93.6123 32.8853C93.2318 32.6559 92.9353 32.3313 92.7226 31.9117C92.51 31.4864 92.4037 30.9744 92.4037 30.3757C92.4037 29.7882 92.5128 29.2818 92.731 28.8565C92.9548 28.4312 93.2682 28.1039 93.6711 27.8745C94.0795 27.6395 94.5468 27.522 95.0728 27.522C95.6491 27.522 96.1135 27.6283 96.466 27.8409C96.8242 28.0535 97.1095 28.3837 97.3222 28.8313L96.4912 29.2258C96.3849 28.9181 96.2086 28.6886 95.9624 28.5376C95.7218 28.3809 95.4281 28.3025 95.0812 28.3025C94.7342 28.3025 94.4293 28.3837 94.1663 28.546C93.9089 28.7082 93.7074 28.946 93.562 29.2594C93.4165 29.5671 93.3437 29.9392 93.3437 30.3757C93.3437 30.8177 93.4081 31.1954 93.5368 31.5088C93.6655 31.8165 93.8585 32.0516 94.1159 32.2138C94.3789 32.3761 94.7007 32.4572 95.0812 32.4572C95.2882 32.4572 95.4812 32.4321 95.6603 32.3817C95.8393 32.3257 95.996 32.2474 96.1303 32.1467C96.2646 32.0404 96.3681 31.9089 96.4409 31.7522C96.5192 31.5899 96.5584 31.3997 96.5584 31.1815V31.022H94.9469V30.2918H97.3557V33.1455H96.6843L96.6339 32.0292L96.8018 32.1131C96.6675 32.4656 96.4437 32.7398 96.1303 32.9357C95.8226 33.1315 95.4337 33.2294 94.9636 33.2294Z" fill="white"/>
<path d="M91.9288 33.1455H90.9803L90.4515 31.6935H88.1266L87.5978 33.1455H86.6746L88.7645 27.606H89.8388L91.9288 33.1455ZM88.3784 30.9633H90.1997L89.2933 28.3781L88.3784 30.9633Z" fill="white"/>
<path d="M79.3401 33.1455V27.606H81.5223C82.1882 27.606 82.675 27.7402 82.9828 28.0088C83.2905 28.2774 83.4444 28.6495 83.4444 29.1251C83.4444 29.4161 83.3605 29.6763 83.1926 29.9057C83.0247 30.1295 82.7785 30.2722 82.454 30.3338V30.3422C82.8121 30.3981 83.0891 30.5464 83.2849 30.787C83.4864 31.022 83.5871 31.2962 83.5871 31.6096C83.5871 32.0852 83.4136 32.4601 83.0667 32.7343C82.7198 33.0084 82.2162 33.1455 81.5559 33.1455H79.3401ZM80.2214 32.3985H81.5979C81.9504 32.3985 82.2134 32.3258 82.3869 32.1803C82.5659 32.0348 82.6554 31.8306 82.6554 31.5676C82.6554 31.3046 82.5659 31.1004 82.3869 30.9549C82.2134 30.8094 81.9504 30.7367 81.5979 30.7367H80.2214V32.3985ZM80.2214 29.9897H81.4552C82.1602 29.9897 82.5128 29.7183 82.5128 29.1755C82.5128 28.6327 82.1602 28.3614 81.4552 28.3614H80.2214V29.9897Z" fill="white"/>
<path d="M74.0044 33.1455V27.606H78.0164V28.3781H74.9025V29.9729H77.3365V30.7283H74.9025V32.3734H78.1339V33.1455H74.0044Z" fill="white"/>
<path d="M66.8878 33.1455L65.2595 27.606H66.208L67.4502 32.365L68.6588 27.606H69.5821L70.7991 32.3734L72.0329 27.606H72.9478L71.3279 33.1455H70.2703L69.389 29.8218L69.112 28.546H69.1037L68.8267 29.8218L67.9538 33.1455H66.8878Z" fill="white"/>
<path d="M22.3794 10.3315L3.34154 10.9165C1.51212 10.976 0 9.50852 0 7.67414C0 5.77036 1.63607 4.27311 3.5349 4.44167L38.5616 7.57003L38.5319 7.57995C33.3014 9.23585 27.8677 10.163 22.3794 10.3315Z" fill="#34C4EB"/>
<mask id="mask0_2050_3599" style="mask-type:luminance" maskUnits="userSpaceOnUse" x="12" y="12" width="15" height="18">
<path d="M12.1069 12.9839L12.7514 25.9584V25.9782C12.7465 26.5236 14.1595 31.407 19.2263 29.1066L19.851 28.7695L20.8624 28.2241L22.3795 27.4011L26.0581 25.413C20.436 28.4571 19.1222 23.1573 19.0082 22.6218C19.0032 22.597 18.9982 22.5822 18.9982 22.5822L18.1108 17.3963C17.7489 16.2411 17.0697 15.2397 16.1822 14.4861C15.0766 13.5441 13.6488 12.9839 12.1069 12.9839Z" fill="white"/>
</mask>
<g mask="url(#mask0_2050_3599)">
<path d="M26.0581 12.9839H12.1069V31.412H26.0581V12.9839Z" fill="url(#paint0_linear_2050_3599)"/>
</g>
<mask id="mask1_2050_3599" style="mask-type:luminance" maskUnits="userSpaceOnUse" x="18" y="9" width="38" height="18">
<path d="M53.0532 9.91492C46.4296 10.9114 39.9647 12.7756 33.8319 15.4676L19.8956 21.5806L19.4196 21.7888C19.1668 21.8979 18.8792 21.7442 18.8346 21.4715L18.3091 18.2638C18.2595 17.9664 18.1901 17.6788 18.1058 17.3962L18.9933 22.582C18.9933 22.582 18.9933 22.5969 19.0032 22.6217C19.1222 23.1571 20.436 28.457 26.0581 25.4129L55.3586 9.56787L53.0532 9.91492Z" fill="white"/>
</mask>
<g mask="url(#mask1_2050_3599)">
<path d="M12.2555 11.6004L51.3426 -1.979L61.2086 26.4192L22.1215 39.9985L12.2555 11.6004Z" fill="url(#paint1_linear_2050_3599)"/>
</g>
<defs>
<linearGradient id="paint0_linear_2050_3599" x1="12.1569" y1="22.2784" x2="26.1071" y2="22.2784" gradientUnits="userSpaceOnUse">
<stop stop-color="#3E65B0"/>
<stop offset="0.6248" stop-color="#3F70B7"/>
<stop offset="0.9965" stop-color="#4078BC"/>
<stop offset="1" stop-color="#4078BC"/>
</linearGradient>
<linearGradient id="paint1_linear_2050_3599" x1="20.439" y1="24.755" x2="55.9154" y2="12.4301" gradientUnits="userSpaceOnUse">
<stop stop-color="#3E65B0"/>
<stop offset="0.00683759" stop-color="#3E65B0"/>
<stop offset="0.6274" stop-color="#3F70B7"/>
<stop offset="0.9965" stop-color="#4078BC"/>
<stop offset="1" stop-color="#4078BC"/>
</linearGradient>
</defs>
</svg>
