<svg width="18" height="18" viewBox="0 0 18 18" fill="none" xmlns="http://www.w3.org/2000/svg">
<path d="M7.66393 2.61804C8.24846 1.47264 8.54073 0.899941 9 0.899941C9.45927 0.899941 9.75154 1.47264 10.3361 2.61804L11.3511 4.60693C11.5212 4.94026 11.6062 5.10692 11.7517 5.21261C11.8972 5.3183 12.082 5.34769 12.4515 5.40647L14.6567 5.75718C15.9267 5.95916 16.5617 6.06015 16.7036 6.49694C16.8455 6.93374 16.3912 7.38867 15.4825 8.29855L13.9046 9.87846C13.6401 10.1433 13.5079 10.2757 13.4523 10.4467C13.3968 10.6177 13.4259 10.8025 13.4842 11.1721L13.8321 13.3778C14.0325 14.648 14.1327 15.2831 13.7611 15.5531C13.3895 15.823 12.8165 15.5315 11.6703 14.9484L9.68013 13.936C9.34658 13.7663 9.1798 13.6815 9 13.6815C8.8202 13.6815 8.65342 13.7663 8.31987 13.936L6.32968 14.9484C5.18354 15.5315 4.61046 15.823 4.2389 15.5531C3.86735 15.2831 3.96752 14.648 4.16787 13.3778L4.51576 11.1721C4.57407 10.8025 4.60322 10.6177 4.54766 10.4467C4.49209 10.2757 4.35987 10.1433 4.09542 9.87847L2.51753 8.29855C1.60882 7.38867 1.15446 6.93374 1.29639 6.49694C1.43831 6.06015 2.07329 5.95916 3.34326 5.75718L5.54846 5.40647C5.91804 5.34769 6.10284 5.3183 6.2483 5.21261C6.39377 5.10692 6.47882 4.94026 6.64893 4.60693L7.66393 2.61804Z" fill="#FFE5BB"/>
<path d="M4.75777 15.7481L8.67199 13.7568C8.83161 13.6756 8.91142 13.635 8.95568 13.5629C8.99994 13.4907 8.99994 13.4011 8.99994 13.2221V2.49566C8.99994 1.50615 8.99994 1.0114 8.77007 0.956139C8.54019 0.900874 8.3153 1.34156 7.86551 2.22292L6.44075 5.01474C6.37271 5.14807 6.33868 5.21474 6.2805 5.25701C6.22231 5.29929 6.1484 5.31104 6.00056 5.33455L1.60154 6.03418C1.09355 6.11497 0.839556 6.15537 0.782788 6.33009C0.726019 6.5048 0.90776 6.68678 1.27124 7.05073L4.4189 10.2024L4.4189 10.2024C4.52468 10.3083 4.57757 10.3613 4.59979 10.4297C4.62202 10.4981 4.61036 10.572 4.58703 10.7199L3.89305 15.1198C3.81291 15.6279 3.77284 15.8819 3.92146 15.9899C4.07008 16.0979 4.29931 15.9813 4.75777 15.7481Z" fill="#F5BE42"/>
</svg>
