<svg width="16" height="16" viewBox="0 0 16 16" fill="none" xmlns="http://www.w3.org/2000/svg">
<path d="M6.66393 2.61804C7.24846 1.47264 7.54073 0.899941 8 0.899941C8.45927 0.899941 8.75154 1.47264 9.33607 2.61804L10.3511 4.60693C10.5212 4.94026 10.6062 5.10692 10.7517 5.21261C10.8972 5.3183 11.082 5.34769 11.4515 5.40647L13.6567 5.75718C14.9267 5.95916 15.5617 6.06015 15.7036 6.49694C15.8455 6.93374 15.3912 7.38867 14.4825 8.29855L12.9046 9.87846C12.6401 10.1433 12.5079 10.2757 12.4523 10.4467C12.3968 10.6177 12.4259 10.8025 12.4842 11.1721L12.8321 13.3778C13.0325 14.648 13.1327 15.2831 12.7611 15.5531C12.3895 15.823 11.8165 15.5315 10.6703 14.9484L8.68013 13.936C8.34658 13.7663 8.1798 13.6815 8 13.6815C7.8202 13.6815 7.65342 13.7663 7.31987 13.936L5.32968 14.9484C4.18354 15.5315 3.61046 15.823 3.2389 15.5531C2.86735 15.2831 2.96752 14.648 3.16787 13.3778L3.51576 11.1721C3.57407 10.8025 3.60322 10.6177 3.54766 10.4467C3.49209 10.2757 3.35987 10.1433 3.09542 9.87847L1.51753 8.29855C0.608818 7.38867 0.154464 6.93374 0.296386 6.49694C0.438309 6.06015 1.07329 5.95916 2.34326 5.75718L4.54846 5.40647C4.91804 5.34769 5.10284 5.3183 5.2483 5.21261C5.39377 5.10692 5.47882 4.94026 5.64893 4.60693L6.66393 2.61804Z" fill="#F5BE42"/>
</svg>
