<svg width="57" height="27" viewBox="0 0 57 27" fill="none" xmlns="http://www.w3.org/2000/svg">
<path d="M23.1382 6.78171L4.10033 7.36673C2.27091 7.42622 0.758789 5.95872 0.758789 4.12434C0.758789 2.22055 2.39486 0.723302 4.29369 0.891867L39.3204 4.02023L39.2907 4.03014C34.0602 5.68604 28.6265 6.61315 23.1382 6.78171Z" fill="white"/>
<mask id="mask0_2050_6272" style="mask-type:luminance" maskUnits="userSpaceOnUse" x="12" y="9" width="15" height="18">
<path d="M12.8652 9.43408L13.5097 22.4086V22.4284C13.5048 22.9738 14.9178 27.8572 19.9846 25.5568L20.6093 25.2197L21.6207 24.6743L23.1378 23.8513L26.8164 21.8632C21.1943 24.9073 19.8805 19.6074 19.7665 19.072C19.7615 19.0472 19.7565 19.0323 19.7565 19.0323L18.8691 13.8465C18.5072 12.6913 17.828 11.6899 16.9405 10.9363C15.8349 9.99431 14.4071 9.43408 12.8652 9.43408Z" fill="white"/>
</mask>
<g mask="url(#mask0_2050_6272)">
<path d="M26.8164 9.43408H12.8652V27.8622H26.8164V9.43408Z" fill="white"/>
</g>
<mask id="mask1_2050_6272" style="mask-type:luminance" maskUnits="userSpaceOnUse" x="18" y="6" width="39" height="17">
<path d="M53.8117 6.3656C47.1881 7.36211 40.7231 9.22624 34.5903 11.9183L20.654 18.0313L20.1781 18.2395C19.9252 18.3486 19.6377 18.1949 19.5931 17.9222L19.0675 14.7145C19.0179 14.417 18.9485 14.1295 18.8643 13.8469L19.7517 19.0327C19.7517 19.0327 19.7517 19.0476 19.7616 19.0724C19.8806 19.6078 21.1944 24.9077 26.8165 21.8636L56.117 6.01855L53.8117 6.3656Z" fill="white"/>
</mask>
<g mask="url(#mask1_2050_6272)">
<path d="M13.0137 8.05104L52.1008 -5.52832L61.9668 22.8699L22.8797 36.4492L13.0137 8.05104Z" fill="white"/>
</g>
</svg>
