<svg width="126" height="250" viewBox="0 0 126 250" fill="none" xmlns="http://www.w3.org/2000/svg">
<path d="M86.3083 211.844L89.6615 216.148L86.3083 219.058V211.844Z" fill="#131313"/>
<path d="M85.1647 229.108L88.2159 234.524L81.8115 233.532L85.1647 229.108Z" fill="#060503"/>
<path d="M88.2159 234.524L70.1464 246.491L81.8115 233.531L88.2159 234.524Z" fill="#35302C"/>
<path d="M88.2159 234.524L73.8792 249.542L70.1464 246.491L88.2159 234.524Z" fill="#201F1A"/>
<path d="M62.0631 225.22L55.8874 226.29L53.1427 224.305L62.0631 225.22Z" fill="#3B3831"/>
<path d="M37.3605 211.725V218.815L34.0073 216.148L37.3605 211.725Z" fill="#101010"/>
<path d="M36.2168 204.561L37.4382 211.725L33.0924 209.666L36.2168 204.561Z" fill="#201F1A"/>
<path d="M39.9543 204.94L37.4383 211.725L36.2169 204.561L39.9543 204.94Z" fill="#050503"/>
<path d="M41.8572 197.621L40.7914 200.746L33.7786 202.882L41.8572 197.621Z" fill="#030200"/>
<path d="M40.7914 200.746L39.9543 204.94L36.2169 204.561L40.7914 200.746Z" fill="#21201C"/>
<path d="M40.7914 200.746L36.2168 204.561L33.7786 202.882L40.7914 200.746Z" fill="black"/>
<path d="M42.3147 233.531L53.9799 246.491L35.9103 234.524L42.3147 233.531Z" fill="#050505"/>
<path d="M53.9799 246.491L53.8655 246.583L50.247 249.542L35.9103 234.524L53.9799 246.491Z" fill="#201F1A"/>
<path d="M38.9616 229.108L42.3147 233.532L35.9103 234.524L38.9616 229.108Z" fill="#121210"/>
<path d="M43.7649 213.71L39.9543 221.331L37.5892 218.815L43.7649 213.71Z" fill="#35302C"/>
<path d="M39.9542 221.331L38.9616 229.108L34.236 225.677L39.9542 221.331Z" fill="#201F1A"/>
<path d="M45.5947 225.219L42.3147 233.531L38.9615 229.108L45.5947 225.219Z" fill="#050503"/>
<path d="M58.4813 232.539L59.2772 239.995L42.3148 233.532L48.8747 232.539L58.4813 232.159V232.539Z" fill="#050505"/>
<path d="M64.6203 240.165L64.8079 240.393H59.3184L59.2818 240.059L59.3184 240.014L59.2772 239.995L58.4813 232.539L64.6203 240.165Z" fill="#060606"/>
<path d="M64.8078 240.393L63.0238 249.748L62.978 249.771H63.0238L62.978 250L59.3184 240.393H64.8078Z" fill="#35302C"/>
<path d="M64.8079 240.014L70.1464 246.491L63.0238 249.748L64.8079 240.393L64.6203 240.165L64.8079 240.014Z" fill="#201F1A"/>
<path d="M73.8792 249.542L63.0238 249.771V249.748L70.1464 246.491L73.8792 249.542Z" fill="#27221E"/>
<path d="M62.978 250H50.1693L53.9799 246.72L62.978 250Z" fill="#27221E"/>
<path d="M59.3184 240.394L62.978 250L53.9798 246.72L53.8655 246.583L53.9798 246.491L59.2818 240.06L59.3184 240.394Z" fill="#050402"/>
<path d="M59.2772 239.995L59.2818 240.059L53.9799 246.491L42.3148 233.531L59.2772 239.995Z" fill="#35302C"/>
<path d="M90.3476 202.882L87.9094 204.561L83.3348 200.746L90.3476 202.882Z" fill="#35302C"/>
<path d="M87.9094 204.561L84.172 204.94L83.3348 200.746L87.9094 204.561Z" fill="#060405"/>
<path d="M87.9094 204.561L86.688 211.725L84.172 204.94L87.9094 204.561Z" fill="#35302C"/>
<path d="M87.9094 204.561L91.0338 209.666L86.688 211.725L87.9094 204.561Z" fill="#201F1A"/>
<path d="M86.3083 211.844V218.628L80.3614 213.71L86.3083 211.844Z" fill="#080806"/>
<path d="M84.172 204.94L86.688 211.725L86.3815 211.821L86.3083 211.725V211.843L80.3614 213.71L84.172 204.94Z" fill="#463D38"/>
<path d="M86.5371 218.815L84.172 221.331L80.3614 213.71L86.3083 218.628V218.815L86.4227 218.724L86.5371 218.815Z" fill="#0C0C0A"/>
<path d="M89.8902 225.677L85.1647 229.108L84.172 221.331L89.8902 225.677Z" fill="#12110F"/>
<path d="M84.172 221.331L85.1647 229.108L78.5316 225.22L84.172 221.331Z" fill="#0B0D0C"/>
<path d="M85.1647 229.108L81.8115 233.531L78.5316 225.219L85.1647 229.108Z" fill="#26231C"/>
<path d="M78.5315 225.219L81.8115 233.531L75.2516 232.539L78.5315 225.219Z" fill="#292621"/>
<path d="M78.5315 225.22L69.9542 227.127L70.1464 222.63L78.5315 225.22Z" fill="#211A12"/>
<path d="M70.1464 222.63L69.9542 227.127L62.0631 225.22L70.1464 222.63Z" fill="#2C2825"/>
<path d="M74.721 217.521L70.1464 222.63L66.9442 217.406L74.721 217.521Z" fill="#8C887F"/>
<path d="M80.3614 213.71L74.721 217.521L71.2214 212.274L71.3632 212.182L80.3614 213.71Z" fill="#3F3A34"/>
<path d="M70.1464 202.653L80.3614 213.71L71.3632 212.182L70.1464 202.653Z" fill="#474038"/>
<path d="M80.8188 196.784L70.1464 202.653L59.3184 196.249L80.8188 196.784Z" fill="#3B3734"/>
<path d="M83.8701 187.178L80.8188 196.784L73.4995 186.642L72.8911 186.871H61.6057L61.5142 186.693L61.6057 186.642L73.4995 186.414L83.8701 187.178Z" fill="#060000"/>
<path d="M64.2635 128.477L64.2727 128.696L64.2132 128.536L64.2635 128.477Z" fill="#FCF87B"/>
<path d="M64.2726 128.467L64.2635 128.477V128.463L64.2726 128.467Z" fill="#FCF87B"/>
<path d="M64.2635 128.463V128.477L64.2132 128.536L64.1812 128.445L64.2635 128.463Z" fill="#FCF87B"/>
<path d="M63.8929 120.082L64.2635 128.463L64.1811 128.445L61.1482 120.082H63.8929Z" fill="#FCF87B"/>
<path d="M63.8335 119.959L63.8929 120.082H61.1482L61.1253 119.936L61.1482 119.931L61.1207 119.913L59.6981 111.24L63.8335 119.959Z" fill="#FFFF90"/>
<path d="M74.8719 112.612L63.8929 119.931L63.8335 119.959L59.6981 111.24L59.7209 111.016L74.8719 112.612Z" fill="#FEFDA3"/>
<path d="M59.6981 111.24L61.1208 119.913L50.2562 112.672L59.6981 111.011L59.7209 111.016L59.6981 111.24Z" fill="#FEFE9E"/>
<path d="M78.8746 80.6267L82.9552 89.5837L64.4465 75.6404L78.5316 80.741V80.6267H78.8746Z" fill="white"/>
<path d="M95.764 83.6367L88.8244 100.105L82.9552 89.5837L95.764 83.6367Z" fill="#FEFEDC"/>
<path d="M89.8536 77.0815L95.764 83.6369L82.9552 89.5838L89.8536 77.0815Z" fill="#FCFEE6"/>
<path d="M89.8536 77.0815L82.9551 89.5838L78.8746 80.6268L89.8536 77.0815Z" fill="#FEFEF2"/>
<path d="M86.9167 55.7319L89.8536 77.0814L78.8746 67.3239L86.9167 55.7319Z" fill="#FDFDF3"/>
<path d="M89.8536 77.0813L78.8746 80.6266H78.5316V67.4747L78.6413 67.2231L78.8746 67.3238L89.8536 77.0813Z" fill="#FDFEF8"/>
<path d="M78.5316 80.6267V80.7411L64.4465 75.6405L64.2361 75.4803L64.2178 75.366L78.5316 67.4749V80.6267Z" fill="white"/>
<path d="M78.6413 67.2232L78.5315 67.4748L64.2177 75.3659L61.6057 59.9268L78.6413 67.2232Z" fill="white"/>
<path d="M99.7209 22.1867L88.8243 15.4392L87.6807 12.5801L99.7209 22.1867Z" fill="#FCD144"/>
<path d="M87.6807 12.58L88.8243 15.4391L78.1885 10.2927L87.6807 12.58Z" fill="#FBD245"/>
<path d="M96.8298 27.4474L97.7447 32.8592L88.8243 15.4392L96.8298 27.4474Z" fill="#FDDD4D"/>
<path d="M96.8298 27.4475L111.162 50.8556L97.7447 32.8592L96.8298 27.4475Z" fill="#FDE454"/>
<path d="M96.8298 49.0257L86.9167 55.732L86.5919 39.1492L96.8298 49.0257Z" fill="#FDFEBA"/>
<path d="M97.7447 32.8591L96.8298 49.0256L86.5919 39.1492L97.7447 32.8591Z" fill="#FEF679"/>
<path d="M97.7447 32.8591L111.162 50.8555L96.8298 49.0256L97.7447 32.8591Z" fill="#FBF16B"/>
<path d="M46.107 67.3743L46.0521 67.4246V67.324L46.107 67.3743Z" fill="white"/>
<path d="M46.0796 80.5992L46.0521 80.6267V80.5901L46.0796 80.5992Z" fill="white"/>
<path d="M52.914 73.5362L46.0796 80.5993L46.0521 80.5902V67.4246L46.107 67.3743L52.914 73.5362Z" fill="white"/>
<path d="M46.0522 67.4246V80.5902L35.1876 77.0815L46.0522 67.4246Z" fill="#FFFFFB"/>
<path d="M49.7667 54.666L46.1665 67.3238L38.1245 55.7319L49.7667 54.666Z" fill="#FDFEF8"/>
<path d="M47.4245 47.4429L49.7667 54.6661L38.1245 55.732L47.4245 47.4429Z" fill="#FCFDEF"/>
<path d="M66.1116 35.8325L77.6166 47.4428L56.5187 45.7456L66.1116 35.8325Z" fill="#FEFEE2"/>
<path d="M66.0933 27.0037L66.1116 35.8326L56.5187 26.5325L65.8692 26.8115L65.8646 26.8161L66.0933 27.0037Z" fill="#FDFC9F"/>
<path d="M48.9112 35.1099L47.4245 47.4429L38.4492 39.1492L48.9112 35.1099Z" fill="#FEFEC2"/>
<path d="M36.2169 15.4392L27.2964 32.8592L28.2114 27.4474L36.2169 15.4392Z" fill="#FBE657"/>
<path d="M37.3604 12.5801L36.2168 15.4392L25.3202 22.1867L37.3604 12.5801Z" fill="#F7BA3B"/>
<path d="M46.8527 10.2927L36.2169 15.4391L37.3605 12.58L46.8527 10.2927Z" fill="#F7BA3B"/>
<path d="M31.9854 8.69165L25.3202 22.1866L20.1281 17.9185L31.9854 8.69165Z" fill="#FFF899"/>
<path d="M37.3604 12.58L25.3202 22.1866L31.9853 8.69165L37.3604 12.58Z" fill="#F2CA4E"/>
<path d="M44.9085 2.97339L37.3605 12.58L31.9854 8.6916L44.9085 2.97339Z" fill="#FFFB9A"/>
<path d="M44.9085 2.97339L46.8527 10.2927L37.3605 12.58L44.9085 2.97339Z" fill="#F7BA3B"/>
<path d="M54.2864 2.3147V2.66236L46.8527 10.2927L44.9085 2.97343L54.2864 2.3147Z" fill="#F6DD69"/>
<path d="M54.634 2.25061L54.6523 2.28721L54.3779 2.30551L54.2864 2.28721V2.31466L44.9085 2.97339L53.7145 0.343018L54.5151 2.28721L54.634 2.25061Z" fill="#EDAE53"/>
<path d="M61.6057 0.0090332V0.0730771L54.634 2.25057L53.7145 0.342976L61.6057 0.0090332Z" fill="#FFF896"/>
<path d="M61.6057 0.0732422V3.87928L54.5883 2.35138L54.6524 2.28733L54.6341 2.25074L61.6057 0.0732422Z" fill="#FFF896"/>
<path d="M80.1327 2.97339L70.3889 2.28721L71.3266 0.343018L80.1327 2.97339Z" fill="#FFC36B"/>
<path d="M71.3266 0.343092L70.3523 2.28728L61.8344 0L71.3266 0.343092Z" fill="#FFC462"/>
<path d="M75.9652 17.1317L64.0668 12.1775L70.3888 8.69165L75.9652 17.1317Z" fill="#FFCF3D"/>
<path d="M70.3888 8.69172L64.0668 12.1775L61.8344 3.88843L70.3888 8.69172Z" fill="#FCE059"/>
<path d="M61.8344 3.88843L64.0668 12.1775L54.6249 8.73289L54.6523 8.69172L54.5654 8.71002L54.5151 8.69172L61.8344 3.88843Z" fill="#FCEC73"/>
<path d="M70.3522 2.28728L70.3888 8.69167L61.8344 3.88838L61.8252 3.84721L70.1235 2.28728L61.7292 0.032022L61.8344 0L70.3522 2.28728Z" fill="#F8C045"/>
<path d="M70.1235 2.28724L61.8252 3.84717L61.624 3.88377L61.6057 3.87919V0.0731535L61.7292 0.0319824L70.1235 2.28724Z" fill="#F9D155"/>
<path d="M61.6423 3.88837L54.2864 8.69167V2.66239L54.5883 2.35132L61.6057 3.87922V3.88837L61.624 3.8838L61.6423 3.88837Z" fill="#F2BD3D"/>
<path d="M61.8253 3.84717L61.8344 3.88834L54.5151 8.69163L54.4922 8.72365L46.8527 10.2927L54.2864 2.66235V8.69163L61.6423 3.88834L61.624 3.88376L61.8253 3.84717Z" fill="#FFE263"/>
<path d="M54.4922 8.72363L48.9113 17.3833L46.8527 10.2927L54.4922 8.72363Z" fill="#FED347"/>
<path d="M121.99 46.1252L125.041 65.3384L118.33 51.6147L121.99 46.1252Z" fill="#E5B65C"/>
<path d="M118.33 51.6147L125.041 65.3384L116.651 77.0814L118.33 51.6147Z" fill="#FEC435"/>
<path d="M125.041 65.3386L124.277 82.2645L116.651 77.0815L125.041 65.3386Z" fill="#F8DB53"/>
<path d="M124.277 82.2645L118.102 102.091L116.651 77.0815L124.277 82.2645Z" fill="#FDE96C"/>
<path d="M114.213 30.27L121.99 46.1255L118.33 51.6149L114.213 30.27Z" fill="#F1C55C"/>
<path d="M114.213 30.27L118.33 51.6149L109.561 32.8592L114.213 30.27Z" fill="#FFBF39"/>
<path d="M109.561 32.8591L118.33 51.6148L111.162 50.8555L109.561 32.8591Z" fill="#FCBB2E"/>
<path d="M118.33 51.6147L116.651 77.0814L108.573 65.3384L118.33 51.6147Z" fill="#FDCD3B"/>
<path d="M118.33 51.6148L108.573 65.3385L111.162 50.8555L118.33 51.6148Z" fill="#FEC736"/>
<path d="M116.651 77.0815L118.102 102.091L111.162 94.3139L116.651 77.0815Z" fill="#FFC736"/>
<path d="M111.162 94.3137L118.102 102.09L104.913 112.612L111.162 94.3137Z" fill="#FEC737"/>
<path d="M118.102 102.091L107.502 119.931L104.913 112.612L118.102 102.091Z" fill="#F6DB5A"/>
<path d="M108.573 65.3386L116.651 77.0815L107.502 86.5372L108.573 65.3386Z" fill="#FDE35B"/>
<path d="M116.651 77.0815L111.162 94.3139L107.502 86.5372L116.651 77.0815Z" fill="#FCE154"/>
<path d="M104.913 17.9185L114.213 30.2698L109.561 32.859L104.913 17.9185Z" fill="#FDEB7B"/>
<path d="M109.561 32.859L111.162 50.8553L99.7209 22.1865L109.561 32.859Z" fill="#F9D245"/>
<path d="M99.721 22.1865L111.162 50.8553L96.8298 27.4473L99.721 22.1865Z" fill="#FDD444"/>
<path d="M111.162 50.8555L108.573 65.3385L96.8298 49.0256L111.162 50.8555Z" fill="#FDF578"/>
<path d="M107.502 86.5371L111.162 94.3139L100.339 102.091L107.502 86.5371Z" fill="#FFE761"/>
<path d="M111.162 94.3137L104.913 112.612L100.339 102.09L111.162 94.3137Z" fill="#F5D84E"/>
<path d="M104.913 17.9185L109.561 32.859L99.7209 22.1865L104.913 17.9185Z" fill="#FEBB39"/>
<path d="M96.8298 49.0256L108.573 65.3385L95.7639 67.3239L96.8298 49.0256Z" fill="#FBFDB2"/>
<path d="M108.573 65.3386L107.502 86.5372L99.7209 73.8016L95.7639 67.324L108.573 65.3386Z" fill="#FFFCA1"/>
<path d="M99.7209 73.8015L107.502 86.5371L95.7639 83.6368L99.7209 73.8015Z" fill="#FCFCB6"/>
<path d="M107.502 86.537L100.338 102.091L95.7639 83.6367L107.502 86.537Z" fill="#FFFD8E"/>
<path d="M104.913 112.612L107.502 119.931L97.7448 122.219L104.913 112.612Z" fill="#FFEF6F"/>
<path d="M107.502 119.931L98.9662 134.721L97.7448 122.219L107.502 119.931Z" fill="#FCB630"/>
<path d="M100.338 102.091L104.913 112.612L91.9487 117.415L100.338 102.091Z" fill="#FDFCB9"/>
<path d="M104.913 112.612L97.7447 122.219L91.9487 117.415L104.913 112.612Z" fill="#F8BF2A"/>
<path d="M104.913 17.9185L99.7209 22.1866L93.0558 8.69165L104.913 17.9185Z" fill="#FCC841"/>
<path d="M95.764 83.6367L100.339 102.091L88.8243 100.105L95.764 83.6367Z" fill="#FDFD9D"/>
<path d="M100.339 102.091L91.9488 117.415L88.8243 100.105L100.339 102.091Z" fill="#FDF579"/>
<path d="M93.0558 8.69165L99.7209 22.1866L87.6807 12.58L93.0558 8.69165Z" fill="#F5BB36"/>
<path d="M99.721 22.1867L96.8298 27.4474L88.8243 15.4392L99.721 22.1867Z" fill="#FDD341"/>
<path d="M95.764 67.324L99.721 73.8016L89.8536 77.0815L95.764 67.324Z" fill="#FDFED4"/>
<path d="M99.721 73.8015L95.764 83.6368L89.8536 77.0815L99.721 73.8015Z" fill="#FEFDD1"/>
<path d="M97.7447 122.219L98.9661 134.721L88.5956 133.957L97.7447 122.219Z" fill="#ED9823"/>
<path d="M98.9661 134.721L90.8829 144.936L88.5956 133.957L98.9661 134.721Z" fill="#C8771C"/>
<path d="M88.8243 15.4392L97.7447 32.8592L84.8216 28.3624L88.8243 15.4392Z" fill="#FDE85B"/>
<path d="M97.7447 122.219L88.5956 133.957L79.6752 123.436L97.7447 122.219Z" fill="#FCE353"/>
<path d="M97.7447 32.8591L86.5919 39.1491L84.8216 28.3623L97.7447 32.8591Z" fill="#FCFA81"/>
<path d="M97.7447 122.219L79.6752 123.435L91.9487 117.415L97.7447 122.219Z" fill="#FFFCAD"/>
<path d="M96.8298 49.0256L95.764 67.3239L86.9167 55.7319L96.8298 49.0256Z" fill="#FCFEE9"/>
<path d="M86.9167 55.7319L95.764 67.3239L89.8536 77.0814L86.9167 55.7319Z" fill="#FCFEE9"/>
<path d="M90.8829 144.936L94.236 153.783L85.0869 166.135L90.8829 144.936Z" fill="#9E4424"/>
<path d="M94.236 153.783L92.5618 170.709L85.0869 166.135L94.236 153.783Z" fill="#78341D"/>
<path d="M93.0558 8.6916L87.6807 12.58L80.1327 2.97339L93.0558 8.6916Z" fill="#F7DB60"/>
<path d="M92.5618 170.709L91.9488 187.786L85.0869 166.135L92.5618 170.709Z" fill="#360000"/>
<path d="M88.8243 100.105L91.9487 117.415L74.8719 112.612L88.8243 100.105Z" fill="#FEFC8B"/>
<path d="M85.0869 166.135L91.9487 187.786L83.8701 187.178L85.0869 166.135Z" fill="#360000"/>
<path d="M91.9487 187.786L87.6029 194.762L83.8701 187.177L91.9487 187.786Z" fill="#0F0E0A"/>
<path d="M91.9487 117.415L79.6752 123.435L74.8719 112.612L91.9487 117.415Z" fill="#FFF582"/>
<path d="M88.5956 133.957L90.8829 144.936L82.9552 143.262L88.5956 133.957Z" fill="#CC7724"/>
<path d="M90.8829 144.936L85.0869 166.135L80.8188 159.117L90.8829 144.936Z" fill="#86340F"/>
<path d="M90.8829 144.936L80.8188 159.117L74.2635 150.275L90.8829 144.936Z" fill="#AD571C"/>
<path d="M90.8829 144.936L74.2635 150.275L82.9552 143.262L90.8829 144.936Z" fill="#BB641F"/>
<path d="M88.8243 15.4392L84.8216 28.3624L76.1299 17.3834L88.8243 15.4392Z" fill="#FCDC49"/>
<path d="M82.9552 89.5837L88.8244 100.105L78.2251 103.463L82.9552 89.5837Z" fill="#FEFDCF"/>
<path d="M88.8243 15.4391L76.1299 17.3833L78.1884 10.2927L88.8243 15.4391Z" fill="#FED03C"/>
<path d="M88.8243 100.105L74.8719 112.612L78.225 103.463L88.8243 100.105Z" fill="#FCFDBA"/>
<path d="M79.6752 123.436L88.5956 133.957L82.9551 143.262L79.6752 123.436Z" fill="#CC7C1B"/>
<path d="M80.1327 2.97339L87.6807 12.58L78.1885 10.2927L80.1327 2.97339Z" fill="#FFC33D"/>
<path d="M83.8701 187.177L87.6029 194.762L80.8188 196.784L83.8701 187.177Z" fill="#0F0E0A"/>
<path d="M87.6029 194.762L83.3349 200.746L80.8188 196.784L87.6029 194.762Z" fill="#0F0E0A"/>
<path d="M86.5919 39.1492L86.9167 55.732L77.6166 47.4429L86.5919 39.1492Z" fill="#FEFDE1"/>
<path d="M86.9167 55.732L78.8747 67.3239L72.1821 51.6926L86.9167 55.732Z" fill="#FDFEF8"/>
<path d="M86.9167 55.732L72.1821 51.6926L77.6167 47.4429L86.9167 55.732Z" fill="#FCFDEB"/>
<path d="M84.8216 28.3623L86.5919 39.1491L76.1299 35.1098L84.8216 28.3623Z" fill="#FDFE96"/>
<path d="M86.592 39.1492L77.6167 47.4429L76.0339 35.1236L76.1299 35.1099L86.592 39.1492Z" fill="#FEFEC0"/>
<path d="M80.8188 159.117L85.0869 166.135L74.2635 170.709L80.8188 159.117Z" fill="#5C2415"/>
<path d="M85.0869 166.135L83.8701 187.178L74.2635 170.709L85.0869 166.135Z" fill="#481D15"/>
<path d="M76.1299 17.3833L84.8216 28.3623L76.1299 35.1098L76.0338 35.1235L76.0155 34.9954L75.7868 35.0137V34.9954V17.3788L75.9927 17.1775L76.1299 17.3833Z" fill="#FDFB84"/>
<path d="M83.3348 200.746L84.172 204.94L70.1464 202.653L83.3348 200.746Z" fill="#0F0E0A"/>
<path d="M84.172 204.941L80.3614 213.71L70.1464 202.653L75.2516 208.143L84.172 204.941Z" fill="#0F0E0A"/>
<path d="M80.3611 213.71L84.1718 221.331L74.7207 217.521L80.3611 213.71Z" fill="#0F0E0A"/>
<path d="M84.172 204.941L75.2516 208.143L70.1464 202.653L84.172 204.941Z" fill="#0F0E0A"/>
<path d="M84.172 221.331L78.5315 225.22L70.1464 222.63L84.172 221.331Z" fill="#0F0E0A"/>
<path d="M84.172 221.331L70.1464 222.63L74.7209 217.521L84.172 221.331Z" fill="#0F0E0A"/>
<path d="M74.2635 170.709L83.8701 187.177L73.4995 186.413L74.2635 170.709Z" fill="#311511"/>
<path d="M80.8188 196.784L83.3348 200.746L70.1464 202.653L80.8188 196.784Z" fill="#0F0E0A"/>
<path d="M82.9552 89.5837L78.2251 103.463L63.8929 97.0586L82.9552 89.5837Z" fill="#FEFEE2"/>
<path d="M79.6752 123.436L82.9552 143.262L70.3889 139.447L79.6752 123.436Z" fill="#FBBE32"/>
<path d="M82.9552 89.5838L63.8929 97.0586L64.236 75.5627L64.4465 75.6405L82.9552 89.5838Z" fill="#FDFEF9"/>
<path d="M82.9552 143.262L74.2635 150.275L70.3889 139.447L82.9552 143.262Z" fill="#CC7F27"/>
<path d="M81.8115 233.531L70.1464 246.491L64.8079 240.014L81.8115 233.531Z" fill="#0F0E0A"/>
<path d="M81.8115 233.532L64.8079 240.014L64.6203 240.165L58.4813 232.539V232.159L75.2516 232.539L81.8115 233.532Z" fill="#0F0E0A"/>
<path d="M74.2635 150.274L80.8189 159.117L73.0421 161.862L74.2635 150.274Z" fill="#883D18"/>
<path d="M80.8189 159.117L74.2635 170.709L73.0421 161.862L80.8189 159.117Z" fill="#692B16"/>
<path d="M73.4995 186.642L80.8188 196.784L59.3184 196.249L73.0878 186.921L73.4995 186.871H73.161L73.4995 186.642Z" fill="#635C52"/>
<path d="M80.1327 2.97354L78.1885 10.2928L70.3889 2.28735L80.1327 2.97354Z" fill="#FFC04B"/>
<path d="M74.8719 112.612L79.6752 123.435L63.8929 119.931L74.8719 112.612Z" fill="#FEFC8D"/>
<path d="M79.6752 123.436L70.3888 139.447L64.2726 128.468L79.6752 123.436Z" fill="#FFDA4B"/>
<path d="M79.6752 123.436L64.2727 128.468L64.2635 128.463L63.893 120.082L63.8335 119.959L63.893 119.931L79.6752 123.436Z" fill="#FEF771"/>
<path d="M72.182 51.6926L78.8746 67.3239L78.6413 67.2233L61.6057 59.9268L72.182 51.6926Z" fill="#FDFEF9"/>
<path d="M78.5315 225.219L75.2516 232.539L69.9542 227.127L78.5315 225.219Z" fill="#0F0E0A"/>
<path d="M78.225 103.463L74.8719 112.612L59.7209 111.015L59.6981 111.011L78.225 103.463Z" fill="#FBFCB9"/>
<path d="M78.225 103.463L59.6981 111.011L63.8929 97.0586L78.225 103.463Z" fill="#FFFED7"/>
<path d="M70.3522 2.28735L78.1885 10.2928L70.3888 8.69174L70.3522 2.28735Z" fill="#FDDA5C"/>
<path d="M78.1885 10.2927L76.1299 17.3833L75.9927 17.1775L76.0156 17.1546L75.9653 17.1317L70.3889 8.69165L78.1885 10.2927Z" fill="#FDCE3A"/>
<path d="M76.0339 35.1234L77.6167 47.4428L66.1116 35.8325L75.7868 35.0137L76.0156 34.9954L76.0339 35.1234Z" fill="#FDFDC7"/>
<path d="M77.6166 47.4428L72.182 51.6925L56.5187 45.7456L77.6166 47.4428Z" fill="#FDFDF1"/>
<path d="M75.9652 17.1317L75.9927 17.1775L75.7868 17.3788V17.1546L66.0659 26.6194L64.0668 12.1775L75.9652 17.1317Z" fill="#FDE75D"/>
<path d="M75.7868 34.9954V35.0137L66.1116 35.8326L66.0933 27.0037L75.7868 34.9954Z" fill="#FCFDAD"/>
<path d="M75.7868 17.3787V34.9953L66.0933 27.0035V26.816L75.7868 17.3787Z" fill="#FEFE8F"/>
<path d="M69.9542 227.127L75.2516 232.539L62.0631 225.219L69.9542 227.127Z" fill="#50463D"/>
<path d="M75.2516 232.539L58.4813 232.159L62.0631 225.219L75.2516 232.539Z" fill="#0F0E0A"/>
<path d="M71.2214 212.273L74.721 217.521L66.9442 217.406L71.0247 212.488H71.2123L71.0842 212.415L71.2123 212.26L71.2214 212.273Z" fill="#26231E"/>
<path d="M70.3888 139.447L74.2635 150.275L66.505 147.713L70.2973 139.753H70.2424L70.3888 139.447Z" fill="#C37221"/>
<path d="M74.2635 150.274L73.0421 161.862L66.4639 147.795L66.505 147.713L74.2635 150.274Z" fill="#8D4618"/>
<path d="M73.0421 161.862L74.2635 170.709L63.4355 167.887L73.0421 161.862Z" fill="#531D15"/>
<path d="M74.2635 170.709L73.4995 186.413L65.645 176.5L74.2635 170.709Z" fill="#411C12"/>
<path d="M74.2635 170.709L65.645 176.5L63.4355 167.886L74.2635 170.709Z" fill="#4E2217"/>
<path d="M65.645 176.5L73.4995 186.414L61.6057 186.642L65.645 176.5Z" fill="#3A1F18"/>
<path d="M73.0878 186.921L59.3184 196.249L55.8875 193.275L72.5983 186.981L73.0878 186.921Z" fill="#827E73"/>
<path d="M66.4639 147.795L73.0421 161.862L61.2626 151.647L66.2534 147.8L66.409 147.91L66.4639 147.795Z" fill="#C06C2C"/>
<path d="M73.0421 161.862L63.4355 167.887L52.3056 157.287L73.0421 161.862Z" fill="#8A4422"/>
<path d="M73.0421 161.862L52.3056 157.287L61.2626 151.647L73.0421 161.862Z" fill="#BF722F"/>
<path d="M72.8911 186.871L72.5984 186.981L51.688 189.561L51.2809 189.2L51.5416 186.871H61.6057H72.8911Z" fill="#C4B7AE"/>
<path d="M72.5983 186.981L55.8874 193.275L51.688 189.561L72.5983 186.981Z" fill="#D5CDC3"/>
<path d="M72.182 51.6925L61.6057 59.9268L56.5187 45.7456L72.182 51.6925Z" fill="#FEFFFA"/>
<path d="M70.1464 202.653L71.3632 212.182L71.2214 212.274L71.2122 212.26L70.9423 212.338L53.9799 202.882L52.9414 212.232L52.763 212.182L53.9799 202.653L48.2616 199.909L40.7914 200.746L47.8042 199.831L41.8573 197.621L46.8893 196.02L55.8874 193.275L59.3184 196.249L70.1464 202.653ZM46.967 196.478H59.3184L55.8874 193.504L46.967 196.478Z" fill="#796C63"/>
<path d="M71.0247 212.489L66.9442 217.406L62.3696 214.776L70.4071 212.489H71.0247Z" fill="#3B3734"/>
<path d="M70.9424 212.338L70.4072 212.489H53.8975L52.9415 212.232L53.9799 202.882L70.9424 212.338Z" fill="#635C52"/>
<path d="M70.4071 212.489L62.3696 214.776L53.8975 212.489H70.4071Z" fill="#262217"/>
<path d="M64.2727 128.468L70.3888 139.446L70.2425 139.753H55.0915L54.6523 139.446L64.2132 128.536L64.2727 128.696L64.2635 128.477L64.2727 128.468Z" fill="#EFAF2A"/>
<path d="M70.2425 139.753L66.409 147.681L55.0915 139.753H70.2425Z" fill="#CC7E1C"/>
<path d="M66.9442 217.406L70.1464 222.63L61.6057 220.037L66.9442 217.406Z" fill="#D9CCB9"/>
<path d="M70.1464 222.63L62.0631 225.22L61.6057 220.037L70.1464 222.63Z" fill="#0C0402"/>
<path d="M66.9442 217.406L61.6057 220.037L62.3696 214.776L66.9442 217.406Z" fill="#584E44"/>
<path d="M66.2535 147.8L61.2626 151.647L54.8628 139.835L66.2535 147.8Z" fill="#D18527"/>
<path d="M66.1116 35.8326L56.5188 45.7457L48.9113 35.1099L66.1116 35.8326Z" fill="#FEFDC5"/>
<path d="M66.1116 35.8326L48.9113 35.1098L56.5188 26.5325L66.1116 35.8326Z" fill="#FEFCA7"/>
<path d="M64.0668 12.1775L66.0659 26.6194L65.8692 26.8115L56.5187 26.5325L64.0668 12.1775Z" fill="#FDEF6A"/>
<path d="M63.4355 167.886L65.645 176.5L56.8801 177.493L63.4355 167.886Z" fill="#4B2319"/>
<path d="M65.645 176.5L61.6057 186.642L61.5142 186.693L56.8801 177.722V177.493L65.645 176.5Z" fill="#3F2119"/>
<path d="M64.2361 75.5627L63.893 97.0586L55.4849 84.9726L64.1766 75.5444L64.2361 75.5627Z" fill="white"/>
<path d="M61.6056 59.9268L64.2177 75.3659L64.0622 75.4483L53.1427 73.5361L61.6056 59.9268Z" fill="#FEFFFF"/>
<path d="M64.1812 128.445L64.2132 128.536L54.6523 139.447L45.366 123.436L64.1812 128.445Z" fill="#FBC638"/>
<path d="M61.1482 120.082L64.1812 128.445L45.366 123.436L61.1253 119.936L61.1482 120.082Z" fill="#FDF46B"/>
<path d="M64.0073 75.4803L64.1765 75.5444L55.4849 84.9725L53.1427 73.5361L64.0622 75.4483L64.0073 75.4803Z" fill="white"/>
<path d="M64.0668 12.1776L56.5187 26.5325L54.5334 8.87015L54.6249 8.73291L64.0668 12.1776Z" fill="#FEE75B"/>
<path d="M55.4849 84.9727L63.893 97.0587L52.4565 100.183L55.4849 84.9727Z" fill="#F9FDFE"/>
<path d="M63.893 97.0586L59.6981 111.011L52.4565 100.183L63.893 97.0586Z" fill="#FFFDD7"/>
<path d="M63.4355 167.886L56.8801 177.493L50.7776 170.709L63.4355 167.886Z" fill="#522619"/>
<path d="M63.4355 167.887L50.7776 170.709L52.3056 157.287L63.4355 167.887Z" fill="#4F1600"/>
<path d="M62.3697 214.776L61.6057 220.037L49.4053 217.521L62.3697 214.776Z" fill="#584E44"/>
<path d="M62.3697 214.776L49.4053 217.521L52.7631 212.182L52.9415 212.232L52.914 212.489H53.8976L62.3697 214.776Z" fill="#504B47"/>
<path d="M61.6056 220.037L62.0631 225.22L53.1427 224.305L61.6056 220.037Z" fill="#DED1BF"/>
<path d="M62.0631 225.219L58.4812 232.159L55.8875 226.29L62.0631 225.219Z" fill="#7B746E"/>
<path d="M56.5188 45.7456L61.6057 59.9268L49.7667 54.666L56.5188 45.7456Z" fill="#FEFDF8"/>
<path d="M61.6057 59.9268L53.1427 73.5361H52.914L46.1071 67.3742L46.1665 67.3238L49.7667 54.666L46.2809 67.3238L61.6057 59.9268Z" fill="#FFFCF7"/>
<path d="M61.5142 186.693L61.6057 186.871H51.5416L51.7429 186.528L56.8801 177.722L61.5142 186.693Z" fill="#3F221A"/>
<path d="M61.6057 59.9268L46.2809 67.3238L49.7667 54.666L61.6057 59.9268Z" fill="#FEFFFA"/>
<path d="M61.6057 220.037L53.1428 224.305L49.4053 217.521L61.6057 220.037Z" fill="#817A72"/>
<path d="M54.8627 139.835L61.2626 151.647L50.7776 150.275L54.6523 139.447L54.817 139.753H54.7438L54.8627 139.835Z" fill="#BA6620"/>
<path d="M61.2626 151.647L52.3056 157.287L50.7776 150.274L61.2626 151.647Z" fill="#924708"/>
<path d="M61.1208 119.913L61.1253 119.936L45.366 123.436L50.0732 112.827L50.1693 112.914L50.2104 112.676L50.2562 112.672L61.1208 119.913Z" fill="#FCFA7F"/>
<path d="M52.4566 100.183L59.6981 111.011L50.2562 112.672L50.2196 112.644L52.4566 100.412H52.4154L52.4566 100.183Z" fill="#FEFEC2"/>
<path d="M60.3477 196.944H44.108L55.8372 193.038L60.3477 196.944Z" fill="#080300"/>
<path d="M55.8874 226.29L58.4812 232.159L48.8746 232.539L55.8874 226.29Z" fill="#B0A7A0"/>
<path d="M56.8801 177.493V177.722L51.7429 186.528L51.5416 186.413L50.7776 170.709L56.8801 177.493Z" fill="#412019"/>
<path d="M54.5334 8.87012L56.5188 26.5325L48.9113 17.3834L54.5334 8.87012Z" fill="#FEE85F"/>
<path d="M48.9113 17.3833L56.5188 26.5324L40.2196 28.3623L48.9113 17.3833Z" fill="#FEF679"/>
<path d="M56.5188 26.5325L48.9113 35.1098L40.2196 28.3623L56.5188 26.5325Z" fill="#FCFD95"/>
<path d="M48.9112 35.1099L56.5187 45.7457L47.4245 47.4429L48.9112 35.1099Z" fill="#FDFCCE"/>
<path d="M56.5187 45.7456L49.7667 54.666L47.4245 47.4428L56.5187 45.7456Z" fill="#FCFDEF"/>
<path d="M55.8875 193.275L46.8893 196.02L51.2351 189.158L51.2809 189.199L51.2351 189.616L51.688 189.561L55.8875 193.275Z" fill="#3D3A35"/>
<path d="M55.8874 226.29L48.8746 232.539L53.1427 224.305L55.8874 226.29Z" fill="#CAC5C1"/>
<path d="M53.1427 73.5361L55.4849 84.9725L46.2809 80.6267L42.086 89.5837L46.1665 80.6267L46.0796 80.5993L52.914 73.5361H53.1427Z" fill="white"/>
<path d="M55.4849 84.9727L52.4565 100.183L42.086 89.5838L55.4849 84.9727Z" fill="#FCFDF7"/>
<path d="M55.4849 84.9725L42.086 89.5837L46.2809 80.6267L55.4849 84.9725Z" fill="#FEFFFA"/>
<path d="M45.366 123.436L54.6523 139.447L42.086 143.262L45.366 123.436Z" fill="#D88529"/>
<path d="M54.6523 139.447L50.7777 150.275L42.086 143.262L54.6523 139.447Z" fill="#C97724"/>
<path d="M53.9799 202.653L52.7631 212.182L43.7649 213.71L53.9799 202.653Z" fill="#827E73"/>
<path d="M53.9798 202.653L43.7648 213.71L39.9542 204.941L48.8746 208.143L53.9798 202.653Z" fill="#110C08"/>
<path d="M53.9798 202.653L48.8746 208.143L39.9542 204.941L53.9798 202.653Z" fill="#46423F"/>
<path d="M53.9798 202.653L39.9542 204.94L40.7914 200.746L53.9798 202.653Z" fill="#1D1814"/>
<path d="M53.9799 202.653L40.7914 200.746L48.2616 199.908L53.9799 202.653Z" fill="#1D1814"/>
<path d="M49.4053 217.521L53.1427 224.305L45.5947 225.219L49.4053 217.521Z" fill="#50483D"/>
<path d="M53.1427 224.305L48.8746 232.539L45.5947 225.22L53.1427 224.305Z" fill="#35302C"/>
<path d="M52.7631 212.182L49.4053 217.521L43.7649 213.71L52.7631 212.182Z" fill="#3D3A35"/>
<path d="M42.086 89.5837L52.4565 100.183L52.4154 100.412H36.2168L36.1619 100.403L36.2168 100.105L42.086 89.5837Z" fill="#FDFED2"/>
<path d="M52.4154 100.412L50.183 112.621L50.1693 112.612L49.9131 112.685L36.2169 100.412H52.4154Z" fill="#FDFDBF"/>
<path d="M50.7777 150.274L52.3056 157.287L44.2224 159.117L50.7777 150.274Z" fill="#914313"/>
<path d="M52.3056 157.287L50.7777 170.709L44.2224 159.117L52.3056 157.287Z" fill="#7C3615"/>
<path d="M51.7429 186.528L51.5416 186.871L51.2809 189.199L51.2351 189.158L39.419 190.151L50.247 189.158L41.1711 187.178L51.5416 186.414L51.7429 186.528Z" fill="#3D3A35"/>
<path d="M50.7777 170.709L51.5416 186.413L41.1711 187.177L50.7777 170.709Z" fill="#30150E"/>
<path d="M51.2352 189.158L46.8893 196.02L43.3989 193.275L51.2352 189.158Z" fill="#CABDB4"/>
<path d="M51.2351 189.158L43.3989 193.275L39.419 190.151L51.2351 189.158Z" fill="#51423B"/>
<path d="M50.7777 150.275L44.2223 159.117L34.1583 144.936L50.7777 150.275Z" fill="#B45B23"/>
<path d="M44.2223 159.117L50.7776 170.709L39.9542 166.135L44.2223 159.117Z" fill="#672A18"/>
<path d="M50.7776 170.709L41.1711 187.178L39.9542 166.135L50.7776 170.709Z" fill="#532518"/>
<path d="M50.7777 150.275L34.1583 144.936L42.086 143.262L50.7777 150.275Z" fill="#B05916"/>
<path d="M50.247 189.158L39.419 190.151L41.1711 187.177L50.247 189.158Z" fill="#0B0602"/>
<path d="M50.0732 112.827L45.366 123.436L33.0924 117.415L49.9131 112.685L50.0732 112.827Z" fill="#FEEE65"/>
<path d="M36.2168 100.412L49.9131 112.685L33.0924 117.415L36.1619 100.403L36.2168 100.412Z" fill="#FEFE8E"/>
<path d="M49.4053 217.521L45.5947 225.219L39.9542 221.331L49.4053 217.521Z" fill="#302F2A"/>
<path d="M49.4053 217.521L39.9542 221.331L43.7648 213.71L49.4053 217.521Z" fill="#201F1A"/>
<path d="M46.8527 10.2927L48.9113 17.3833L36.2169 15.4391L46.8527 10.2927Z" fill="#FDD64B"/>
<path d="M48.9113 17.3834L40.2196 28.3624L36.2169 15.4392L48.9113 17.3834Z" fill="#FCE051"/>
<path d="M48.9112 35.1098L38.4492 39.1491L40.2196 28.3623L48.9112 35.1098Z" fill="#FEFDA1"/>
<path d="M45.5947 225.219L48.8747 232.539L42.3148 233.531L45.5947 225.219Z" fill="#3E3B34"/>
<path d="M47.8042 199.831L40.7914 200.746L41.8573 197.621L47.8042 199.831Z" fill="#0F0E0C"/>
<path d="M47.4245 47.4429L38.1245 55.732L38.4492 39.1492L47.4245 47.4429Z" fill="#FEFFDF"/>
<path d="M46.8893 196.02L41.8573 197.621L39.419 190.151L43.3989 193.275L46.8893 196.02Z" fill="#16120F"/>
<path d="M38.1244 55.7319L46.1665 67.3239L46.107 67.3742L46.0522 67.3239V67.4245L35.1876 77.0814L38.1244 55.7319Z" fill="#FEFEF4"/>
<path d="M46.1665 80.6268L42.086 89.5838L35.1876 77.0815L46.0522 80.5902V80.6268L46.0796 80.5994L46.1665 80.6268Z" fill="#FDFDF3"/>
<path d="M45.5947 225.22L38.9615 229.108L39.9542 221.331L45.5947 225.22Z" fill="#141311"/>
<path d="M45.366 123.436L42.086 143.262L36.4456 133.957L45.366 123.436Z" fill="#DB8F1F"/>
<path d="M45.366 123.436L36.4456 133.957L27.2964 122.219L45.366 123.436Z" fill="#FECB3C"/>
<path d="M45.366 123.435L27.2964 122.219L33.0924 117.415L45.366 123.435Z" fill="#FFD23F"/>
<path d="M34.1583 144.936L44.2223 159.117L39.9542 166.135L34.1583 144.936Z" fill="#8D3915"/>
<path d="M39.9542 204.94L43.7649 213.71L37.4382 211.725L39.9542 204.94Z" fill="#0F0E0C"/>
<path d="M43.7649 213.71L37.5892 218.815L37.4382 211.725L43.7649 213.71Z" fill="#0D0D0D"/>
<path d="M35.1876 77.0815L42.086 89.5838L29.2772 83.6369L35.1876 77.0815Z" fill="#FEFDE9"/>
<path d="M42.086 89.5837L36.2168 100.105L29.2772 83.6367L42.086 89.5837Z" fill="#FDFED6"/>
<path d="M36.4455 133.957L42.086 143.262L34.1583 144.936L36.4455 133.957Z" fill="#CB7520"/>
<path d="M39.4188 190.151L41.857 197.621L33.0144 196.02L32.9092 195.906L39.1901 190.151H39.4188Z" fill="#201F1A"/>
<path d="M41.8573 197.621L33.7786 202.882L33.0146 196.02L41.8573 197.621Z" fill="#35302C"/>
<path d="M39.9543 166.135L41.1711 187.178L33.0924 187.786L39.9543 166.135Z" fill="#280F0A"/>
<path d="M41.1711 187.177L39.419 190.151H39.1903L33.0558 187.887L33.0924 187.786L41.1711 187.177Z" fill="#201F1A"/>
<path d="M36.2169 15.4392L40.2196 28.3624L27.2964 32.8592L36.2169 15.4392Z" fill="#FBEB62"/>
<path d="M40.2196 28.3623L38.4492 39.1491L27.2964 32.8591L40.2196 28.3623Z" fill="#FEFD91"/>
<path d="M34.1583 144.936L39.9542 166.135L30.8051 153.783L34.1583 144.936Z" fill="#813116"/>
<path d="M30.8051 153.783L39.9542 166.135L32.4794 170.709L30.8051 153.783Z" fill="#592017"/>
<path d="M39.9543 166.135L33.0924 187.786L32.4794 170.709L39.9543 166.135Z" fill="#37140E"/>
<path d="M39.1903 190.151L32.9094 195.906L32.7859 196.02V187.786L33.0558 187.887L39.1903 190.151Z" fill="#35302C"/>
<path d="M38.4492 39.1492L38.1244 55.732L28.2114 49.0257L38.4492 39.1492Z" fill="#FFFED0"/>
<path d="M38.4492 39.1492L28.2114 49.0256L27.2964 32.8591L38.4492 39.1492Z" fill="#FDFC88"/>
<path d="M38.1244 55.7319L35.1876 77.0814L29.2772 67.3239L38.1244 55.7319Z" fill="#FFFDE6"/>
<path d="M38.1244 55.7319L29.2772 67.3239L28.2114 49.0256L38.1244 55.7319Z" fill="#FEFCD3"/>
<path d="M27.2964 122.219L36.4456 133.957L26.075 134.721L27.2964 122.219Z" fill="#ECA124"/>
<path d="M36.4456 133.957L34.1583 144.936L26.075 134.721L36.4456 133.957Z" fill="#D8842A"/>
<path d="M36.2168 15.4392L28.2113 27.4474L25.3202 22.1867L36.2168 15.4392Z" fill="#FDFFF7"/>
<path d="M29.2772 83.6367L36.2168 100.105L24.7026 102.091L29.2772 83.6367Z" fill="#FDFCA2"/>
<path d="M36.2168 100.105L36.1619 100.403L33.0924 117.415L24.7026 102.091L36.2168 100.105Z" fill="#FDF274"/>
<path d="M29.2772 67.324L35.1875 77.0815L25.3202 73.8016L29.2772 67.324Z" fill="#FFFED5"/>
<path d="M35.1875 77.0815L29.2772 83.6368L25.3202 73.8015L35.1875 77.0815Z" fill="#FFFECE"/>
<path d="M26.075 134.721L34.1583 144.936L30.8051 153.783L26.075 134.721Z" fill="#FFBA6F"/>
<path d="M24.7027 102.091L33.0924 117.415L20.1281 112.612L24.7027 102.091Z" fill="#FDDE4E"/>
<path d="M33.0924 117.415L27.2965 122.219L20.1281 112.612L33.0924 117.415Z" fill="#F7C533"/>
<path d="M28.2114 49.0256L29.2772 67.3239L16.4684 65.3385L28.2114 49.0256Z" fill="#FCFCB6"/>
<path d="M29.2772 67.324L25.3202 73.8016L17.5389 86.5372L16.4684 65.3386L29.2772 67.324Z" fill="#FFFC9F"/>
<path d="M25.3202 73.8015L29.2772 83.6368L17.5389 86.5371L25.3202 73.8015Z" fill="#FDFEBB"/>
<path d="M29.2772 83.6367L24.7026 102.091L17.5389 86.537L29.2772 83.6367Z" fill="#FEFE8E"/>
<path d="M25.3202 22.1865L28.2113 27.4473L13.8792 50.8553L25.3202 22.1865Z" fill="#FDFFF7"/>
<path d="M28.2113 27.4475L27.2964 32.8592L13.8792 50.8556L28.2113 27.4475Z" fill="#FCE65C"/>
<path d="M27.2964 32.8591L28.2113 49.0256L13.8792 50.8555L27.2964 32.8591Z" fill="#FCF374"/>
<path d="M28.2113 49.0256L16.4684 65.3385L13.8792 50.8555L28.2113 49.0256Z" fill="#FDFB80"/>
<path d="M20.1281 112.612L27.2964 122.219L17.5389 119.931L20.1281 112.612Z" fill="#FFC943"/>
<path d="M27.2964 122.219L26.075 134.721L17.5389 119.931L27.2964 122.219Z" fill="#F8BF3C"/>
<path d="M25.3202 22.1865L13.8792 50.8553L15.4803 32.859L25.3202 22.1865Z" fill="#FBC034"/>
<path d="M25.3202 22.1865L15.4803 32.859L20.1281 17.9185L25.3202 22.1865Z" fill="#FFC23F"/>
<path d="M17.5389 86.5371L24.7026 102.091L13.8792 94.3139L17.5389 86.5371Z" fill="#F9ED67"/>
<path d="M24.7026 102.09L20.1281 112.612L13.8792 94.3137L24.7026 102.09Z" fill="#FCCE3D"/>
<path d="M20.1281 17.9185L15.4803 32.859L10.828 30.2698L20.1281 17.9185Z" fill="#FCF583"/>
<path d="M13.8793 94.3137L20.1281 112.612L6.93964 102.09L13.8793 94.3137Z" fill="#FCC336"/>
<path d="M20.1281 112.612L17.5389 119.931L6.93964 102.091L20.1281 112.612Z" fill="#FBF176"/>
<path d="M16.4685 65.3386L17.5389 86.5372L8.38977 77.0815L16.4685 65.3386Z" fill="#FEE25A"/>
<path d="M8.38977 77.0815L17.5389 86.5372L13.8792 94.3139L8.38977 77.0815Z" fill="#FDD84A"/>
<path d="M13.8792 50.8555L16.4684 65.3385L6.71088 51.6148L13.8792 50.8555Z" fill="#FED547"/>
<path d="M6.71088 51.6147L16.4684 65.3384L8.38974 77.0814L6.71088 51.6147Z" fill="#FBD74D"/>
<path d="M15.4803 32.8591L13.8792 50.8555L6.71088 51.6148L15.4803 32.8591Z" fill="#FEBF34"/>
<path d="M15.4803 32.8592L6.71088 51.6149L10.828 30.27L15.4803 32.8592Z" fill="#FBCB43"/>
<path d="M8.38977 77.0815L13.8793 94.3139L6.93964 102.091L8.38977 77.0815Z" fill="#FDC635"/>
<path d="M10.828 30.27L6.71086 51.6149L3.05121 46.1255L10.828 30.27Z" fill="#F3D371"/>
<path d="M6.71089 51.6147L8.38975 77.0814L0 65.3384L6.71089 51.6147Z" fill="#FCD346"/>
<path d="M0 65.3386L8.38975 77.0815L0.763952 82.2645L0 65.3386Z" fill="#FFF888"/>
<path d="M8.38978 77.0815L6.93964 102.091L0.763977 82.2645L8.38978 77.0815Z" fill="#FDD349"/>
<path d="M3.05124 46.1252L6.71089 51.6147L0 65.3384L3.05124 46.1252Z" fill="#FFF391"/>
<path d="M53.8289 202.882H70.2974L71.2123 212.489L53.8289 202.882Z" fill="#131313"/>
<path d="M47.5023 199.716L60.3476 196.944L53.8289 202.882L47.5023 199.716Z" fill="#080300"/>
<path d="M51.2351 189.158L73.4995 186.414L51.5416 186.871L51.2351 189.158Z" fill="#D5CDC3"/>
<path d="M91.9487 187.786L91.5142 196.02L87.6029 194.762L91.9487 187.786Z" fill="#201F1A"/>
<path d="M90.3476 202.882L87.6029 194.762L91.5142 196.02L90.3476 202.882Z" fill="#35302C"/>
<path d="M83.3348 200.746L87.6029 194.762L90.3476 202.882L83.3348 200.746Z" fill="#201F1A"/>
</svg>
