<svg width="251" height="113" viewBox="0 0 251 113" fill="none" xmlns="http://www.w3.org/2000/svg">
<path d="M111.512 72.4468L110.629 71.9774L111.512 72.4468ZM84 26L83.763 25.0285L84 26ZM75.124 57.6182L74.3574 58.2603L75.124 57.6182ZM251 1L239.485 0.140459L244.498 10.5425L251 1ZM0.806931 110.499C1.63401 110.662 2.49041 110.82 3.3742 110.972L3.71336 109.001C2.84475 108.852 2.00403 108.697 1.19307 108.537L0.806931 110.499ZM8.52568 111.747C10.1876 111.963 11.9191 112.157 13.7109 112.325L13.8969 110.333C12.1289 110.168 10.4214 109.977 8.78367 109.764L8.52568 111.747ZM18.918 112.722C20.6136 112.822 22.3507 112.898 24.1226 112.944L24.1754 110.945C22.4257 110.899 20.7105 110.824 19.0364 110.725L18.918 112.722ZM29.3374 112.997C31.0536 112.986 32.7948 112.947 34.5557 112.877L34.4763 110.879C32.7382 110.948 31.0192 110.986 29.3247 110.997L29.3374 112.997ZM39.7579 112.581C41.4783 112.454 43.2119 112.295 44.9541 112.103L44.7345 110.115C43.0169 110.304 41.3072 110.461 39.6099 110.587L39.7579 112.581ZM50.1333 111.432C51.8463 111.177 53.5629 110.887 55.2788 110.56L54.9047 108.596C53.2162 108.917 51.526 109.202 49.8386 109.454L50.1333 111.432ZM60.3883 109.475C62.0814 109.076 63.7694 108.639 65.4481 108.161L64.9003 106.237C63.2524 106.707 61.5943 107.136 59.9301 107.528L60.3883 109.475ZM70.442 106.605C72.0936 106.044 73.7317 105.44 75.3518 104.791L74.6077 102.934C73.0222 103.57 71.4179 104.161 69.799 104.711L70.442 106.605ZM80.1562 102.703C81.7376 101.959 83.2967 101.168 84.8292 100.326L83.8663 98.5732C82.3718 99.3941 80.8501 100.167 79.3052 100.893L80.1562 102.703ZM89.3414 97.6476C90.8129 96.7048 92.2534 95.7094 93.6585 94.6592L92.4612 93.0572C91.0957 94.0778 89.6947 95.0459 88.2624 95.9637L89.3414 97.6476ZM97.7458 91.357C99.0601 90.2091 100.336 89.0055 101.568 87.7439L100.137 86.3465C98.9425 87.5694 97.7056 88.7367 96.4302 89.8506L97.7458 91.357ZM105.089 83.8326C106.197 82.4962 107.26 81.1035 108.275 79.6524L106.635 78.5065C105.653 79.9123 104.623 81.2615 103.549 82.5562L105.089 83.8326ZM111.108 75.2251C111.549 74.4695 111.979 73.6999 112.395 72.9161L110.629 71.9774C110.225 72.7375 109.809 73.4837 109.381 74.2163L111.108 75.2251ZM112.395 72.9161C112.782 72.1885 113.154 71.4703 113.511 70.7616L111.725 69.8617C111.374 70.5571 111.009 71.2623 110.629 71.9774L112.395 72.9161ZM115.556 66.4474C116.229 64.9288 116.83 63.457 117.362 62.0309L115.488 61.332C114.971 62.7182 114.386 64.1528 113.728 65.6369L115.556 66.4474ZM118.88 57.4584C119.351 55.829 119.722 54.2658 120.001 52.767L118.035 52.401C117.769 53.8315 117.412 55.3316 116.959 56.9037L118.88 57.4584ZM120.599 47.9442C120.697 46.2157 120.654 44.5875 120.482 43.0563L118.495 43.2795C118.653 44.6908 118.694 46.2061 118.602 47.831L120.599 47.9442ZM119.42 38.2357C118.861 36.6002 118.123 35.1158 117.233 33.7765L115.567 34.8839C116.361 36.0785 117.024 37.408 117.528 38.8829L119.42 38.2357ZM113.952 30.0298C112.712 28.9382 111.341 28.0054 109.875 27.219L108.93 28.9816C110.273 29.7019 111.515 30.5492 112.63 31.5309L113.952 30.0298ZM105.347 25.3259C103.813 24.8405 102.22 24.4743 100.595 24.2171L100.283 26.1926C101.818 26.4355 103.313 26.78 104.743 27.2327L105.347 25.3259ZM95.7618 23.7666C94.1497 23.7149 92.5286 23.7565 90.9216 23.8835L91.0791 25.8773C92.6154 25.7559 94.1626 25.7163 95.6977 25.7655L95.7618 23.7666ZM86.1271 24.5197C85.3287 24.6692 84.5396 24.8391 83.763 25.0285L84.237 26.9715C84.9781 26.7908 85.7318 26.6284 86.495 26.4856L86.1271 24.5197ZM83.763 25.0285C82.8718 25.2458 81.9811 25.4881 81.0998 25.7573L81.6841 27.6701C82.5261 27.4129 83.3799 27.1806 84.237 26.9715L83.763 25.0285ZM75.914 27.753C74.1727 28.5907 72.547 29.5809 71.1383 30.749L72.415 32.2886C73.6721 31.2461 75.1522 30.3389 76.7811 29.5553L75.914 27.753ZM67.4599 35.1938C66.5918 36.871 66.1045 38.7584 66.1031 40.8641L68.1031 40.8655C68.1043 39.0796 68.5146 37.5071 69.2361 36.1132L67.4599 35.1938ZM67.1348 46.4877C67.6908 48.0795 68.4804 49.7605 69.5257 51.5362L71.2493 50.5216C70.2598 48.8407 69.5295 47.2784 69.023 45.8282L67.1348 46.4877ZM72.6321 56.1084C73.1701 56.8118 73.7448 57.529 74.3574 58.2603L75.8906 56.9761C75.2959 56.2661 74.7398 55.572 74.2208 54.8933L72.6321 56.1084ZM74.3574 58.2603C74.9337 58.9484 75.5562 59.5844 76.2231 60.1697L77.5424 58.6666C76.952 58.1484 76.401 57.5855 75.8906 56.9761L74.3574 58.2603ZM80.6528 63.0412C82.1867 63.7602 83.8516 64.3132 85.634 64.7146L86.0734 62.7635C84.4142 62.3898 82.8889 61.8805 81.5016 61.2303L80.6528 63.0412ZM90.7279 65.4407C92.3655 65.5561 94.0791 65.5774 95.8629 65.5112L95.7888 63.5126C94.0677 63.5764 92.4263 63.5554 90.8686 63.4456L90.7279 65.4407ZM100.965 65.1113C102.598 64.922 104.279 64.6729 106.007 64.368L105.66 62.3985C103.967 62.6972 102.324 62.9403 100.735 63.1247L100.965 65.1113ZM110.984 63.3669C112.588 63.007 114.228 62.6058 115.899 62.1659L115.39 60.2317C113.74 60.666 112.125 61.0612 110.546 61.4154L110.984 63.3669ZM120.763 60.8052C122.345 60.3379 123.952 59.84 125.583 59.3135L124.969 57.4102C123.352 57.932 121.761 58.4249 120.196 58.8872L120.763 60.8052ZM130.368 57.7119C131.935 57.1698 133.521 56.6042 135.125 56.0165L134.437 54.1385C132.843 54.7224 131.269 55.284 129.714 55.8219L130.368 57.7119ZM139.858 54.2402C141.41 53.6445 142.977 53.0303 144.559 52.3988L143.817 50.5414C142.243 51.1698 140.685 51.7807 139.142 52.3731L139.858 54.2402ZM149.215 50.5074C150.752 49.8729 152.301 49.2237 153.861 48.561L153.079 46.7201C151.525 47.3804 149.982 48.0269 148.452 48.6587L149.215 50.5074ZM158.498 46.5662C160.026 45.901 161.563 45.2242 163.109 44.5366L162.296 42.7092C160.755 43.3948 159.222 44.0695 157.7 44.7325L158.498 46.5662ZM167.695 42.4774C169.215 41.7884 170.743 41.0901 172.278 40.3835L171.441 38.5668C169.91 39.2719 168.386 39.9684 166.869 40.6556L167.695 42.4774ZM176.852 38.2618C178.363 37.5565 179.879 36.844 181.399 36.1253L180.545 34.3171C179.027 35.0346 177.514 35.7457 176.006 36.4496L176.852 38.2618ZM185.946 33.9646C187.457 33.243 188.972 32.5161 190.49 31.7847L189.622 29.983C188.106 30.7135 186.593 31.4394 185.085 32.1599L185.946 33.9646ZM195.014 29.5966C196.52 28.8655 198.028 28.1308 199.538 27.3932L198.66 25.5961C197.151 26.3331 195.644 27.0671 194.14 27.7974L195.014 29.5966ZM204.059 25.1794C205.562 24.4416 207.066 23.7017 208.57 22.9605L207.687 21.1664C206.183 21.9073 204.68 22.6467 203.177 23.3841L204.059 25.1794ZM213.082 20.7348C214.585 19.9924 216.088 19.2494 217.59 18.5067L216.703 16.714C215.202 17.4566 213.699 18.1994 212.197 18.9416L213.082 20.7348ZM222.099 16.276C223.604 15.5316 225.107 14.7882 226.607 14.0466L225.721 12.2537C224.22 12.9954 222.717 13.7389 221.212 14.4834L222.099 16.276ZM231.111 11.8223C232.62 11.0782 234.125 10.3366 235.627 9.59848L234.744 7.80367C233.242 8.54226 231.736 9.28419 230.227 10.0286L231.111 11.8223ZM240.14 7.38434C241.648 6.64617 243.152 5.91229 244.65 5.18351L243.775 3.38507C242.275 4.1146 240.77 4.84917 239.261 5.58794L240.14 7.38434Z" fill="url(#paint0_linear_2050_5751)"/>
<defs>
<linearGradient id="paint0_linear_2050_5751" x1="251" y1="-5.49999" x2="1" y2="112" gradientUnits="userSpaceOnUse">
<stop stop-color="#00FFFF" stop-opacity="0.2"/>
<stop offset="1" stop-color="#00FFFF" stop-opacity="0"/>
</linearGradient>
</defs>
</svg>
