<svg width="313" height="91" viewBox="0 0 313 91" fill="none" xmlns="http://www.w3.org/2000/svg">
<path d="M119.5 6.49991L119.769 5.5368L119.5 6.49991ZM213 11.5L213.055 10.5015L213 11.5ZM309.5 91L312.363 79.8134L301.243 82.9277L309.5 91ZM1.66528 33.2465C2.23186 32.7416 2.83428 32.2231 3.47167 31.6932L2.19298 30.1553C1.53892 30.6992 0.919168 31.2325 0.334719 31.7533L1.66528 33.2465ZM7.24476 28.7347C8.46608 27.828 9.77273 26.9022 11.1609 25.966L10.0426 24.3079C8.63013 25.2605 7.29884 26.2037 6.05264 27.1288L7.24476 28.7347ZM15.1957 23.3628C16.5223 22.5436 17.9068 21.7228 19.3469 20.906L18.3602 19.1663C16.8985 19.9954 15.4926 20.8289 14.1448 21.6612L15.1957 23.3628ZM23.5646 18.6121C24.9583 17.8855 26.3954 17.1667 27.8739 16.4597L27.011 14.6554C25.5116 15.3724 24.054 16.1015 22.6401 16.8386L23.5646 18.6121ZM32.256 14.4551C33.7012 13.8235 35.1806 13.2055 36.6927 12.6045L35.954 10.7459C34.4207 11.3553 32.9206 11.982 31.455 12.6225L32.256 14.4551ZM41.1957 10.9024C42.6885 10.3668 44.2094 9.84939 45.7571 9.35303L45.1463 7.44857C43.5766 7.95199 42.0342 8.47671 40.5203 9.01984L41.1957 10.9024ZM50.3705 7.96061C51.897 7.52852 53.4468 7.11811 55.0188 6.73184L54.5415 4.78961C52.9466 5.18153 51.3743 5.5979 49.8258 6.03621L50.3705 7.96061ZM59.709 5.66686C61.2651 5.34248 62.8407 5.04277 64.435 4.7699L64.0977 2.79856C62.4793 3.07555 60.88 3.37976 59.3008 3.70895L59.709 5.66686ZM69.1908 4.04499C70.7676 3.83416 72.3609 3.65047 73.9699 3.49591L73.7786 1.50507C72.1446 1.66204 70.5267 1.84857 68.9257 2.06264L69.1908 4.04499ZM78.7658 3.12605C80.3541 3.03369 81.9564 2.97053 83.5717 2.93836L83.5319 0.938757C81.8908 0.971437 80.2631 1.03561 78.6497 1.12942L78.7658 3.12605ZM88.3808 2.93523C89.9711 2.96493 91.573 3.02543 93.1858 3.11839L93.3009 1.12171C91.6619 1.02724 90.0341 0.965756 88.4181 0.93558L88.3808 2.93523ZM97.9795 3.48885C99.5618 3.64235 101.154 3.82783 102.754 4.0468L103.026 2.06525C101.399 1.84271 99.7807 1.6542 98.1726 1.49819L97.9795 3.48885ZM107.504 4.79161C109.068 5.06851 110.64 5.37813 112.22 5.72181L112.645 3.76754C111.04 3.41828 109.442 3.10363 107.852 2.82222L107.504 4.79161ZM116.897 6.8351C117.673 7.03594 118.451 7.24519 119.231 7.46302L119.769 5.5368C118.977 5.31549 118.186 5.10288 117.397 4.89881L116.897 6.8351ZM119.231 7.46302C120.097 7.70502 120.94 7.95532 121.761 8.21357L122.361 6.30575C121.519 6.04086 120.655 5.78444 119.769 5.5368L119.231 7.46302ZM126.559 9.90965C128.213 10.5649 129.757 11.2567 131.196 11.9809L132.095 10.1944C130.6 9.442 129.002 8.72605 127.296 8.05026L126.559 9.90965ZM135.597 14.4985C137.089 15.4694 138.431 16.4817 139.635 17.5274L140.946 16.0175C139.669 14.9081 138.253 13.8407 136.688 12.8224L135.597 14.4985ZM143.132 21.1043C144.229 22.4413 145.144 23.8163 145.895 25.2169L147.658 24.2721C146.844 22.7546 145.856 21.2713 144.678 19.8355L143.132 21.1043ZM147.773 29.8253C148.238 31.4384 148.523 33.0724 148.648 34.711L150.642 34.5589C150.507 32.7907 150.199 31.0214 149.694 29.2708L147.773 29.8253ZM148.555 39.704C148.373 41.3654 148.048 43.014 147.6 44.6315L149.527 45.1651C150.002 43.4515 150.349 41.6972 150.543 39.9216L148.555 39.704ZM145.909 49.3806C145.229 50.9389 144.448 52.4433 143.589 53.8738L145.304 54.9032C146.205 53.4016 147.027 51.8207 147.742 50.1803L145.909 49.3806ZM140.722 58.0291C139.64 59.4017 138.498 60.6585 137.329 61.7745L138.711 63.2208C139.95 62.0371 141.155 60.7104 142.293 59.2677L140.722 58.0291ZM133.429 64.9081C131.908 65.904 130.425 66.6085 129.05 66.992L129.587 68.9185C131.205 68.4674 132.875 67.6614 134.524 66.5815L133.429 64.9081ZM124.627 66.9165C123.474 66.4232 122.453 65.4408 121.708 63.7606L119.88 64.5715C120.792 66.6282 122.144 68.0292 123.84 68.7552L124.627 66.9165ZM120.609 59.0532C120.538 58.2662 120.5 57.4161 120.5 56.5H118.5C118.5 57.4705 118.54 58.3816 118.618 59.2348L120.609 59.0532ZM120.5 56.5C120.5 55.6685 120.543 54.8493 120.626 54.0424L118.636 53.837C118.546 54.7125 118.5 55.6002 118.5 56.5H120.5ZM121.633 49.2449C122.13 47.6949 122.784 46.1904 123.583 44.7312L121.828 43.7707C120.972 45.335 120.266 46.9564 119.729 48.6346L121.633 49.2449ZM126.316 40.6003C127.313 39.3227 128.426 38.0848 129.644 36.8872L128.242 35.461C126.967 36.7146 125.795 38.0174 124.74 39.3698L126.316 40.6003ZM133.4 33.578C134.686 32.5563 136.049 31.5697 137.483 30.6183L136.377 28.9518C134.9 29.9322 133.489 30.9523 132.156 32.0122L133.4 33.578ZM141.78 27.9869C143.224 27.1693 144.72 26.3828 146.261 25.6276L145.381 23.8316C143.806 24.6032 142.275 25.4082 140.795 26.2466L141.78 27.9869ZM150.869 23.5178C152.406 22.8601 153.977 22.2309 155.577 21.6303L154.874 19.7579C153.247 20.3686 151.648 21.0089 150.082 21.679L150.869 23.5178ZM160.37 19.942C161.97 19.414 163.591 18.9132 165.227 18.4397L164.67 16.5186C163.012 16.9987 161.368 17.5067 159.744 18.0427L160.37 19.942ZM170.135 17.111C171.778 16.6961 173.431 16.308 175.087 15.9468L174.661 13.9927C172.984 14.3584 171.31 14.7515 169.645 15.1719L170.135 17.111ZM180.074 14.9424C181.751 14.632 183.426 14.3493 185.095 14.0942L184.792 12.1172C183.104 12.3754 181.408 12.6616 179.71 12.9758L180.074 14.9424ZM190.137 13.4045C191.838 13.1993 193.525 13.0238 195.191 12.8778L195.017 10.8855C193.328 11.0333 191.62 11.2111 189.898 11.4189L190.137 13.4045ZM200.271 12.5215C201.996 12.4311 203.691 12.3745 205.349 12.3516L205.321 10.3518C203.637 10.375 201.916 10.4326 200.166 10.5242L200.271 12.5215ZM210.424 12.3907C211.278 12.4166 212.119 12.4526 212.945 12.4985L213.055 10.5015C212.212 10.4547 211.355 10.4181 210.485 10.3916L210.424 12.3907ZM212.945 12.4985C213.742 12.5428 214.567 12.6108 215.419 12.7027L215.633 10.7142C214.75 10.6189 213.89 10.5479 213.055 10.5015L212.945 12.4985ZM220.342 13.4467C221.914 13.7463 223.546 14.1124 225.23 14.5446L225.728 12.6075C224.006 12.1655 222.332 11.7901 220.717 11.4821L220.342 13.4467ZM230.068 15.9262C231.623 16.4138 233.211 16.9521 234.825 17.5405L235.51 15.6615C233.868 15.0629 232.251 14.5148 230.666 14.0178L230.068 15.9262ZM239.515 19.3643C241.042 19.9946 242.585 20.6671 244.14 21.3816L244.975 19.5643C243.397 18.839 241.829 18.156 240.278 17.5156L239.515 19.3643ZM248.671 23.5681C250.15 24.3162 251.635 25.1012 253.122 25.9227L254.09 24.1722C252.581 23.3388 251.075 22.5424 249.574 21.7833L248.671 23.5681ZM257.489 28.4397C258.917 29.2977 260.343 30.1892 261.763 31.1139L262.855 29.438C261.414 28.4999 259.968 27.5956 258.519 26.7253L257.489 28.4397ZM265.936 33.9414C267.3 34.9024 268.655 35.8946 269.997 36.9175L271.209 35.3268C269.847 34.2885 268.472 33.2817 267.088 32.3065L265.936 33.9414ZM273.943 40.0453C275.233 41.1088 276.508 42.2018 277.764 43.324L279.096 41.8323C277.82 40.6922 276.525 39.5821 275.215 38.5022L273.943 40.0453ZM281.449 46.753C282.651 47.9179 283.831 49.1109 284.987 50.332L286.439 48.9569C285.263 47.7147 284.063 46.5014 282.842 45.3172L281.449 46.753ZM288.365 54.0602C289.46 55.3251 290.529 56.6172 291.568 57.9364L293.139 56.6986C292.08 55.3546 290.992 54.0386 289.877 52.751L288.365 54.0602ZM294.583 61.9584C295.553 63.3198 296.491 64.7075 297.394 66.1215L299.079 65.045C298.158 63.602 297.201 62.1863 296.212 60.7981L294.583 61.9584ZM299.985 70.4221C300.808 71.8737 301.594 73.3508 302.341 74.8533L304.132 73.9631C303.369 72.4275 302.565 70.9182 301.725 69.4356L299.985 70.4221ZM304.447 79.4065C305.103 80.937 305.718 82.4919 306.289 84.0711L308.17 83.3908C307.585 81.7747 306.956 80.1839 306.285 78.6186L304.447 79.4065Z" fill="url(#paint0_linear_2050_4343)"/>
<defs>
<linearGradient id="paint0_linear_2050_4343" x1="1" y1="46.4568" x2="310" y2="85.5" gradientUnits="userSpaceOnUse">
<stop stop-color="#00FFFF" stop-opacity="0"/>
<stop offset="1" stop-color="#00FFFF" stop-opacity="0.2"/>
</linearGradient>
</defs>
</svg>
