<svg width="250" height="238" viewBox="0 0 250 238" fill="none" xmlns="http://www.w3.org/2000/svg">
<path d="M155.892 55.731H76.1737V112.512H155.892V55.731Z" fill="#212221"/>
<path d="M142.801 100.576H48.7625V145.239H142.801V100.576Z" fill="#EEA222"/>
<path d="M187.105 125.1H61.558V189.994H187.105V125.1Z" fill="#9F9589"/>
<path d="M187.78 85.1582H134.46V149.994H187.78V85.1582Z" fill="#9F9589"/>
<path d="M75.4567 95.0161L116.76 117.057L88.5623 114.476L75.4567 95.0161Z" fill="#C88B2B"/>
<path d="M75.4567 95.0161L88.5624 114.476L62.748 117.057L75.4567 95.0161Z" fill="#DD9827"/>
<path d="M88.5624 114.476L56.3943 130.163L62.7481 117.057L88.5624 114.476Z" fill="#C88B2B"/>
<path d="M88.5623 114.476L108.817 122.32H72.4783L88.5623 114.476Z" fill="#BD7F2B"/>
<path d="M88.5624 114.476L116.76 117.057L108.817 122.32L88.5624 114.476Z" fill="#AD792C"/>
<path d="M116.76 117.057L136.22 120.863L108.817 122.32L116.76 117.057Z" fill="#926428"/>
<path d="M136.22 120.864L121.538 130.163L108.817 122.32L136.22 120.864Z" fill="#62451C"/>
<path d="M108.817 122.32L121.538 130.163L97.6965 128.574L108.817 122.32Z" fill="#765222"/>
<path d="M108.817 122.32L104.588 124.697L83.2006 122.32H108.817Z" fill="#62451C"/>
<path d="M104.588 124.697L97.6964 128.574L83.2006 122.32L104.588 124.697Z" fill="#875E27"/>
<path d="M62.7481 117.057L56.3943 130.163L41.6993 111.299L62.7481 117.057Z" fill="#EEA222"/>
<path d="M53.2169 73.5703L62.7481 117.057L41.6993 111.299L53.2169 73.5703Z" fill="#F8AD1A"/>
<path d="M56.3943 130.163L41.6993 136.12V111.299L56.3943 130.163Z" fill="#DD9827"/>
<path d="M41.6993 111.299V136.12L22.2399 141.481L41.6993 111.299Z" fill="#EEA222"/>
<path d="M53.2168 73.5703L31.969 92.6327L41.6993 111.299L53.2168 73.5703Z" fill="#FCBD17"/>
<path d="M53.2168 73.5703L23.63 88.8603L31.969 92.6327L53.2168 73.5703Z" fill="#FFC93B"/>
<path d="M23.6301 88.8604L31.9691 92.6328L12.3116 100.576L23.6301 88.8604Z" fill="#FFD667"/>
<path d="M31.9691 92.6328L41.6993 111.299L12.3116 100.576L31.9691 92.6328Z" fill="#FFCD42"/>
<path d="M12.3116 100.576L19.2615 123.71L41.6993 111.299L12.3116 100.576Z" fill="#FCBD17"/>
<path d="M41.6993 111.299L22.2398 141.481L19.2615 123.71L41.6993 111.299Z" fill="#F8AD1A"/>
<path d="M19.2615 123.71L22.2398 141.481L9.92822 140.091L19.2615 123.71Z" fill="#FCBD17"/>
<path d="M12.3116 100.576L0 117.057L19.2615 123.71L12.3116 100.576Z" fill="#FFD667"/>
<path d="M0 117.057V132.595L19.2615 123.71L0 117.057Z" fill="#FFC93B"/>
<path d="M0 132.596L9.92825 140.091L19.2615 123.71L0 132.596Z" fill="#FFD664"/>
<path d="M0 132.595L1.98631 147.041L9.92825 140.091L0 132.595Z" fill="#FFCD42"/>
<path d="M1.98633 147.041L5.95675 161.537L9.92827 140.091L1.98633 147.041Z" fill="#FCBD17"/>
<path d="M9.92822 140.091L22.2398 141.481L12.3116 172.061L9.92822 140.091Z" fill="#EEA222"/>
<path d="M5.95679 161.537L12.3117 172.061L9.92831 140.091L5.95679 161.537Z" fill="#F8AD1A"/>
<path d="M12.3116 172.061L17.6734 178.018L16.7132 158.504L12.3116 172.061Z" fill="#DD9827"/>
<path d="M18.2266 153.843L38.4229 147.041L22.2399 141.481L18.2266 153.843Z" fill="#875E27"/>
<path d="M38.4229 147.041L56.3943 130.163L41.6993 136.12L22.2399 141.481L38.4229 147.041Z" fill="#9A6C2A"/>
<path d="M38.4229 147.041L64.9323 140.091L56.3942 130.163L38.4229 147.041Z" fill="#A9722A"/>
<path d="M64.9323 140.091L97.6965 128.574L56.3943 130.163L64.9323 140.091Z" fill="#AD792C"/>
<path d="M56.3943 130.163L72.4783 122.32H83.2007L73.8685 125.514L56.3943 130.163Z" fill="#765222"/>
<path d="M97.6964 128.574L83.2005 122.32L73.8684 125.514L78.4327 129.316L97.6964 128.574Z" fill="#875E27"/>
<path d="M73.8685 125.514L78.4329 129.316L56.3943 130.163L73.8685 125.514Z" fill="#875E27"/>
<path d="M32.7829 84.1301L41.6993 71.5842L27.0055 64.8323L32.7829 84.1301Z" fill="#DED8D0"/>
<path d="M41.6993 71.5842L40.7073 31.075L27.0055 64.8323L41.6993 71.5842Z" fill="#EBE8E3"/>
<path d="M32.7828 84.1301L41.6992 71.5842L53.2167 73.5705L32.7828 84.1301Z" fill="#CFC7BE"/>
<path d="M41.6993 71.5842L40.7073 31.075L53.2168 73.5705L41.6993 71.5842Z" fill="#DED8D0"/>
<path d="M27.0055 64.8322L31.9691 41.4023L34.6054 46.1086L27.0055 64.8322Z" fill="#CFC7BE"/>
<path d="M53.2168 73.5705L61.558 39.4656L46.6694 51.3295L53.2168 73.5705Z" fill="#CFC7BE"/>
<path d="M53.2168 73.5705L75.4566 95.0162L61.558 39.4656L53.2168 73.5705Z" fill="#C3BAAF"/>
<path d="M75.4566 95.0162L91.4923 30.3809L64.929 54.188L75.4566 95.0162Z" fill="#DED8D0"/>
<path d="M64.929 54.188L82.3922 38.5373L84.6414 21.4458L61.558 39.4656L64.929 54.188Z" fill="#CFC7BE"/>
<path d="M75.4567 95.0163L102.661 76.5489L114.427 43.6362L83.5603 58.6666L75.4567 95.0163Z" fill="#CFC7BE"/>
<path d="M46.6694 51.3296L61.5579 39.4656L75.6557 13.4038L46.6694 29.7859L45.5795 47.6253L46.6694 51.3296Z" fill="#EBE8E3"/>
<path d="M61.558 39.4656L73.8685 16.7078L109.662 1.34082L84.207 24.7432L84.4929 22.042L61.558 39.4656Z" fill="#DED8D0"/>
<path d="M104.543 6.04691L122.321 0L115.32 8.63813L84.2069 24.7431L104.543 6.04691Z" fill="#B3A99D"/>
<path d="M46.6694 29.7859L71.5357 9.08472L70.8692 16.1083L46.6694 29.7859Z" fill="#DED8D0"/>
<path d="M45.5796 47.6253L40.7073 31.0749L50.3881 18.616V26.6899L46.6695 29.7859L45.5796 47.6253Z" fill="#CFC7BE"/>
<path d="M73.8684 16.7077L83.0037 5.21216V12.7856L73.8684 16.7077Z" fill="#CFC8BF"/>
<path d="M83.5602 58.6666L95.1459 53.0255L115.32 8.63818L84.2069 24.7431L82.3922 38.5373L91.4923 30.3809L83.5602 58.6666Z" fill="#C3BAAF"/>
<path d="M95.146 53.0253L114.427 43.636L154.34 15.3394L108.675 23.2582L95.146 53.0253Z" fill="#B3A99D"/>
<path d="M114.427 43.6362L127.831 68.4321L102.661 76.5489L114.427 43.6362Z" fill="#C3BAAF"/>
<path d="M114.427 43.6362L150.021 47.3592L127.831 68.4321L114.427 43.6362Z" fill="#B3A99D"/>
<path d="M114.427 43.6361L127.831 45.0384L138.097 26.8547L114.427 43.6361Z" fill="#C3BAAF"/>
<path d="M138.097 26.8548L154.34 23.0835L140.988 46.4144L127.831 45.0385L138.097 26.8548Z" fill="#9F9589"/>
<path d="M102.661 76.5488L80.5896 97.7548L75.4567 95.0162L102.661 76.5488Z" fill="#B3A99D"/>
<path d="M108.675 23.2584L115.32 8.63823L143.319 6.25488L125.141 20.4032L108.675 23.2584Z" fill="#CFC7BE"/>
<path d="M125.141 20.4032L134.784 12.8979L147.191 9.82935L139.864 17.8505L125.141 20.4032Z" fill="#8F8479"/>
<path d="M115.32 8.63813L119.363 3.64817L130.065 0L126.917 7.65048L115.32 8.63813Z" fill="#C3BAAF"/>
<path d="M153.744 60.0931L170.424 56.8904V34.7495L165.063 41.2529L153.744 60.0931Z" fill="#9F9589"/>
<path d="M150.021 47.3591L140.988 46.4144L151.854 27.429L181.891 34.7495L170.424 39.4656V34.7495L165.063 41.2528L150.021 47.3591Z" fill="#8F8479"/>
<path d="M138.097 26.8548L147.871 19.9258L176.828 27.4289L163.455 30.2555L151.854 27.4289L154.34 23.0834L138.097 26.8548Z" fill="#80776C"/>
<path d="M75.4567 95.0161L80.5896 97.7547L85.782 92.8032L75.4567 95.0161Z" fill="#C3BAAF"/>
<path d="M170.424 39.4654L176.828 37.3933L191.721 39.4654L181.891 46.4142L170.424 47.359V39.4654Z" fill="#716860"/>
<path d="M170.424 47.3591V56.8903L191.721 52.1247L196.934 46.4143L181.072 46.4814L170.424 47.3591Z" fill="#8F8479"/>
<path d="M191.721 52.1248L169.382 70.1456L153.744 60.0931L170.424 56.8904L191.721 52.1248Z" fill="#B3A99D"/>
<path d="M153.744 60.093L169.382 70.1455L147.638 71.9328L153.744 60.093Z" fill="#C3BAAF"/>
<path d="M41.6993 146.182L60.9619 176.629L51.3306 143.658L41.6993 146.182Z" fill="#DED8D0"/>
<path d="M51.6781 161.955L47.1116 186.011L60.9618 176.629L51.6781 161.955Z" fill="#CFC7BE"/>
<path d="M51.6782 161.955L30.481 191.373L47.1116 186.011L51.6782 161.955Z" fill="#DED8D0"/>
<path d="M47.1116 186.011L14.9919 210.138L30.481 191.373L47.1116 186.011Z" fill="#EBE8E3"/>
<path d="M47.1116 186.011L31.969 211.478L8.24109 222.201L28.3242 200.124L47.1116 186.011Z" fill="#CFC7BE"/>
<path d="M51.3306 143.658L59.63 141.481L67.4135 178.018L51.3306 143.658Z" fill="#CFC7BE"/>
<path d="M51.3306 143.658L60.9619 176.629L66.174 184.076L67.4135 178.018L51.3306 143.658Z" fill="#C3BAAF"/>
<path d="M60.9619 176.629L51.3306 198.074L31.969 211.478L47.1116 186.011L60.9619 176.629Z" fill="#C3BAAF"/>
<path d="M66.174 184.076L60.9619 176.629L51.3306 198.074L66.174 184.076Z" fill="#B3A99D"/>
<path d="M51.3306 198.074L34.4524 223.393L14.0493 231.583L24.555 214.829L31.969 211.478L51.3306 198.074Z" fill="#B3A99D"/>
<path d="M66.174 184.076L54.8556 227.414L51.3306 198.074L66.174 184.076Z" fill="#DED8D0"/>
<path d="M51.3306 198.074L53.7613 218.299L27.6764 235.754L34.4525 223.393L51.3306 198.074Z" fill="#C3BAAF"/>
<path d="M67.4136 178.018L73.8685 203.436L54.8556 227.414L66.174 184.076L67.4136 178.018Z" fill="#CFC7BE"/>
<path d="M59.63 141.481L83.2007 190.777L69.1689 138.602L64.9323 140.091L59.63 141.481Z" fill="#C3BAAF"/>
<path d="M59.63 141.481L67.4136 178.018L83.2007 190.777L59.63 141.481Z" fill="#DED8D0"/>
<path d="M67.4136 178.018L73.8685 203.436L83.2007 190.777L67.4136 178.018Z" fill="#C3BAAF"/>
<path d="M83.2006 190.777L89.705 181.841L69.1688 138.602L83.2006 190.777Z" fill="#CFC7BE"/>
<path d="M64.3615 215.424L66.174 235.754L79.4369 213.265L73.8685 203.436L64.3615 215.424Z" fill="#DED8D0"/>
<path d="M73.8684 203.436L79.4369 213.265L83.2005 190.777L73.8684 203.436Z" fill="#CFC7BE"/>
<path d="M83.2005 190.777L89.705 181.841L98.4916 191.373L79.4369 213.265L83.2005 190.777Z" fill="#DED8D0"/>
<path d="M69.1688 138.602L78.535 135.31L89.705 181.841L69.1688 138.602Z" fill="#B3A99D"/>
<path d="M78.5352 135.31L100.13 180.65L88.5624 131.785L78.5352 135.31Z" fill="#9F9589"/>
<path d="M89.7051 181.841L98.4917 191.373L100.13 180.65L78.5352 135.31L89.7051 181.841Z" fill="#C3BAAF"/>
<path d="M88.5624 131.785L97.6965 128.574L112.492 181.841L88.5624 131.785Z" fill="#8F8479"/>
<path d="M88.5624 131.785L100.13 180.65L109.617 192.862L112.492 181.841L88.5624 131.785Z" fill="#B3A99D"/>
<path d="M97.6965 128.574L131.107 187.352L112.492 181.841L97.6965 128.574Z" fill="#80776C"/>
<path d="M97.6965 128.574L102.253 136.589L121.538 130.163L97.6965 128.574Z" fill="#716860"/>
<path d="M102.253 136.589L118.448 145.8L131.107 187.352L102.253 136.589Z" fill="#8F8479"/>
<path d="M102.253 136.589L121.538 130.163L118.448 145.8L102.253 136.589Z" fill="#80776C"/>
<path d="M121.538 130.163L136.219 120.864L118.448 145.8L121.538 130.163Z" fill="#716860"/>
<path d="M136.219 120.864L133.341 149.673L118.448 145.8L136.219 120.864Z" fill="#80776C"/>
<path d="M118.448 145.8L140.787 182.883L131.107 187.352L118.448 145.8Z" fill="#80776C"/>
<path d="M118.448 145.8L133.341 149.673L140.787 182.883L118.448 145.8Z" fill="#9F9488"/>
<path d="M98.4916 191.373V219.595L79.4369 213.265L98.4916 191.373Z" fill="#C3BAAF"/>
<path d="M79.4369 213.265L83.2005 235.158L98.4916 219.595L79.4369 213.265Z" fill="#B3A99D"/>
<path d="M100.13 180.65L104.588 213.265L98.4917 219.595V191.373L100.13 180.65Z" fill="#DED8D0"/>
<path d="M104.588 213.265L98.4917 228.605V219.595L104.588 213.265Z" fill="#8F8479"/>
<path d="M100.13 180.65L104.588 213.265L109.617 192.862L100.13 180.65Z" fill="#CFC7BE"/>
<path d="M104.588 213.265L127.334 202.021L112.492 181.841L104.588 213.265Z" fill="#C3BAAF"/>
<path d="M104.588 213.265L102.253 237.689L127.334 202.021L104.588 213.265Z" fill="#B3A99D"/>
<path d="M112.491 181.841L131.107 187.352L127.334 202.021L112.491 181.841Z" fill="#9F9589"/>
<path d="M127.334 202.021L115.96 218.195L141.979 217.286L127.334 202.021Z" fill="#9F9589"/>
<path d="M115.96 218.195L133.49 237.689L141.979 217.286L115.96 218.195Z" fill="#8F8479"/>
<path d="M141.979 217.286L140.787 182.883L131.107 187.352L127.334 202.02L141.979 217.286Z" fill="#B3A99D"/>
<path d="M140.787 182.883L141.979 217.286L152.404 212.223L140.787 182.883Z" fill="#CFC7BE"/>
<path d="M141.979 217.286L154.935 237.689L152.404 212.223L141.979 217.286Z" fill="#C3BAAF"/>
<path d="M140.787 182.883L169.53 205.968L152.404 212.223L140.787 182.883Z" fill="#C3BAAF"/>
<path d="M169.53 205.968L154.935 237.69L152.404 212.223L169.53 205.968Z" fill="#B3A99D"/>
<path d="M133.341 149.673L169.53 205.968L140.787 182.883L133.341 149.673Z" fill="#8F8479"/>
<path d="M169.53 205.968L164.323 217.286L177.275 228.753L180.998 218.195L169.53 205.968Z" fill="#9F9589"/>
<path d="M133.341 149.673L169.53 205.968V179.31L133.341 149.673Z" fill="#9F9589"/>
<path d="M169.53 205.968L179.658 187.352L169.53 179.31V205.968Z" fill="#B3A99D"/>
<path d="M169.53 205.968L180.998 218.195L188.444 222.648V215.797L169.53 205.968Z" fill="#80776C"/>
<path d="M169.53 205.968L188.444 215.797L199.168 219.856L175.267 195.423L169.53 205.968Z" fill="#C3BAAF"/>
<path d="M175.267 195.423L199.168 219.856L195.742 196.734L175.267 195.423Z" fill="#9F9589"/>
<path d="M179.658 187.352L195.742 196.734L175.267 195.423L179.658 187.352Z" fill="#8F8479"/>
<path d="M148.79 162.323L146.595 142.822L133.341 149.673L148.79 162.323Z" fill="#80776C"/>
<path d="M146.595 142.822L148.79 162.323L169.53 179.31L146.595 142.822Z" fill="#8F8479"/>
<path d="M136.219 120.864L146.595 142.822L133.341 149.673L136.219 120.864Z" fill="#8F8479"/>
<path d="M136.219 121.526L156.276 112.887L146.595 142.822L136.219 121.526Z" fill="#9F9589"/>
<path d="M169.53 179.31L194.402 182.883L195.742 196.734L179.658 187.352L169.53 179.31Z" fill="#80776C"/>
<path d="M146.595 142.822L182.636 181.193L169.53 179.31L146.595 142.822Z" fill="#CFC7BE"/>
<path d="M194.402 182.883L146.595 142.822L182.636 181.193L194.402 182.883Z" fill="#B3A99D"/>
<path d="M146.595 142.822L188.444 165.608L194.402 182.883L146.595 142.822Z" fill="#9F9589"/>
<path d="M146.595 142.822L199.168 157.417L188.444 165.608L146.595 142.822Z" fill="#8F8479"/>
<path d="M53.2168 73.5703L61.558 94.0482L70.2159 104.105L62.748 117.057L53.2168 73.5703Z" fill="#EEA222"/>
<path d="M126.502 75.052L142.574 64.9324L127.831 68.4321L126.502 75.052Z" fill="#3D372F"/>
<path d="M61.558 94.0482L64.3615 88.8031L53.2168 73.5703L61.558 94.0482Z" fill="#F8AD1A"/>
<path d="M61.558 94.0483L67.4135 95.3143L70.2159 104.105L61.558 94.0483Z" fill="#A9722A"/>
<path d="M61.558 94.0484L64.3615 88.8032L67.4135 91.4252L61.558 94.0484Z" fill="#A9722A"/>
<path d="M67.4135 91.4253V95.3143L61.558 94.0484L67.4135 91.4253Z" fill="#62451C"/>
<path d="M67.4136 91.4253L69.7969 92.7077L67.4136 95.3143V91.4253Z" fill="#896127"/>
<path d="M69.7969 92.7075L75.4567 95.0161L70.216 104.349L67.4136 95.3141L69.7969 92.7075Z" fill="#C88B2B"/>
<path d="M75.4566 95.0161L69.7969 92.7075L67.4135 91.4251L64.3615 88.8031L53.2168 73.5703L75.4566 95.0161Z" fill="#EEA222"/>
<path d="M80.5896 97.7547L92.6856 94.5718L104.151 110.328L80.5896 97.7547Z" fill="#CFC7BE"/>
<path d="M92.6855 94.5718L104.151 110.328L116.76 101.966L92.6855 94.5718Z" fill="#B3A99D"/>
<path d="M92.6855 94.5718L110.158 96.8033L116.462 98.5906L116.76 101.966L92.6855 94.5718Z" fill="#716860"/>
<path d="M104.151 110.328L116.76 117.057L146.595 90.2505L116.76 101.966L104.151 110.328Z" fill="#DED8D0"/>
<path d="M116.76 117.057L135.54 120.73L146.595 90.2505L116.76 117.057Z" fill="#C3BAAF"/>
<path d="M126.502 91.8389L119.54 95.7114L116.76 95.0163L116.462 98.5908L121.923 97.7549L126.502 91.8389Z" fill="#2A2A2A"/>
<path d="M112.708 88.4634L109.657 91.687L116.76 95.0162L119.54 95.7113V91.2933L112.708 88.4634Z" fill="#E0BA23"/>
<path d="M119.54 91.2932V95.7112L126.502 89.0594L124.743 87.8672L119.54 91.2932Z" fill="#BFA02F"/>
<path d="M126.502 89.0594L126.263 81.8533L131.653 83.3996L126.263 92.15L126.502 89.0594Z" fill="#2A2A2A"/>
<path d="M116.76 101.966L116.462 98.5908L121.923 97.7549L126.502 91.8389L126.176 98.2685L116.76 101.966Z" fill="#80776C"/>
<path d="M126.176 98.2684L126.502 91.8387L131.653 83.3997L134.46 95.0162L126.176 98.2684Z" fill="#716860"/>
<path d="M131.653 83.3997L146.595 90.2506L134.46 95.0162L131.653 83.3997Z" fill="#B3A99D"/>
<path d="M142.574 64.9324L139.005 86.7708L131.653 83.3998L135.624 79.0312L142.574 64.9324Z" fill="#716860"/>
<path d="M140.787 75.8657L146.595 90.2505L139.005 86.7706L140.787 75.8657Z" fill="#80776C"/>
<path d="M146.595 90.2505L141.764 119.138L147.638 116.607L146.595 90.2505Z" fill="#C3BAAF"/>
<path d="M135.54 120.73L136.22 121.526L141.764 119.138L146.595 90.2505L135.54 120.73Z" fill="#B3A99D"/>
<path d="M146.595 90.2505L147.638 116.607L151.436 114.972L146.595 90.2505Z" fill="#B3A99D"/>
<path d="M146.595 90.2505L156.276 112.887L151.436 114.972L146.595 90.2505Z" fill="#C3BAAF"/>
<path d="M146.595 90.2505L170.498 108.568L156.276 112.887L146.595 90.2505Z" fill="#B3A99D"/>
<path d="M146.595 90.2505L183.679 101.569L170.498 108.568L146.595 90.2505Z" fill="#DED8D0"/>
<path d="M146.595 90.2506L164.616 83.0334L164.486 95.7113L146.595 90.2506Z" fill="#C3BAAF"/>
<path d="M146.595 90.2505L140.787 75.8657L164.616 83.0334L146.595 90.2505Z" fill="#716860"/>
<path d="M164.616 83.0334L164.486 95.7113L187.105 92.7076L164.616 83.0334Z" fill="#9F9589"/>
<path d="M173.303 86.7707L192.763 72.4904L169.382 70.1455L154.34 79.9429L164.616 83.0334L173.303 86.7707Z" fill="#B3A99D"/>
<path d="M140.787 75.8658L147.638 71.9327L169.382 70.1455L154.34 79.9429L140.787 75.8658Z" fill="#8F8479"/>
<path d="M140.787 75.8658L147.638 71.9328L153.744 60.093L142.574 64.9323L140.787 75.8658Z" fill="#9F9589"/>
<path d="M127.831 68.4319L142.574 64.9322L153.744 60.0929L165.063 41.2527L150.021 47.359L127.831 68.4319Z" fill="#716860"/>
<path d="M169.382 70.1456L191.721 52.1248L214.805 58.6776L198.348 71.3367L192.763 72.4905L169.382 70.1456Z" fill="#9F9589"/>
<path d="M191.721 52.1247L194.244 49.3608H206.688L202.397 55.1559L191.721 52.1247Z" fill="#716860"/>
<path d="M192.763 72.4905L187.105 92.7077L173.303 86.7708L192.763 72.4905Z" fill="#DED8D0"/>
<path d="M187.105 92.7076L202.891 93.7502L210.635 83.3997L187.105 92.7076Z" fill="#B3A99D"/>
<path d="M192.763 72.4905L187.105 92.7077L210.635 83.3998L192.763 72.4905Z" fill="#C3BAAF"/>
<path d="M192.763 72.4904L205.055 79.9935L222.921 69.401L206.175 65.3162L198.348 71.3367L192.763 72.4904Z" fill="#8F8479"/>
<path d="M156.276 112.887L170.498 108.568L146.595 142.822L156.276 112.887Z" fill="#8F8479"/>
<path d="M163.64 118.398L191.721 127.838L146.595 142.822L163.64 118.398Z" fill="#B3A99D"/>
<path d="M146.595 142.822L169.53 135.207L184.35 153.303L146.595 142.822Z" fill="#DED8D0"/>
<path d="M169.53 135.207L191.721 127.838L184.35 153.303L169.53 135.207Z" fill="#C3BAAF"/>
<path d="M191.721 127.838L184.349 153.303L199.168 157.417L191.721 127.838Z" fill="#9F9589"/>
<path d="M199.168 157.417L206.688 139.097L191.721 127.838L199.168 157.417Z" fill="#DED8D0"/>
<path d="M163.64 118.398L170.498 108.568L177.686 123.119L163.64 118.398Z" fill="#DED8D0"/>
<path d="M170.498 108.568L191.721 127.838L177.686 123.119L170.498 108.568Z" fill="#C3BAAF"/>
<path d="M170.498 108.568L183.679 101.569L191.721 127.838L170.498 108.568Z" fill="#B3A99D"/>
<path d="M191.721 127.837L216.045 122.32L206.688 139.097L191.721 127.837Z" fill="#C3BAAF"/>
<path d="M191.721 127.838L183.679 101.569L216.045 122.32L191.721 127.838Z" fill="#9F9589"/>
<path d="M141.979 217.286L147.638 226.198L144.808 235.158L138.788 224.956L141.979 217.286Z" fill="#716860"/>
<path d="M164.323 217.286L161.857 222.648L167.395 228.753L169.53 221.897L164.323 217.286Z" fill="#716860"/>
<path d="M195.742 196.734L207.842 202.838L210.635 213.265L197.357 207.639L195.742 196.734Z" fill="#716860"/>
<path d="M194.402 182.883L213.067 203.831L207.842 202.838L195.742 196.734L194.402 182.883Z" fill="#DED8D0"/>
<path d="M213.067 203.831L210.634 187.352L194.402 182.883L213.067 203.831Z" fill="#C3BAAF"/>
<path d="M199.168 157.417L194.402 182.884L188.444 165.608L199.168 157.417Z" fill="#B3A99D"/>
<path d="M199.168 157.417L213.86 179.31L194.402 182.884L199.168 157.417Z" fill="#DED8D0"/>
<path d="M213.86 179.31L194.402 182.883L210.634 187.352L226.569 191.122L213.86 179.31Z" fill="#9F9589"/>
<path d="M213.86 179.31L227.959 159.549L226.569 191.122L213.86 179.31Z" fill="#8F8479"/>
<path d="M213.86 179.31L227.959 159.549L199.168 157.417L213.86 179.31Z" fill="#C3BAAF"/>
<path d="M210.635 187.352L222.921 190.259V198.668L211.826 195.423L210.635 187.352Z" fill="#716860"/>
<path d="M206.688 139.097L199.168 157.417L227.959 159.549L206.688 139.097Z" fill="#B3A99D"/>
<path d="M210.486 132.289L226.569 137.309L241.462 153.303H221.464L206.688 139.097L210.486 132.289Z" fill="#8F8479"/>
<path d="M227.959 159.549L237.887 170.151L227.399 172.268L227.959 159.549Z" fill="#716860"/>
<path d="M221.464 153.303H232.643L241.462 160.343L227.959 159.549L221.464 153.303Z" fill="#716860"/>
<path d="M227.399 172.268L231.462 179.31L227.007 181.193L227.399 172.268Z" fill="#716860"/>
<path d="M210.486 132.289L216.045 122.32L236.3 127.855L245.632 142.627L227.007 137.779L210.486 132.289Z" fill="#80776C"/>
<path d="M227.007 137.779L237.887 140.611L243.646 148.231L235.326 146.714L227.007 137.779Z" fill="#716860"/>
<path d="M216.045 122.32L236.895 114.703L250 129.763L236.3 127.855L216.045 122.32Z" fill="#8F8479"/>
<path d="M216.045 122.32L218.031 107.127L183.679 101.569L216.045 122.32Z" fill="#B3A99D"/>
<path d="M216.045 122.32L236.895 114.703L218.031 107.126L216.045 122.32Z" fill="#C3BAAF"/>
<path d="M236.894 114.703L229.235 105.888L218.031 107.127L236.894 114.703Z" fill="#9F9589"/>
<path d="M229.235 105.888L202.891 93.7502L183.679 101.569L218.031 107.126L229.235 105.888Z" fill="#C3BAAF"/>
<path d="M183.679 101.569L202.89 93.7502L187.105 92.7075L164.486 95.7112L183.679 101.569Z" fill="#8F8479"/>
<path d="M202.891 93.7502L210.635 83.3997L229.235 105.888L202.891 93.7502Z" fill="#9F9589"/>
<path d="M226.47 102.546L231.336 99.2856L247.122 114.078L236.894 114.703L226.47 102.546Z" fill="#716860"/>
<path d="M226.47 102.546L235.326 96.4064L210.635 83.3997L226.47 102.546Z" fill="#8F8479"/>
<path d="M210.635 83.3997L226.47 80.4214L235.326 86.7708L224.703 90.8105L210.635 83.3997Z" fill="#716860"/>
<path d="M210.635 83.3998L233.52 79.2303L229.235 76.5489L215.447 73.8323L205.055 79.9936L210.635 83.3998Z" fill="#B3A99D"/>
<path d="M116.76 117.057V101.966L104.151 110.328L116.76 117.057Z" fill="white"/>
<path d="M146.595 90.2505L141.764 119.138L144.701 118.203L146.595 90.2505Z" fill="white"/>
<path d="M92.6856 94.5718L93.593 104.694L80.5896 97.7547L92.6856 94.5718Z" fill="white"/>
<path d="M41.6993 71.5842L40.7072 31.075L34.8407 68.4321L41.6993 71.5842Z" fill="white"/>
<path d="M83.5603 58.6666L114.427 43.6362L75.4567 95.0163L83.5603 58.6666Z" fill="white"/>
<path d="M64.929 54.1879L75.6557 44.5742L75.4566 95.0161L64.929 54.1879Z" fill="white"/>
<path d="M46.6694 51.3294L45.5795 47.6252L46.6694 29.7858L63.2704 20.4031L46.6694 51.3294Z" fill="white"/>
<path d="M61.558 39.4656L53.2168 73.5705L61.9693 82.0096L61.558 39.4656Z" fill="#DED8D0"/>
<path d="M135.624 79.0312L126.502 75.052L131.653 83.3998L135.624 79.0312Z" fill="black"/>
<path d="M126.502 75.052L131.653 83.3998L126.502 82.0096V75.052Z" fill="#191818"/>
<path d="M126.502 82.0096V75.052L121.922 79.0312L126.502 82.0096Z" fill="#212221"/>
<path d="M126.502 75.0519L116.165 74.6626L121.922 79.0312L126.502 75.0519Z" fill="black"/>
<path d="M131.653 83.3996L126.502 91.8387L126.262 81.8533L131.653 83.3996Z" fill="#2A2A2A"/>
<path d="M126.502 91.8389L119.54 95.7114L126.502 89.0596V91.8389Z" fill="black"/>
<path d="M121.922 79.0312L116.165 74.6626L111.002 81.8533L121.922 79.0312Z" fill="#212221"/>
<path d="M116.165 74.6626L111.002 81.8533L104.151 80.4214L116.165 74.6626Z" fill="#2A2A2A"/>
<path d="M111.002 81.8534L104.151 87.8673V80.4214L111.002 81.8534Z" fill="#30302F"/>
<path d="M104.151 80.4214V87.8673L97.6963 90.2506L104.151 80.4214Z" fill="#212221"/>
<path d="M104.151 87.8672L101.545 92.7076L97.6963 90.2505L104.151 87.8672Z" fill="black"/>
<path d="M101.545 92.7078L92.6854 94.572L97.6963 90.2507L101.545 92.7078Z" fill="#191818"/>
<path d="M92.6854 94.572L110.157 96.8036L101.545 92.7078L92.6854 94.572Z" fill="#30302F"/>
<path d="M101.545 92.7076L104.151 87.8672L110.158 96.8034L101.545 92.7076Z" fill="#212221"/>
<path d="M109.657 83.0334L108.817 91.2932L110.157 96.8034L108.484 94.3123L104.151 87.8672L109.657 83.0334Z" fill="#050706"/>
<path d="M108.817 91.2932L116.76 95.0162L110.157 96.8034L108.817 91.2932Z" fill="#212221"/>
<path d="M110.157 96.8036L116.462 98.5908L116.76 95.0164L110.157 96.8036Z" fill="#30302F"/>
<path d="M111.002 81.8533L109.657 83.0334L108.817 91.2932L109.657 91.6869L112.708 88.4633L111.002 81.8533Z" fill="#F9D232"/>
<path d="M111.002 81.8534L118.448 84.1444L121.922 79.0312L111.002 81.8534Z" fill="black"/>
<path d="M126.502 89.0596L126.262 81.8534L121.922 79.0312L124.212 82.0096L124.742 87.8674L126.502 89.0596Z" fill="#9A7F2E"/>
<path d="M118.448 84.1442L111.002 81.8533L112.708 88.4633L118.448 84.1442Z" fill="#191818"/>
<path d="M112.708 88.4634L119.54 91.2932L118.448 84.1443L112.708 88.4634Z" fill="#212221"/>
<path d="M118.448 84.1443L119.54 91.2932L124.742 87.8672L118.448 84.1443Z" fill="#2A2A2A"/>
<path d="M118.448 84.1444L121.922 79.0312L124.212 82.0096L124.742 87.8674L118.448 84.1444Z" fill="#30302F"/>
<path d="M118.448 84.1444L121.922 79.0312L124.212 82.0096L118.448 84.1444Z" fill="#49494A"/>
<path d="M118.448 84.1442L122.374 79.6184L123.209 80.705L118.448 84.1442Z" fill="white"/>
<path d="M118.448 84.1443L114.725 89.2981L116.76 90.1417L118.448 84.1443Z" fill="#49494A"/>
<path d="M142.574 64.9324L135.624 79.0312L126.502 75.052L142.574 64.9324Z" fill="#231F1C"/>
<path d="M80.5894 97.7548L102.661 76.5488L104.151 80.4214L80.5894 97.7548Z" fill="#332E28"/>
<path d="M102.661 76.5488L104.151 80.4214L116.165 74.6626L102.661 76.5488Z" fill="#3D372F"/>
<path d="M102.661 76.5489L127.831 68.4321L126.502 75.0521L116.462 74.6627L102.661 76.5489Z" fill="#332E28"/>
<path d="M104.151 80.4214L97.6963 90.2506L80.5894 97.7548L104.151 80.4214Z" fill="black"/>
<path d="M97.6963 90.2507L92.6854 94.572L80.5894 97.7549L97.6963 90.2507Z" fill="#212221"/>
</svg>
