<svg width="164" height="50" viewBox="0 0 164 50" fill="none" xmlns="http://www.w3.org/2000/svg">
<path d="M161.991 1.81487C161.899 0.792681 160.996 0.0409178 159.974 0.13576L143.32 1.6813C142.298 1.77614 141.544 2.68168 141.635 3.70386C141.727 4.72605 142.63 5.47782 143.652 5.38297L158.456 4.00916L159.783 18.8158C159.875 19.838 160.778 20.5898 161.8 20.495C162.822 20.4001 163.576 19.4946 163.484 18.4724L161.991 1.81487ZM4.28503 34.9838C5.20393 35.4378 6.31902 35.0595 6.77566 34.1387C7.23229 33.218 6.85756 32.1036 5.93866 31.6496L4.28503 34.9838ZM13.8008 35.1657C12.8506 34.7811 11.7664 35.241 11.379 36.1928C10.9917 37.1446 11.448 38.228 12.3982 38.6126L13.8008 35.1657ZM20.7333 41.6703C21.7066 41.9925 22.759 41.4634 23.084 40.4887C23.409 39.514 22.8834 38.4627 21.9101 38.1405L20.7333 41.6703ZM30.195 40.6027C29.2037 40.3406 28.1853 40.9328 27.9202 41.9253C27.6552 42.9179 28.2439 43.935 29.2352 44.1971L30.195 40.6027ZM37.8744 46.2055C38.8798 46.4076 39.8611 45.7555 40.0662 44.749C40.2713 43.7425 39.6226 42.7628 38.6172 42.5607L37.8744 46.2055ZM47.1464 44.0082C46.1305 43.8674 45.1903 44.5777 45.0465 45.5946C44.9027 46.6115 45.6097 47.5499 46.6257 47.6906L47.1464 44.0082ZM55.4534 48.6358C56.4764 48.713 57.3708 47.9458 57.4511 46.9221C57.5315 45.8985 56.7674 45.006 55.7444 44.9288L55.4534 48.6358ZM64.3715 45.303C63.3455 45.2918 62.5021 46.1149 62.4877 47.1414C62.4733 48.1679 63.2934 49.0091 64.3194 49.0204L64.3715 45.303ZM73.2089 48.8213C74.2335 48.7637 75.0201 47.8861 74.9657 46.8612C74.9113 45.8362 74.0365 45.052 73.0118 45.1096L73.2089 48.8213ZM81.6088 44.327C80.5904 44.4558 79.8667 45.3859 79.9923 46.4044C80.118 47.4228 81.0454 48.144 82.0638 48.0151L81.6088 44.327ZM90.847 46.5815C91.8536 46.3794 92.5084 45.3996 92.3095 44.3931C92.1106 43.3866 91.1334 42.7346 90.1267 42.9366L90.847 46.5815ZM98.5198 40.9256C97.5307 41.202 96.9504 42.2276 97.2237 43.2162C97.497 44.2049 98.5203 44.7822 99.5093 44.5058L98.5198 40.9256ZM107.992 41.785C108.957 41.4343 109.458 40.3679 109.11 39.403C108.763 38.4382 107.699 37.9404 106.733 38.2911L107.992 41.785ZM114.723 35.0377C113.787 35.4612 113.369 36.5627 113.79 37.4978C114.21 38.4329 115.31 38.8476 116.246 38.4241L114.723 35.0377ZM124.227 34.4384C125.128 33.9446 125.461 32.8147 124.97 31.9147C124.479 31.0146 123.351 30.6853 122.45 31.179L124.227 34.4384ZM129.85 26.7552C128.988 27.315 128.741 28.4664 129.298 29.3269C129.855 30.1874 131.005 30.4312 131.867 29.8714L129.85 26.7552ZM139.161 24.7444C139.98 24.1234 140.143 22.9573 139.525 22.1398C138.907 21.3224 137.741 21.1632 136.922 21.7842L139.161 24.7444ZM143.633 16.3133C142.86 16.9899 142.779 18.1643 143.453 18.9363C144.127 19.7084 145.3 19.7857 146.074 19.109L143.633 16.3133ZM152.561 13.0432C153.289 12.317 153.292 11.1401 152.568 10.4145C151.845 9.68885 150.668 9.68933 149.941 10.4155L152.561 13.0432ZM155.87 4.11371C155.189 4.88365 155.259 6.05826 156.026 6.73727C156.794 7.41628 157.968 7.34257 158.649 6.57263L155.87 4.11371ZM0.349906 32.9326C1.59425 33.6177 2.90737 34.3031 4.28503 34.9838L5.93866 31.6496C4.60811 30.9922 3.3436 30.332 2.14909 29.6744L0.349906 32.9326ZM12.3982 38.6126C15.0262 39.6761 17.8106 40.703 20.7333 41.6703L21.9101 38.1405C19.0634 37.1983 16.3542 36.1991 13.8008 35.1657L12.3982 38.6126ZM29.2352 44.1971C32.024 44.9344 34.9079 45.6092 37.8744 46.2055L38.6172 42.5607C35.7251 41.9794 32.9137 41.3215 30.195 40.6027L29.2352 44.1971ZM46.6257 47.6906C49.5104 48.0902 52.4563 48.4095 55.4534 48.6358L55.7444 44.9288C52.8265 44.7085 49.9573 44.3975 47.1464 44.0082L46.6257 47.6906ZM64.3194 49.0204C67.2477 49.0524 70.2137 48.9897 73.2089 48.8213L73.0118 45.1096C70.1023 45.2731 67.2194 45.3342 64.3715 45.303L64.3194 49.0204ZM82.0638 48.0151C84.975 47.6468 87.9052 47.1721 90.847 46.5815L90.1267 42.9366C87.2752 43.5091 84.4335 43.9695 81.6088 44.327L82.0638 48.0151ZM99.5093 44.5058C102.335 43.7159 105.165 42.8117 107.992 41.785L106.733 38.2911C103.997 39.285 101.257 40.1605 98.5198 40.9256L99.5093 44.5058ZM116.246 38.4241C118.917 37.2153 121.579 35.8891 124.227 34.4384L122.45 31.179C119.886 32.5837 117.309 33.8676 114.723 35.0377L116.246 38.4241ZM131.867 29.8714C134.318 28.2793 136.751 26.5722 139.161 24.7444L136.922 21.7842C134.584 23.5574 132.225 25.2125 129.85 26.7552L131.867 29.8714ZM146.074 19.109C148.261 17.1964 150.425 15.176 152.561 13.0432L149.941 10.4155C147.862 12.4909 145.758 14.4552 143.633 16.3133L146.074 19.109ZM158.649 6.57263C159.628 5.46564 160.601 4.33288 161.566 3.17391L158.714 0.799286C157.773 1.93002 156.824 3.03466 155.87 4.11371L158.649 6.57263Z" fill="#4078BC" fill-opacity="0.29"/>
</svg>
