<svg width="30" height="29" viewBox="0 0 30 29" fill="none" xmlns="http://www.w3.org/2000/svg">
<path d="M29.5139 25.9618L20.9052 17.3531C23.0566 14.4126 23.5247 10.6168 22.3065 7.30717L23.8158 6.03792L23.7078 7.05812C23.6868 7.25916 23.8338 7.4422 24.0348 7.4632C24.0468 7.4632 24.0618 7.4662 24.0738 7.4662C24.2599 7.4662 24.4189 7.32518 24.4399 7.13614L24.6439 5.20076C24.662 5.01772 24.5449 4.84969 24.3649 4.80468L22.5165 4.35159C22.3185 4.30358 22.1205 4.42361 22.0724 4.62164C22.0244 4.81968 22.1445 5.01772 22.3425 5.06573L23.4947 5.34779L22.0154 6.59303C21.4993 5.44981 20.7732 4.3816 19.834 3.44541C15.6542 -0.734408 8.85184 -0.734408 4.67202 3.44541C1.46739 6.64704 0.720247 11.388 2.42458 15.3097L0.114128 17.5122C-0.032901 17.6532 -0.0389022 17.8843 0.102126 18.0313C0.17414 18.1063 0.270159 18.1453 0.369178 18.1453C0.459196 18.1453 0.552214 18.1123 0.621228 18.0433L2.76065 16.0059C3.24974 16.9421 3.88887 17.8182 4.67202 18.6014C6.76043 20.6958 9.50597 21.74 12.2515 21.74C14.4779 21.74 16.7044 21.0529 18.5798 19.6786L27.1884 28.2873C27.5005 28.5994 27.9116 28.7704 28.3527 28.7704C28.7908 28.7704 29.2048 28.5994 29.5169 28.2873C29.829 27.9752 30 27.5642 30 27.1261C29.994 26.685 29.823 26.2709 29.5139 25.9618ZM5.19113 3.96451C7.13851 2.01713 9.69501 1.04494 12.2515 1.04494C14.808 1.04494 17.3645 2.01713 19.3119 3.96451C20.2361 4.8887 20.9382 5.95391 21.4243 7.08813L13.4788 13.7794L9.26593 9.30556C9.19991 9.23355 9.1069 9.19154 9.00788 9.19154C8.90886 9.18854 8.81584 9.22455 8.74382 9.29356L2.99469 14.7696C1.54241 11.1659 2.27455 6.87809 5.19113 3.96451ZM5.19113 18.0853C4.40797 17.3021 3.78385 16.42 3.31576 15.4778L8.98387 10.0797L13.1817 14.5386C13.3167 14.6796 13.5358 14.6946 13.6858 14.5686L21.7034 7.81727C22.8826 11.304 22.0844 15.3157 19.3119 18.0883C15.4171 21.9801 9.08289 21.9801 5.19113 18.0853ZM28.9948 27.7652C28.8238 27.9362 28.5927 28.0322 28.3527 28.0322C28.1096 28.0322 27.8816 27.9362 27.7106 27.7652L19.1619 19.2195C19.3929 19.0245 19.615 18.8204 19.834 18.6044C20.05 18.3883 20.2541 18.1633 20.4491 17.9353L28.9918 26.4809C29.1628 26.655 29.2589 26.883 29.2589 27.1231C29.2619 27.3661 29.1658 27.5942 28.9948 27.7652Z" fill="#0B3567"/>
</svg>
