<svg width="30" height="32" viewBox="0 0 30 32" fill="none" xmlns="http://www.w3.org/2000/svg">
<path d="M20.7975 31.3646H8.64194C8.44459 31.3646 8.28442 31.2044 8.28442 31.0071V27.7894C8.28442 27.5921 8.44459 27.4319 8.64194 27.4319H20.7975C20.9949 27.4319 21.1551 27.5921 21.1551 27.7894V31.0071C21.1551 31.2044 20.9949 31.3646 20.7975 31.3646ZM8.99946 30.6495H20.44V28.1469H8.99946V30.6495Z" fill="#0B3567"/>
<path d="M22.8897 20.9177C22.7671 20.9177 22.6477 20.8548 22.5812 20.7414C18.6732 14.0977 15.9989 7.44607 15.0304 4.89446C14.9604 4.70963 15.0533 4.50334 15.2378 4.43327C15.4219 4.36319 15.6289 4.45615 15.699 4.64063C16.6607 7.17507 19.3171 13.782 23.1976 20.3789C23.2977 20.5491 23.2408 20.7682 23.0706 20.8683C23.0138 20.9016 22.9512 20.9177 22.8897 20.9177Z" fill="#0B3567"/>
<path d="M10.5644 27.9462C10.5572 27.9462 10.5501 27.9462 10.5429 27.9455C10.3459 27.934 10.1958 27.7653 10.2068 27.5683C10.209 27.5236 10.3323 24.2201 6.66241 21.0332C6.53371 20.9213 6.50189 20.734 6.58662 20.5856C6.63238 20.5052 11.2158 12.4728 14.0051 4.67753C14.0716 4.49162 14.2761 4.39473 14.462 4.46159C14.6479 4.52809 14.7448 4.73259 14.678 4.91849C12.1464 11.993 8.15326 19.2539 7.34956 20.6875C11.0828 24.0625 10.9287 27.4639 10.9197 27.6094C10.9097 27.7996 10.7521 27.9462 10.5644 27.9462Z" fill="#0B3567"/>
<path d="M19.1219 27.9459C18.9338 27.9459 18.7765 27.7996 18.7654 27.6098C18.7565 27.4611 18.5967 23.9309 22.5548 20.4938C22.7038 20.364 22.9298 20.3801 23.0592 20.5292C23.1886 20.6783 23.1729 20.9042 23.0238 21.0336C19.3475 24.2266 19.4776 27.5362 19.4794 27.569C19.4898 27.7657 19.3389 27.9344 19.1422 27.9455C19.1355 27.9455 19.1287 27.9459 19.1219 27.9459Z" fill="#0B3567"/>
<path d="M14.834 19.485C13.8087 19.485 12.9742 18.6509 12.9742 17.6252C12.9742 16.5995 13.8083 15.7654 14.834 15.7654C15.8598 15.7654 16.6939 16.5995 16.6939 17.6252C16.6939 18.6509 15.8598 19.485 14.834 19.485ZM14.834 16.4804C14.2027 16.4804 13.6893 16.9942 13.6893 17.6252C13.6893 18.2562 14.2027 18.77 14.834 18.77C15.4654 18.77 15.9788 18.2562 15.9788 17.6252C15.9788 16.9942 15.4654 16.4804 14.834 16.4804Z" fill="#0B3567"/>
<path d="M27.6056 4.78966C26.2853 4.78966 25.2109 3.71532 25.2109 2.39501C25.2109 1.07434 26.2853 0 27.6056 0C28.9259 0 30.0002 1.07434 30.0002 2.39501C30.0002 3.71568 28.9259 4.78966 27.6056 4.78966ZM27.6056 0.715035C26.6793 0.715035 25.926 1.46868 25.926 2.39501C25.926 3.32134 26.6793 4.07463 27.6056 4.07463C28.5319 4.07463 29.2852 3.32134 29.2852 2.39501C29.2852 1.46868 28.5319 0.715035 27.6056 0.715035Z" fill="#0B3567"/>
<path d="M2.39465 4.78966C1.07434 4.78966 0 3.71532 0 2.39501C0 1.07434 1.07434 0 2.39465 0C3.71496 0 4.7893 1.07434 4.7893 2.39501C4.7893 3.71568 3.71496 4.78966 2.39465 4.78966ZM2.39465 0.715035C1.46832 0.715035 0.715035 1.46868 0.715035 2.39501C0.715035 3.32134 1.46832 4.07463 2.39465 4.07463C3.32098 4.07463 4.07427 3.32134 4.07427 2.39501C4.07427 1.46868 3.32098 0.715035 2.39465 0.715035Z" fill="#0B3567"/>
<path d="M14.8761 16.1028C14.6787 16.1028 14.5186 15.9426 14.5186 15.7452V4.6622C14.5186 4.46486 14.6787 4.30469 14.8761 4.30469C15.0734 4.30469 15.2336 4.46486 15.2336 4.6622V15.7452C15.2336 15.943 15.0734 16.1028 14.8761 16.1028Z" fill="#0B3567"/>
<path d="M25.3558 2.76337H17.1329C16.9356 2.76337 16.7754 2.60321 16.7754 2.40586C16.7754 2.20851 16.9356 2.04834 17.1329 2.04834H25.3558C25.5532 2.04834 25.7133 2.20851 25.7133 2.40586C25.7133 2.60321 25.5532 2.76337 25.3558 2.76337Z" fill="#0B3567"/>
<path d="M12.8427 2.76337H4.61985C4.4225 2.76337 4.26233 2.60321 4.26233 2.40586C4.26233 2.20851 4.4225 2.04834 4.61985 2.04834H12.8427C13.0401 2.04834 13.2003 2.20851 13.2003 2.40586C13.2003 2.60321 13.0401 2.76337 12.8427 2.76337Z" fill="#0B3567"/>
<path d="M16.7754 4.90847H12.8427C12.6454 4.90847 12.4852 4.7483 12.4852 4.55095V0.61826C12.4852 0.42091 12.6454 0.260742 12.8427 0.260742H16.7754C16.9728 0.260742 17.133 0.42091 17.133 0.61826V4.55095C17.133 4.7483 16.9728 4.90847 16.7754 4.90847ZM13.2003 4.19343H16.4179V0.975777H13.2003V4.19343Z" fill="#0B3567"/>
<path d="M24.4474 12.0551C24.25 12.0551 24.0898 11.8949 24.0898 11.6976C24.0898 7.44454 21.0792 3.69955 16.9316 2.79288C16.7386 2.7507 16.6167 2.56014 16.6585 2.36744C16.7007 2.17438 16.8916 2.05282 17.0839 2.09429C21.5579 3.0721 24.8049 7.11098 24.8049 11.6976C24.8049 11.8949 24.6451 12.0551 24.4474 12.0551Z" fill="#0B3567"/>
<path d="M5.50107 12.0552C5.30372 12.0552 5.14355 11.895 5.14355 11.6977C5.14355 7.11714 8.25253 3.18302 12.7043 2.13085C12.8952 2.08437 13.089 2.2045 13.1344 2.39648C13.1798 2.58847 13.0608 2.78117 12.8688 2.82658C8.74125 3.80224 5.85859 7.45035 5.85859 11.6977C5.85859 11.895 5.69878 12.0552 5.50107 12.0552Z" fill="#0B3567"/>
</svg>
