<svg width="30" height="31" viewBox="0 0 30 31" fill="none" xmlns="http://www.w3.org/2000/svg">
<path d="M24.731 0.00490002C23.4353 -0.052404 22.1518 0.392762 21.1959 1.34795L14.5819 7.94918L8.99415 2.36157C8.98314 2.35054 8.96723 2.34713 8.95614 2.33623C8.93677 2.31726 8.91554 2.30029 8.89279 2.28555C7.8756 1.31624 6.57654 0.8166 5.269 0.815785C3.92132 0.814974 2.57258 1.33288 1.54385 2.36157C-0.513604 4.41895 -0.51563 7.73964 1.54385 9.79904L7.14425 15.3866L2.53216 20.0113C1.3647 21.1798 0.911937 23.4446 0.656912 25.4468C0.401888 27.4491 0.403501 29.1972 0.403501 29.1972C0.403502 29.3048 0.446219 29.4079 0.522256 29.484C0.598292 29.56 0.701422 29.6027 0.808959 29.6027C0.808959 29.6027 2.55712 29.5917 4.55945 29.3366C6.56178 29.0816 8.82653 28.6415 9.99513 27.4741L14.6072 22.8621L21.0059 29.2606C23.0653 31.3201 26.3987 31.3307 28.4562 29.2731C30.5136 27.2157 30.5156 23.8824 28.4562 21.823L22.0448 15.412L28.6589 8.79807C30.5693 6.88632 30.4033 3.68785 28.3548 1.63936C27.3305 0.615127 26.0267 0.0622081 24.731 0.00490002ZM24.3002 0.815785C25.5117 0.753061 26.7904 1.21537 27.7846 2.20951C29.552 3.9769 29.6626 6.65296 28.0887 8.22792L21.4747 14.8418L18.5984 11.9656L24.617 5.95994C24.6766 5.9025 24.7172 5.82818 24.7333 5.74699C24.7495 5.6658 24.7404 5.58161 24.7073 5.50573C24.6742 5.42986 24.6186 5.36594 24.5481 5.32256C24.4776 5.27917 24.3955 5.25843 24.3129 5.26307C24.207 5.26725 24.1069 5.31272 24.0341 5.38976L18.0283 11.3955L15.1521 8.51933L21.7661 1.9181C22.4552 1.22954 23.3579 0.864572 24.3002 0.815785ZM5.269 1.61403C6.40692 1.61484 7.54791 2.05571 8.42397 2.93174C8.43204 2.94056 8.4405 2.94901 8.44932 2.95708L14.3158 8.82341L21.2086 15.716L27.8733 22.3933C29.6254 24.1453 29.6353 26.9411 27.886 28.6904C26.1367 30.4396 23.3282 30.4425 21.576 28.6904L14.8733 22.0005L11.6423 18.7569C11.6342 18.7482 11.6258 18.7398 11.617 18.7318L7.99317 15.1081C7.9851 15.0994 7.97664 15.091 7.96783 15.083L2.1267 9.22886C0.374575 7.47681 0.364713 4.68098 2.11403 2.93174C2.98869 2.05712 4.13108 1.61328 5.269 1.61403ZM8.09454 4.85762C7.98863 4.8618 7.88857 4.90729 7.81579 4.98433L7.00487 5.79521C6.96647 5.83346 6.93599 5.8789 6.91517 5.92893C6.89435 5.97897 6.88361 6.03263 6.88355 6.08682C6.8835 6.14102 6.89413 6.19468 6.91484 6.24476C6.93556 6.29484 6.96594 6.34033 7.00426 6.37865C7.04259 6.41697 7.08809 6.44736 7.13817 6.46808C7.18825 6.48879 7.24192 6.49943 7.29612 6.49938C7.35031 6.49932 7.40396 6.48857 7.454 6.46776C7.50404 6.44694 7.54948 6.41646 7.58772 6.37806L8.39863 5.55448C8.45825 5.49705 8.49886 5.42275 8.51501 5.34156C8.53115 5.26037 8.52206 5.17615 8.48895 5.10028C8.45584 5.02441 8.4003 4.96051 8.3298 4.91712C8.25929 4.87374 8.17719 4.85297 8.09454 4.85762ZM12.1491 8.91212C12.0432 8.9163 11.9432 8.96176 11.8704 9.0388L11.0595 9.84971C11.0219 9.88797 10.9923 9.93323 10.9723 9.98294C10.9523 10.0326 10.9423 10.0858 10.9428 10.1394C10.9434 10.193 10.9545 10.2459 10.9755 10.2952C10.9965 10.3445 11.0271 10.3891 11.0654 10.4266C11.1037 10.4641 11.149 10.4937 11.1987 10.5136C11.2485 10.5335 11.3017 10.5435 11.3552 10.5428C11.4088 10.5422 11.4618 10.531 11.511 10.5099C11.5603 10.4888 11.6049 10.4582 11.6423 10.4199L12.4532 9.60898C12.5128 9.55155 12.5534 9.47723 12.5696 9.39603C12.5857 9.31484 12.5766 9.23065 12.5435 9.15478C12.5104 9.07891 12.4549 9.01498 12.3844 8.9716C12.3139 8.92822 12.2318 8.90747 12.1491 8.91212ZM16.2037 12.9666C16.0978 12.9708 15.9977 13.0163 15.925 13.0933L15.114 13.9042C15.0765 13.9425 15.0469 13.9877 15.0269 14.0374C15.0069 14.0871 14.9968 14.1403 14.9974 14.1939C14.9979 14.2475 15.0091 14.3004 15.0301 14.3497C15.0511 14.399 15.0817 14.4436 15.12 14.4811C15.1583 14.5186 15.2036 14.5482 15.2533 14.5681C15.3031 14.588 15.3562 14.598 15.4098 14.5973C15.4634 14.5967 15.5163 14.5855 15.5656 14.5644C15.6149 14.5433 15.6595 14.5127 15.6969 14.4744L16.5078 13.6635C16.5674 13.606 16.608 13.5317 16.6242 13.4505C16.6403 13.3693 16.6312 13.2852 16.5981 13.2093C16.565 13.1334 16.5095 13.0695 16.439 13.0261C16.3685 12.9827 16.2864 12.962 16.2037 12.9666ZM7.71442 15.9695L10.7934 19.0357L6.19395 23.635C6.11911 23.7124 6.07795 23.8163 6.07946 23.924C6.08097 24.0317 6.12502 24.1344 6.20201 24.2097C6.279 24.285 6.38265 24.3268 6.49035 24.326C6.59804 24.3251 6.70102 24.2817 6.7768 24.2052L11.3635 19.6185L14.037 22.2793L9.42495 26.8912C8.58399 27.7314 6.40185 28.2908 4.45808 28.5384C4.00108 28.5966 3.5903 28.6331 3.21637 28.6651C3.19997 28.604 3.16961 28.5477 3.12767 28.5004L1.50584 26.8786C1.45992 26.832 1.4034 26.7972 1.34112 26.7772C1.37305 26.4068 1.41034 25.9996 1.46783 25.5482C1.71539 23.6045 2.26218 21.4224 3.10233 20.5814L7.71442 15.9695ZM20.2583 17.0211C20.1524 17.0253 20.0523 17.0708 19.9795 17.1478L19.1686 17.9587C19.0938 18.0361 19.0526 18.1401 19.0541 18.2477C19.0556 18.3554 19.0997 18.4581 19.1767 18.5334C19.2537 18.6087 19.3573 18.6505 19.465 18.6497C19.5727 18.6488 19.6757 18.6054 19.7515 18.5289L20.5624 17.718C20.622 17.6605 20.6626 17.5862 20.6788 17.505C20.6949 17.4238 20.6858 17.3397 20.6527 17.2638C20.6196 17.1879 20.5641 17.124 20.4936 17.0806C20.4231 17.0372 20.341 17.0164 20.2583 17.0211ZM24.3129 21.0756C24.207 21.0798 24.1069 21.1253 24.0341 21.2023L23.2232 22.0132C23.1484 22.0907 23.1072 22.1946 23.1087 22.3022C23.1102 22.4099 23.1543 22.5126 23.2313 22.5879C23.3083 22.6632 23.4119 22.705 23.5196 22.7042C23.6273 22.7033 23.7303 22.6599 23.8061 22.5834L24.617 21.7725C24.6766 21.715 24.7172 21.6407 24.7334 21.5595C24.7495 21.4783 24.7404 21.3942 24.7073 21.3183C24.6742 21.2424 24.6187 21.1785 24.5481 21.1351C24.4776 21.0917 24.3955 21.0709 24.3129 21.0756ZM1.27777 27.8036L2.21539 28.7411C1.75708 28.7626 1.39014 28.765 1.23976 28.7662C1.24118 28.6178 1.25707 28.2523 1.27777 27.8036Z" fill="#0B3567"/>
</svg>
