<svg width="30" height="30" viewBox="0 0 30 30" fill="none" xmlns="http://www.w3.org/2000/svg">
<path d="M26.699 6.01143H24.4125V5.32074V5.29692C24.4125 5.21118 24.3887 5.1302 24.3458 5.05875L21.383 0.242934C21.2163 -0.0238171 20.7733 -0.0238171 20.6113 0.242934L17.6485 5.05875C17.6056 5.1302 17.5818 5.23499 17.5818 5.32074V6.01143H14.2569V1.36234C14.2569 0.609717 13.6472 0 12.8946 0H6.9403C6.18768 0 5.57796 0.609717 5.57796 1.36234V6.01143H3.29152C1.47666 6.01143 0 7.46904 0 9.26484V21.6497V22.9073C0 24.6793 1.47666 26.1226 3.29152 26.1226H12.1229L11.2178 29.0807H9.64592C9.39346 29.0807 9.19339 29.2855 9.19339 29.5332C9.19339 29.7809 9.39822 29.9857 9.64592 29.9857H20.3541C20.6065 29.9857 20.8066 29.7809 20.8066 29.5332C20.8066 29.2807 20.6018 29.0807 20.3541 29.0807H18.7822L17.8771 26.1178H26.7085C28.5233 26.1178 30 24.6745 30 22.9025V21.645V9.26008C29.9905 7.46904 28.5138 6.01143 26.699 6.01143ZM26.699 6.92124C28.0137 6.92124 29.0807 7.97396 29.0807 9.26484V21.1924H24.4125V6.92124H26.699ZM18.4868 6.46396V5.77326H20.5399V21.1924H18.4868V6.46396ZM23.5027 5.77326V6.46396V21.1924H21.4497V5.77326H23.5027ZM20.9924 1.34805L23.155 4.86821H20.9924H18.8298L20.9924 1.34805ZM17.577 6.92124V21.1972H14.2521V6.92124H17.577ZM6.47825 1.36234C6.47825 1.10988 6.68307 0.909813 6.93077 0.909813H12.885C13.1375 0.909813 13.3376 1.11464 13.3376 1.36234V2.92474H10.1175C9.86504 2.92474 9.66497 3.12956 9.66497 3.37726C9.66497 3.62972 9.8698 3.82979 10.1175 3.82979H13.3376V5.48269H11.0225C10.7701 5.48269 10.57 5.68752 10.57 5.93522C10.57 6.18768 10.7748 6.38774 11.0225 6.38774H13.3376V6.45443V8.04065H10.1175C9.86504 8.04065 9.66497 8.24547 9.66497 8.49317C9.66497 8.74563 9.8698 8.94569 10.1175 8.94569H13.3376V10.5986H11.0225C10.7701 10.5986 10.57 10.8034 10.57 11.0511C10.57 11.3036 10.7748 11.5036 11.0225 11.5036H13.3376V13.1566H10.1175C9.86504 13.1566 9.66497 13.3614 9.66497 13.6091C9.66497 13.8568 9.8698 14.0616 10.1175 14.0616H13.3376V15.7145H11.0225C10.7701 15.7145 10.57 15.9193 10.57 16.167C10.57 16.4147 10.7748 16.6196 11.0225 16.6196H13.3376V18.2725H10.1175C9.86504 18.2725 9.66497 18.4773 9.66497 18.725C9.66497 18.9727 9.8698 19.1775 10.1175 19.1775H13.3376V21.1591H6.47825V6.46396V1.36234ZM3.28199 6.92124H5.56843V21.1972H0.900286V9.26484C0.900286 7.96919 1.97205 6.92124 3.28199 6.92124ZM17.8199 29.0854H12.161L13.0661 26.1273H16.9149L17.8199 29.0854ZM26.6942 25.2128H17.2531H12.7326H3.28676C1.97205 25.2128 0.905049 24.1791 0.905049 22.9073V22.1022H6.02572H13.7996H18.0343H20.9971H23.96H29.0807V22.9073C29.0807 24.1791 28.0089 25.2128 26.6942 25.2128Z" fill="#0B3567"/>
<path d="M11.6945 23.2026H10.8323C10.5798 23.2026 10.3798 23.4075 10.3798 23.6552C10.3798 23.9029 10.5846 24.1077 10.8323 24.1077H11.6945C11.9469 24.1077 12.147 23.9029 12.147 23.6552C12.147 23.4075 11.9469 23.2026 11.6945 23.2026Z" fill="#0B3567"/>
<path d="M15.0665 23.2026H14.2044C13.9519 23.2026 13.7518 23.4075 13.7518 23.6552C13.7518 23.9029 13.9567 24.1077 14.2044 24.1077H15.0665C15.319 24.1077 15.5191 23.9029 15.5191 23.6552C15.5191 23.4075 15.319 23.2026 15.0665 23.2026Z" fill="#0B3567"/>
<path d="M18.4346 23.2026H17.5724C17.3199 23.2026 17.1199 23.4075 17.1199 23.6552C17.1199 23.9029 17.3247 24.1077 17.5724 24.1077H18.4346C18.687 24.1077 18.8871 23.9029 18.8871 23.6552C18.8871 23.4075 18.687 23.2026 18.4346 23.2026Z" fill="#0B3567"/>
</svg>
