<svg width="25" height="25" viewBox="0 0 25 25" fill="none" xmlns="http://www.w3.org/2000/svg">
<circle cx="12.5" cy="12.5" r="12.5" fill="#4079BD"/>
<path d="M8.39645 15.8964C8.20118 16.0917 8.20118 16.4083 8.39645 16.6036C8.59171 16.7988 8.90829 16.7988 9.10355 16.6036L8.39645 15.8964ZM16.3211 9.17893C16.3211 8.90279 16.0972 8.67893 15.8211 8.67893L11.3211 8.67893C11.0449 8.67893 10.8211 8.90279 10.8211 9.17893C10.8211 9.45507 11.0449 9.67893 11.3211 9.67893L15.3211 9.67893L15.3211 13.6789C15.3211 13.9551 15.5449 14.1789 15.8211 14.1789C16.0972 14.1789 16.3211 13.9551 16.3211 13.6789L16.3211 9.17893ZM9.10355 16.6036L16.1746 9.53249L15.4675 8.82538L8.39645 15.8964L9.10355 16.6036Z" fill="white"/>
</svg>
