<svg width="26" height="27" viewBox="0 0 26 27" fill="none" xmlns="http://www.w3.org/2000/svg">
<path d="M1.07389 5.8554H25.0322C25.2189 5.8554 25.3676 5.70123 25.3676 5.51444V4.26444C25.3676 2.42074 23.8986 0.918164 22.0895 0.918164H4.0166C2.2075 0.918164 0.738477 2.42074 0.738477 4.26444V5.51444C0.738477 5.70123 0.887189 5.8554 1.07389 5.8554ZM24.6968 4.26444V5.17348H1.40931V4.26444C1.40931 2.79389 2.58049 1.60008 4.0166 1.60008H22.0895C23.5256 1.60008 24.6968 2.79389 24.6968 4.26444Z" fill="url(#paint0_linear_2050_7060)" stroke="url(#paint1_linear_2050_7060)" stroke-width="0.15"/>
<path d="M4.0166 26.0677H22.0895C23.8986 26.0677 25.3676 24.5652 25.3676 22.7215V5.514C25.3676 5.32722 25.2189 5.17305 25.0322 5.17305H1.07389C0.887189 5.17305 0.738477 5.32722 0.738477 5.514V22.7215C0.738477 24.5652 2.2075 26.0677 4.0166 26.0677ZM1.40931 22.7215V5.85496H24.6968V22.7215C24.6968 24.192 23.5256 25.3858 22.0895 25.3858H4.0166C2.58049 25.3858 1.40931 24.192 1.40931 22.7215Z" fill="url(#paint2_linear_2050_7060)" stroke="url(#paint3_linear_2050_7060)" stroke-width="0.15"/>
<path d="M3.15592 15.9609H22.9476C23.1343 15.9609 23.283 15.8068 23.283 15.62V8.17318C23.283 7.9864 23.1343 7.83223 22.9476 7.83223H3.15592C2.96922 7.83223 2.82051 7.9864 2.82051 8.17318V15.62C2.82051 15.8068 2.96923 15.9609 3.15592 15.9609ZM22.6122 8.51414V15.279H3.49134V8.51414H22.6122Z" fill="url(#paint4_linear_2050_7060)" stroke="url(#paint5_linear_2050_7060)" stroke-width="0.15"/>
<path d="M3.15592 22.3447H11.4893C11.676 22.3447 11.8247 22.1905 11.8247 22.0037V17.7484C11.8247 17.5615 11.676 17.4074 11.4893 17.4074H3.15592C2.96923 17.4074 2.82051 17.5615 2.82051 17.7484V22.0037C2.82051 22.1905 2.96923 22.3447 3.15592 22.3447ZM11.1538 18.0893V21.6627H3.49134V18.0893H11.1538Z" fill="url(#paint6_linear_2050_7060)" stroke="url(#paint7_linear_2050_7060)" stroke-width="0.15"/>
<path d="M14.6149 22.3447H22.9482C23.1349 22.3447 23.2837 22.1905 23.2837 22.0037V17.7484C23.2837 17.5615 23.1349 17.4074 22.9482 17.4074H14.6149C14.4282 17.4074 14.2795 17.5615 14.2795 17.7484V22.0037C14.2795 22.1905 14.4282 22.3447 14.6149 22.3447ZM22.6128 18.0893V21.6627H14.9503V18.0893H22.6128Z" fill="url(#paint8_linear_2050_7060)" stroke="url(#paint9_linear_2050_7060)" stroke-width="0.15"/>
<path d="M2.8557 22.1557C2.91413 22.2751 3.03252 22.3448 3.15619 22.3448L3.27244 22.2416L3.30654 22.3084L3.30664 22.3084C3.30665 22.3084 3.30665 22.3084 3.30666 22.3084L11.6399 18.0531C11.6399 18.0531 11.6399 18.0531 11.6399 18.0531C11.8058 17.9684 11.8715 17.7638 11.7896 17.5965C11.7073 17.4284 11.5054 17.3585 11.3387 17.4439L3.00543 21.6991C3.00543 21.6991 3.00542 21.6991 3.00541 21.6991C2.83952 21.7838 2.77378 21.9884 2.8557 22.1557Z" fill="url(#paint10_linear_2050_7060)" stroke="url(#paint11_linear_2050_7060)" stroke-width="0.15"/>
<path d="M11.7896 22.1558L11.7896 22.1558C11.7311 22.2751 11.6128 22.3448 11.4891 22.3448C11.4383 22.3448 11.3869 22.333 11.3387 22.3085L3.00543 18.0531C3.00543 18.0531 3.00542 18.0531 3.00541 18.0531C2.83953 17.9685 2.77378 17.7639 2.85568 17.5966L11.7896 22.1558ZM11.7896 22.1558C11.8715 21.9884 11.8058 21.7838 11.6399 21.6992L3.3066 17.4439C3.30659 17.4439 3.30658 17.4439 3.30657 17.4439M11.7896 22.1558L3.30657 17.4439M3.30657 17.4439C3.13971 17.3585 2.93799 17.4283 2.8557 17.5966L3.30654 17.4439L3.30657 17.4439Z" fill="url(#paint12_linear_2050_7060)" stroke="url(#paint13_linear_2050_7060)" stroke-width="0.15"/>
<path d="M14.7656 22.3084C14.7656 22.3084 14.7656 22.3084 14.7656 22.3084L14.7656 22.3084ZM14.7656 22.3084L23.0988 18.0531C23.0988 18.0531 23.0989 18.0531 23.0989 18.0531L14.7656 22.3084ZM14.3147 22.1557C14.3731 22.2751 14.4915 22.3448 14.6152 22.3448L23.0648 17.9863C23.1934 17.9207 23.2455 17.7608 23.1812 17.6295C23.1169 17.4982 22.9604 17.4448 22.8318 17.5106L22.7977 17.4438L22.7977 17.4438L14.4644 21.6991C14.4644 21.6991 14.4644 21.6991 14.4644 21.6991C14.2985 21.7838 14.2328 21.9884 14.3147 22.1557Z" fill="url(#paint14_linear_2050_7060)" stroke="url(#paint15_linear_2050_7060)" stroke-width="0.15"/>
<path d="M23.2486 22.1558L23.2486 22.1558C23.1901 22.2751 23.0717 22.3448 22.9481 22.3448C22.8973 22.3448 22.8459 22.333 22.7977 22.3085L14.4644 18.0531C14.4644 18.0531 14.4644 18.0531 14.4644 18.0531C14.2985 17.9685 14.2328 17.7639 14.3147 17.5966L23.2486 22.1558ZM23.2486 22.1558C23.3305 21.9884 23.2647 21.7838 23.0988 21.6992L14.7656 17.4439C14.7656 17.4439 14.7656 17.4439 14.7656 17.4439M23.2486 22.1558L14.7656 17.4439M14.7656 17.4439C14.5987 17.3585 14.397 17.4283 14.3147 17.5966L14.7655 17.4439L14.7656 17.4439Z" fill="url(#paint16_linear_2050_7060)" stroke="url(#paint17_linear_2050_7060)" stroke-width="0.15"/>
<path d="M23.2626 8.05681L23.2626 8.05682C23.3259 8.2322 23.2385 8.42833 23.0641 8.49396L23.0377 8.4238L23.0641 8.49397L3.27243 15.9408L3.27236 15.9408C3.23423 15.9551 3.19483 15.962 3.15602 15.962C3.01868 15.962 2.89066 15.8759 2.8411 15.7384C2.84109 15.7384 2.84109 15.7384 2.84109 15.7384L2.91164 15.713L23.2626 8.05681ZM23.2626 8.05681C23.199 7.88085 23.0065 7.78854 22.8312 7.85448L3.03957 15.3013C3.03956 15.3013 3.03956 15.3013 3.03955 15.3013L23.2626 8.05681Z" fill="url(#paint18_linear_2050_7060)" stroke="url(#paint19_linear_2050_7060)" stroke-width="0.15"/>
<path d="M3.03954 8.49297L3.03955 8.49297L23.0377 15.3705L23.0641 15.3003L23.0641 15.3003L3.27243 7.85349L3.27242 7.85348C3.09726 7.78762 2.90464 7.87976 2.8411 8.05583C2.7778 8.23121 2.86519 8.42734 3.03954 8.49297Z" fill="url(#paint20_linear_2050_7060)" stroke="url(#paint21_linear_2050_7060)" stroke-width="0.15"/>
<defs>
<linearGradient id="paint0_linear_2050_7060" x1="0.813477" y1="0.993164" x2="2.61692" y2="10.2149" gradientUnits="userSpaceOnUse">
<stop stop-color="#00D3EA"/>
<stop offset="1" stop-color="#4078BC"/>
</linearGradient>
<linearGradient id="paint1_linear_2050_7060" x1="0.813477" y1="0.993164" x2="2.61692" y2="10.2149" gradientUnits="userSpaceOnUse">
<stop stop-color="#00D3EA"/>
<stop offset="1" stop-color="#4078BC"/>
</linearGradient>
<linearGradient id="paint2_linear_2050_7060" x1="0.813477" y1="5.24805" x2="21.2772" y2="29.3956" gradientUnits="userSpaceOnUse">
<stop stop-color="#00D3EA"/>
<stop offset="1" stop-color="#4078BC"/>
</linearGradient>
<linearGradient id="paint3_linear_2050_7060" x1="0.813477" y1="5.24805" x2="21.2772" y2="29.3956" gradientUnits="userSpaceOnUse">
<stop stop-color="#00D3EA"/>
<stop offset="1" stop-color="#4078BC"/>
</linearGradient>
<linearGradient id="paint4_linear_2050_7060" x1="2.89551" y1="7.90723" x2="8.32574" y2="21.7317" gradientUnits="userSpaceOnUse">
<stop stop-color="#00D3EA"/>
<stop offset="1" stop-color="#4078BC"/>
</linearGradient>
<linearGradient id="paint5_linear_2050_7060" x1="2.89551" y1="7.90723" x2="8.32574" y2="21.7317" gradientUnits="userSpaceOnUse">
<stop stop-color="#00D3EA"/>
<stop offset="1" stop-color="#4078BC"/>
</linearGradient>
<linearGradient id="paint6_linear_2050_7060" x1="2.89551" y1="17.4824" x2="6.9012" y2="24.8911" gradientUnits="userSpaceOnUse">
<stop stop-color="#00D3EA"/>
<stop offset="1" stop-color="#4078BC"/>
</linearGradient>
<linearGradient id="paint7_linear_2050_7060" x1="2.89551" y1="17.4824" x2="6.9012" y2="24.8911" gradientUnits="userSpaceOnUse">
<stop stop-color="#00D3EA"/>
<stop offset="1" stop-color="#4078BC"/>
</linearGradient>
<linearGradient id="paint8_linear_2050_7060" x1="14.3545" y1="17.4824" x2="18.3602" y2="24.8911" gradientUnits="userSpaceOnUse">
<stop stop-color="#00D3EA"/>
<stop offset="1" stop-color="#4078BC"/>
</linearGradient>
<linearGradient id="paint9_linear_2050_7060" x1="14.3545" y1="17.4824" x2="18.3602" y2="24.8911" gradientUnits="userSpaceOnUse">
<stop stop-color="#00D3EA"/>
<stop offset="1" stop-color="#4078BC"/>
</linearGradient>
<linearGradient id="paint10_linear_2050_7060" x1="2.89551" y1="17.4824" x2="6.90138" y2="24.8913" gradientUnits="userSpaceOnUse">
<stop stop-color="#00D3EA"/>
<stop offset="1" stop-color="#4078BC"/>
</linearGradient>
<linearGradient id="paint11_linear_2050_7060" x1="2.89551" y1="17.4824" x2="6.90138" y2="24.8913" gradientUnits="userSpaceOnUse">
<stop stop-color="#00D3EA"/>
<stop offset="1" stop-color="#4078BC"/>
</linearGradient>
<linearGradient id="paint12_linear_2050_7060" x1="2.89551" y1="17.4824" x2="6.90137" y2="24.8913" gradientUnits="userSpaceOnUse">
<stop stop-color="#00D3EA"/>
<stop offset="1" stop-color="#4078BC"/>
</linearGradient>
<linearGradient id="paint13_linear_2050_7060" x1="2.89551" y1="17.4824" x2="6.90137" y2="24.8913" gradientUnits="userSpaceOnUse">
<stop stop-color="#00D3EA"/>
<stop offset="1" stop-color="#4078BC"/>
</linearGradient>
<linearGradient id="paint14_linear_2050_7060" x1="14.3545" y1="17.4824" x2="18.3604" y2="24.8913" gradientUnits="userSpaceOnUse">
<stop stop-color="#00D3EA"/>
<stop offset="1" stop-color="#4078BC"/>
</linearGradient>
<linearGradient id="paint15_linear_2050_7060" x1="14.3545" y1="17.4824" x2="18.3604" y2="24.8913" gradientUnits="userSpaceOnUse">
<stop stop-color="#00D3EA"/>
<stop offset="1" stop-color="#4078BC"/>
</linearGradient>
<linearGradient id="paint16_linear_2050_7060" x1="14.3545" y1="17.4824" x2="18.3604" y2="24.8913" gradientUnits="userSpaceOnUse">
<stop stop-color="#00D3EA"/>
<stop offset="1" stop-color="#4078BC"/>
</linearGradient>
<linearGradient id="paint17_linear_2050_7060" x1="14.3545" y1="17.4824" x2="18.3604" y2="24.8913" gradientUnits="userSpaceOnUse">
<stop stop-color="#00D3EA"/>
<stop offset="1" stop-color="#4078BC"/>
</linearGradient>
<linearGradient id="paint18_linear_2050_7060" x1="2.89551" y1="7.9082" x2="8.32582" y2="21.7328" gradientUnits="userSpaceOnUse">
<stop stop-color="#00D3EA"/>
<stop offset="1" stop-color="#4078BC"/>
</linearGradient>
<linearGradient id="paint19_linear_2050_7060" x1="2.89551" y1="7.9082" x2="8.32582" y2="21.7328" gradientUnits="userSpaceOnUse">
<stop stop-color="#00D3EA"/>
<stop offset="1" stop-color="#4078BC"/>
</linearGradient>
<linearGradient id="paint20_linear_2050_7060" x1="2.89551" y1="7.90723" x2="8.32586" y2="21.7319" gradientUnits="userSpaceOnUse">
<stop stop-color="#00D3EA"/>
<stop offset="1" stop-color="#4078BC"/>
</linearGradient>
<linearGradient id="paint21_linear_2050_7060" x1="2.89551" y1="7.90723" x2="8.32586" y2="21.7319" gradientUnits="userSpaceOnUse">
<stop stop-color="#00D3EA"/>
<stop offset="1" stop-color="#4078BC"/>
</linearGradient>
</defs>
</svg>
