<svg width="40" height="20" viewBox="0 0 40 20" fill="none" xmlns="http://www.w3.org/2000/svg">
<path d="M16.1705 4.58503L2.41447 5.03944C1.0926 5.08565 0 3.94576 0 2.5209C0 1.04213 1.18216 -0.120866 2.55418 0.0100674L27.8631 2.44003L27.8417 2.44774C24.0623 3.73396 20.1361 4.45409 16.1705 4.58503Z" fill="white"/>
<mask id="mask0_2050_3969" style="mask-type:luminance" maskUnits="userSpaceOnUse" x="8" y="6" width="11" height="14">
<path d="M8.74805 6.64526L9.21375 16.7233V16.7387C9.21016 17.1623 10.2311 20.9555 13.8922 19.1686L14.3436 18.9068L15.0744 18.4832L16.1706 17.8439L18.8286 16.2997C14.7663 18.6642 13.817 14.5475 13.7346 14.1316C13.731 14.1123 13.7274 14.1008 13.7274 14.1008L13.0862 10.0726C12.8247 9.17535 12.3339 8.39746 11.6927 7.81211C10.8938 7.08042 9.86214 6.64526 8.74805 6.64526Z" fill="white"/>
</mask>
<g mask="url(#mask0_2050_3969)">
<path d="M18.8286 6.64526H8.74805V20.9593H18.8286V6.64526Z" fill="white"/>
</g>
<mask id="mask1_2050_3969" style="mask-type:luminance" maskUnits="userSpaceOnUse" x="13" y="3" width="27" height="15">
<path d="M38.3343 4.26151C33.5483 5.03556 28.877 6.48352 24.4457 8.5746L14.3759 13.3229L14.032 13.4846C13.8493 13.5693 13.6415 13.4499 13.6092 13.2381L13.2295 10.7466C13.1937 10.5155 13.1435 10.2921 13.0826 10.0726L13.7239 14.1008C13.7239 14.1008 13.7239 14.1123 13.731 14.1316C13.817 14.5475 14.7663 18.6642 18.8287 16.2997L40.0001 3.99194L38.3343 4.26151Z" fill="white"/>
</mask>
<g mask="url(#mask1_2050_3969)">
<path d="M8.85535 5.57077L37.0982 -4.97705L44.227 17.0813L15.9841 27.6292L8.85535 5.57077Z" fill="white"/>
</g>
</svg>
